<svg width="299" height="104" viewBox="0 0 299 104" fill="none" xmlns="http://www.w3.org/2000/svg">
<path d="M43.1691 42.416C42.9931 42.416 42.8171 42.416 42.6411 42.416C42.4651 42.416 42.2891 42.408 42.1131 42.392C40.8491 42.328 39.8251 41.912 39.0411 41.144C38.2571 40.376 37.8651 39.328 37.8651 38C37.8651 36.848 38.1931 35.544 38.8491 34.088C39.6811 32.248 41.2491 30.504 43.5531 28.856C44.8811 27.912 46.2971 27.16 47.8011 26.6C49.3051 26.024 50.8251 25.736 52.3611 25.736C53.2571 25.736 54.0731 25.856 54.8091 26.096C55.5611 26.336 56.1531 26.696 56.5851 27.176C57.0331 27.656 57.2571 28.264 57.2571 29C57.2571 29.256 57.2251 29.528 57.1611 29.816C57.0971 30.088 56.9931 30.36 56.8491 30.632L56.5851 31.136C56.7131 31.568 56.7771 32.008 56.7771 32.456C56.7771 34.456 55.7531 36.368 53.7051 38.192C50.5691 41.008 47.0571 42.416 43.1691 42.416ZM43.0251 41.936C46.1771 41.936 49.1771 40.664 52.0251 38.12C54.0731 36.296 55.1771 34.56 55.3371 32.912C54.5051 33.824 53.0651 34.912 51.0171 36.176L50.8251 36.224C50.6971 36.224 50.9051 36 51.4491 35.552L52.7931 34.448C53.3691 33.968 53.8651 33.52 54.2811 33.104C54.6971 32.688 55.0411 32.312 55.3131 31.976C55.2011 31.08 54.7691 30.312 54.0171 29.672C53.3771 29.112 52.6091 28.696 51.7131 28.424C51.2651 28.312 50.5291 28.24 49.5051 28.208C48.6571 28.176 48.2331 28.136 48.2331 28.088C48.2331 28.072 48.2491 28.048 48.2811 28.016C49.0331 27.776 49.7531 27.656 50.4411 27.656C50.7611 27.656 51.1131 27.68 51.4971 27.728C51.8811 27.776 52.2971 27.856 52.7451 27.968C54.4251 28.368 55.6011 29.184 56.2731 30.416C56.4331 30.032 56.5131 29.64 56.5131 29.24C56.5131 28.584 56.3211 28.032 55.9371 27.584C55.5691 27.136 55.0651 26.8 54.4251 26.576C53.8011 26.352 53.1051 26.24 52.3371 26.24C49.9211 26.24 47.6011 27.016 45.3771 28.568C43.3131 30.008 41.6811 31.864 40.4811 34.136C39.6011 35.784 39.1611 37.264 39.1611 38.576C39.1611 40.688 40.2251 41.8 42.3531 41.912C42.4651 41.928 42.5771 41.936 42.6891 41.936C42.8011 41.936 42.9131 41.936 43.0251 41.936ZM57.2374 41.264C56.5174 41.264 56.1574 40.808 56.1574 39.896C56.1574 39.544 56.2614 39.128 56.4694 38.648C56.6934 38.152 57.0054 37.632 57.4054 37.088C57.4054 37.088 57.2614 37.224 56.9734 37.496C56.6854 37.768 56.3574 38.112 55.9894 38.528C55.9254 38.592 55.8454 38.624 55.7494 38.624C55.6854 38.624 55.6534 38.584 55.6534 38.504C55.6534 38.424 55.7254 38.288 55.8694 38.096L59.1814 34.208C59.5974 33.728 60.0534 33.488 60.5494 33.488C60.9174 33.488 61.1014 33.632 61.1014 33.92C61.1014 34.032 61.0534 34.136 60.9574 34.232C60.6534 34.52 60.2774 34.928 59.8294 35.456C59.3974 35.984 58.9734 36.552 58.5574 37.16C58.1414 37.768 57.7894 38.352 57.5014 38.912C57.2294 39.456 57.0934 39.896 57.0934 40.232C57.0934 40.52 57.1894 40.664 57.3814 40.664C57.4934 40.664 57.6694 40.624 57.9094 40.544C58.1494 40.448 58.4694 40.264 58.8694 39.992C59.2694 39.704 59.7494 39.264 60.3094 38.672C60.4054 38.576 60.6614 38.288 61.0774 37.808C61.4934 37.328 62.0534 36.64 62.7574 35.744C64.0054 34.192 64.8214 33.416 65.2054 33.416C65.7334 33.416 66.0214 33.632 66.0694 34.064C66.1014 34.208 65.7654 34.68 65.0614 35.48C64.1494 36.584 63.5254 37.376 63.1894 37.856C62.5654 38.768 62.2534 39.48 62.2534 39.992C62.2534 40.344 62.3734 40.52 62.6134 40.52C62.8534 40.52 63.1574 40.408 63.5254 40.184C63.9094 39.944 64.3094 39.648 64.7254 39.296C65.1414 38.928 65.5414 38.552 65.9254 38.168C66.3254 37.768 66.6694 37.4 66.9574 37.064C67.0534 36.952 67.1494 36.896 67.2454 36.896C67.3414 36.896 67.3894 36.944 67.3894 37.04C67.3894 37.072 67.3814 37.12 67.3654 37.184C67.3494 37.248 67.3014 37.32 67.2214 37.4C66.9654 37.688 66.6374 38.048 66.2374 38.48C65.8374 38.896 65.4054 39.312 64.9414 39.728C64.4774 40.144 64.0294 40.488 63.5974 40.76C63.1654 41.032 62.7974 41.168 62.4934 41.168C62.1254 41.168 61.8054 41.072 61.5334 40.88C61.2614 40.672 61.1254 40.392 61.1254 40.04C61.1254 39.688 61.1814 39.336 61.2934 38.984C61.4054 38.616 61.4934 38.304 61.5574 38.048C60.8054 38.928 60.1414 39.6 59.5654 40.064C59.0054 40.528 58.5334 40.84 58.1494 41C57.7654 41.176 57.4614 41.264 57.2374 41.264ZM71.2007 41.12C70.5127 41.12 70.0407 40.944 69.7847 40.592C69.5287 40.224 69.4007 39.736 69.4007 39.128C69.4007 38.456 69.6087 37.656 70.0247 36.728C70.1847 36.36 70.3527 36.032 70.5287 35.744C70.7047 35.44 70.8887 35.16 71.0807 34.904C71.0167 34.92 70.9607 34.928 70.9127 34.928C70.8647 34.928 70.8167 34.928 70.7687 34.928C70.3847 34.928 70.0647 34.656 69.8087 34.112L68.0327 36.416C67.0887 37.648 66.5127 38.264 66.3047 38.264C66.2247 38.264 66.1847 38.232 66.1847 38.168C66.1847 38.088 66.2247 37.984 66.3047 37.856C66.3527 37.76 66.4487 37.632 66.5927 37.472C67.2007 36.768 67.7607 36.072 68.2727 35.384C68.7847 34.696 69.2087 34.024 69.5447 33.368C69.9127 31.976 70.3767 31.28 70.9367 31.28C71.3047 31.28 71.4887 31.448 71.4887 31.784C71.4887 32.088 71.2887 32.488 70.8887 32.984C70.5047 33.48 70.3127 33.736 70.3127 33.752C70.3127 34.088 70.5607 34.256 71.0567 34.256C71.3447 34.256 71.6647 34.152 72.0167 33.944L72.6407 33.56C72.6727 33.544 72.7207 33.536 72.7847 33.536C72.9767 33.536 73.1447 33.616 73.2887 33.776C73.4327 33.936 73.4807 34.08 73.4327 34.208L71.7767 36.296C70.7527 37.608 70.2407 38.664 70.2407 39.464C70.2407 40.184 70.5927 40.544 71.2967 40.544C71.7767 40.544 72.2887 40.4 72.8327 40.112C73.3927 39.824 73.9287 39.472 74.4407 39.056C74.9687 38.624 75.4087 38.208 75.7607 37.808L76.3367 37.136C76.3687 37.104 76.4087 37.064 76.4567 37.016C76.5047 36.968 76.5447 36.944 76.5767 36.944C76.6887 36.944 76.7447 37 76.7447 37.112C76.7447 37.144 76.7287 37.2 76.6967 37.28C76.6647 37.36 76.6087 37.448 76.5287 37.544L75.7607 38.408C75.3927 38.824 74.9367 39.248 74.3927 39.68C73.8647 40.096 73.3127 40.44 72.7367 40.712C72.1767 40.984 71.6647 41.12 71.2007 41.12ZM85.8358 44.12C84.5078 44.12 83.4438 43.776 82.6438 43.088C81.8438 42.416 81.4438 41.488 81.4438 40.304C81.4438 39.504 81.6198 38.776 81.9718 38.12C82.4198 37.24 83.0278 36.44 83.7958 35.72C84.5638 34.984 85.3958 34.392 86.2918 33.944C87.2038 33.496 88.0838 33.272 88.9318 33.272C90.0198 33.272 90.8678 33.528 91.4758 34.04C92.0998 34.552 92.4118 35.224 92.4118 36.056C92.4118 36.504 92.3158 36.936 92.1238 37.352C91.9478 37.768 91.7238 38.12 91.4518 38.408C91.0518 38.856 90.7318 39.08 90.4918 39.08C90.4278 39.08 90.3958 39.048 90.3958 38.984C90.3958 38.936 90.4198 38.864 90.4678 38.768C91.0438 37.92 91.3318 37.104 91.3318 36.32C91.3318 35.616 91.1078 35.032 90.6598 34.568C90.2118 34.104 89.6118 33.872 88.8598 33.872C88.1398 33.872 87.4198 34.088 86.6998 34.52C85.9798 34.936 85.3158 35.488 84.7078 36.176C84.1158 36.848 83.6278 37.576 83.2438 38.36C82.8438 39.144 82.6438 39.904 82.6438 40.64C82.6438 41.616 82.9558 42.352 83.5798 42.848C84.2198 43.36 85.0518 43.616 86.0758 43.616C90.1558 43.616 94.4118 40.048 98.8438 32.912C101.5 28.656 102.86 26.048 102.924 25.088L101.508 25.016C101.124 25 100.668 25.048 100.14 25.16C99.6118 25.256 99.0838 25.4 98.5558 25.592C98.0278 25.784 97.5478 26.016 97.1158 26.288C96.6998 26.56 96.4038 26.856 96.2278 27.176C96.0838 27.416 96.0118 27.648 96.0118 27.872C96.0118 28.224 96.1638 28.576 96.4678 28.928C96.7718 29.28 96.9238 29.488 96.9238 29.552C96.9238 29.632 96.8278 29.688 96.6358 29.72C96.5878 29.736 96.5238 29.744 96.4438 29.744C96.1078 29.744 95.7878 29.592 95.4838 29.288C95.1318 28.936 94.9558 28.512 94.9558 28.016C94.9558 27.568 95.0998 27.152 95.3878 26.768C95.7878 26.224 96.3398 25.792 97.0438 25.472C97.7638 25.152 98.5318 24.928 99.3478 24.8C100.18 24.656 100.964 24.592 101.7 24.608C101.844 24.608 102.236 24.632 102.876 24.68C102.844 24.472 102.924 24.28 103.116 24.104C103.324 23.912 103.556 23.816 103.812 23.816C104.292 23.816 104.524 24.16 104.508 24.848C106.236 25.152 107.148 25.616 107.244 26.24C107.26 26.304 107.268 26.368 107.268 26.432C107.268 26.496 107.268 26.552 107.268 26.6C107.268 26.92 107.18 27.08 107.004 27.08C106.86 27.08 106.788 26.976 106.788 26.768C106.788 26.736 106.788 26.696 106.788 26.648C106.788 26.6 106.796 26.552 106.812 26.504C106.412 25.912 105.62 25.496 104.436 25.256C104.148 26.552 102.644 29.368 99.9238 33.704C99.0918 35.032 98.1318 36.32 97.0438 37.568C95.9558 38.8 94.7958 39.912 93.5638 40.904C92.3318 41.896 91.0598 42.68 89.7478 43.256C88.4358 43.832 87.1318 44.12 85.8358 44.12ZM101.274 41.048C100.874 41.048 100.562 40.864 100.338 40.496C100.114 40.112 100.002 39.744 100.002 39.392C100.002 38.432 100.698 37.088 102.09 35.36C103.498 33.616 104.634 32.744 105.498 32.744C106.314 32.744 106.722 33.176 106.722 34.04C106.722 34.168 106.706 34.304 106.674 34.448C106.658 34.592 106.634 34.744 106.602 34.904C106.634 34.952 106.714 34.976 106.842 34.976C107.274 34.976 107.786 34.824 108.378 34.52C108.362 34.792 107.73 35.184 106.482 35.696C106.658 36.224 106.13 37.232 104.898 38.72C103.634 40.272 102.554 41.048 101.658 41.048H101.274ZM101.706 40.328C102.394 40.328 103.274 39.696 104.346 38.432C105.386 37.2 105.906 36.312 105.906 35.768C105.65 35.624 105.33 35.256 104.946 34.664C104.402 34.664 103.618 35.32 102.594 36.632C101.586 37.912 101.098 38.896 101.13 39.584C101.146 40.08 101.338 40.328 101.706 40.328ZM108.12 41.264C107.4 41.264 107.04 40.808 107.04 39.896C107.04 39.544 107.144 39.128 107.352 38.648C107.576 38.152 107.888 37.632 108.288 37.088C108.288 37.088 108.144 37.224 107.856 37.496C107.568 37.768 107.24 38.112 106.872 38.528C106.808 38.592 106.728 38.624 106.632 38.624C106.568 38.624 106.536 38.584 106.536 38.504C106.536 38.424 106.608 38.288 106.752 38.096L110.064 34.208C110.48 33.728 110.936 33.488 111.432 33.488C111.8 33.488 111.984 33.632 111.984 33.92C111.984 34.032 111.936 34.136 111.84 34.232C111.536 34.52 111.16 34.928 110.712 35.456C110.28 35.984 109.856 36.552 109.44 37.16C109.024 37.768 108.672 38.352 108.384 38.912C108.112 39.456 107.976 39.896 107.976 40.232C107.976 40.52 108.072 40.664 108.264 40.664C108.376 40.664 108.552 40.624 108.792 40.544C109.032 40.448 109.352 40.264 109.752 39.992C110.152 39.704 110.632 39.264 111.192 38.672C111.288 38.576 111.544 38.288 111.96 37.808C112.376 37.328 112.936 36.64 113.64 35.744C114.888 34.192 115.704 33.416 116.088 33.416C116.616 33.416 116.904 33.632 116.952 34.064C116.984 34.208 116.648 34.68 115.944 35.48C115.032 36.584 114.408 37.376 114.072 37.856C113.448 38.768 113.136 39.48 113.136 39.992C113.136 40.344 113.256 40.52 113.496 40.52C113.736 40.52 114.04 40.408 114.408 40.184C114.792 39.944 115.192 39.648 115.608 39.296C116.024 38.928 116.424 38.552 116.808 38.168C117.208 37.768 117.552 37.4 117.84 37.064C117.936 36.952 118.032 36.896 118.128 36.896C118.224 36.896 118.272 36.944 118.272 37.04C118.272 37.072 118.264 37.12 118.248 37.184C118.232 37.248 118.184 37.32 118.104 37.4C117.848 37.688 117.52 38.048 117.12 38.48C116.72 38.896 116.288 39.312 115.824 39.728C115.36 40.144 114.912 40.488 114.48 40.76C114.048 41.032 113.68 41.168 113.376 41.168C113.008 41.168 112.688 41.072 112.416 40.88C112.144 40.672 112.008 40.392 112.008 40.04C112.008 39.688 112.064 39.336 112.176 38.984C112.288 38.616 112.376 38.304 112.44 38.048C111.688 38.928 111.024 39.6 110.448 40.064C109.888 40.528 109.416 40.84 109.032 41C108.648 41.176 108.344 41.264 108.12 41.264ZM122.084 41.12C121.396 41.12 120.924 40.944 120.668 40.592C120.412 40.224 120.284 39.736 120.284 39.128C120.284 38.456 120.492 37.656 120.908 36.728C121.068 36.36 121.236 36.032 121.412 35.744C121.588 35.44 121.772 35.16 121.964 34.904C121.9 34.92 121.844 34.928 121.796 34.928C121.748 34.928 121.7 34.928 121.652 34.928C121.268 34.928 120.948 34.656 120.692 34.112L118.916 36.416C117.972 37.648 117.396 38.264 117.188 38.264C117.107 38.264 117.067 38.232 117.067 38.168C117.067 38.088 117.107 37.984 117.188 37.856C117.236 37.76 117.332 37.632 117.476 37.472C118.084 36.768 118.644 36.072 119.156 35.384C119.668 34.696 120.092 34.024 120.428 33.368C120.796 31.976 121.26 31.28 121.82 31.28C122.188 31.28 122.372 31.448 122.372 31.784C122.372 32.088 122.172 32.488 121.772 32.984C121.388 33.48 121.196 33.736 121.196 33.752C121.196 34.088 121.444 34.256 121.94 34.256C122.228 34.256 122.548 34.152 122.9 33.944L123.523 33.56C123.556 33.544 123.604 33.536 123.668 33.536C123.86 33.536 124.028 33.616 124.172 33.776C124.316 33.936 124.364 34.08 124.316 34.208L122.66 36.296C121.636 37.608 121.124 38.664 121.124 39.464C121.124 40.184 121.476 40.544 122.18 40.544C122.66 40.544 123.172 40.4 123.716 40.112C124.276 39.824 124.812 39.472 125.324 39.056C125.852 38.624 126.292 38.208 126.644 37.808L127.22 37.136C127.252 37.104 127.292 37.064 127.34 37.016C127.388 36.968 127.428 36.944 127.46 36.944C127.572 36.944 127.628 37 127.628 37.112C127.628 37.144 127.612 37.2 127.58 37.28C127.548 37.36 127.492 37.448 127.412 37.544L126.644 38.408C126.276 38.824 125.82 39.248 125.276 39.68C124.748 40.096 124.196 40.44 123.62 40.712C123.06 40.984 122.548 41.12 122.084 41.12ZM132.753 41.048C132.321 41.048 132.017 40.928 131.841 40.688C131.665 40.432 131.577 40.12 131.577 39.752C131.577 38.824 131.897 37.832 132.537 36.776L134.073 34.28C132.985 35.08 131.905 36.08 130.833 37.28C130.545 37.6 130.217 37.976 129.849 38.408C129.497 38.84 129.105 39.336 128.673 39.896C128.097 40.648 127.753 41.024 127.641 41.024C127.417 41.024 127.233 40.928 127.089 40.736C126.945 40.528 126.873 40.344 126.873 40.184C126.873 40.056 126.913 39.824 126.993 39.488C127.073 39.136 127.169 38.832 127.281 38.576C127.393 38.304 127.505 38.04 127.617 37.784C127.745 37.512 127.865 37.248 127.977 36.992L126.537 38.504C126.505 38.536 126.409 38.632 126.249 38.792C126.089 38.952 125.961 39.032 125.865 39.032C125.785 39.032 125.745 38.976 125.745 38.864C125.745 38.832 125.761 38.792 125.793 38.744C125.809 38.68 125.857 38.608 125.937 38.528C126.177 38.288 126.425 38.032 126.681 37.76C126.937 37.488 127.201 37.176 127.473 36.824C127.617 36.648 127.833 36.384 128.121 36.032C128.409 35.664 128.721 35.272 129.057 34.856C129.409 34.44 129.737 34.056 130.041 33.704C130.121 33.592 130.209 33.52 130.305 33.488C130.401 33.44 130.465 33.416 130.497 33.416C130.929 33.416 131.145 33.584 131.145 33.92C131.145 34.016 131.121 34.112 131.073 34.208C129.633 36.192 128.769 37.704 128.481 38.744C130.337 36.888 131.825 35.496 132.945 34.568C134.081 33.624 134.889 33.152 135.369 33.152C135.625 33.152 135.817 33.192 135.945 33.272C136.089 33.352 136.161 33.504 136.161 33.728C136.161 33.808 136.153 33.872 136.137 33.92C136.089 34.032 135.761 34.48 135.153 35.264C134.785 35.712 134.457 36.12 134.169 36.488C133.897 36.856 133.673 37.176 133.497 37.448C133.209 37.896 132.993 38.32 132.849 38.72C132.705 39.104 132.633 39.432 132.633 39.704C132.633 39.816 132.649 39.952 132.681 40.112C132.713 40.272 132.809 40.352 132.969 40.352C133.337 40.352 133.913 40.032 134.697 39.392C135.065 39.072 135.409 38.752 135.729 38.432C136.049 38.096 136.353 37.768 136.641 37.448C136.705 37.384 136.809 37.264 136.953 37.088C137.097 36.896 137.185 36.8 137.217 36.8C137.281 36.8 137.313 36.864 137.313 36.992C137.313 37.056 137.273 37.168 137.193 37.328C137.129 37.472 137.057 37.584 136.977 37.664C136.801 37.872 136.537 38.16 136.185 38.528C135.849 38.896 135.465 39.272 135.033 39.656C134.617 40.04 134.209 40.368 133.809 40.64C133.409 40.912 133.057 41.048 132.753 41.048ZM137.537 41.312C137.025 41.312 136.561 41.152 136.144 40.832C135.729 40.496 135.521 40.056 135.521 39.512C135.521 38.376 136.217 37.08 137.609 35.624C139.033 34.152 140.305 33.416 141.425 33.416C141.793 33.416 142.089 33.52 142.312 33.728C142.553 33.92 142.673 34.16 142.673 34.448C142.673 35.344 141.961 36.224 140.537 37.088C139.273 37.856 138.209 38.24 137.345 38.24C137.217 38.24 137.105 38.224 137.009 38.192C136.769 38.624 136.649 39.08 136.649 39.56C136.649 40.392 137.041 40.808 137.825 40.808C138.625 40.808 139.657 40.272 140.921 39.2C141.897 38.416 142.729 37.584 143.417 36.704C143.561 36.512 143.689 36.416 143.801 36.416C143.897 36.416 143.945 36.464 143.945 36.56C143.945 36.656 143.881 36.792 143.753 36.968C143.305 37.56 142.825 38.104 142.312 38.6C141.801 39.096 141.249 39.552 140.657 39.968C139.425 40.864 138.385 41.312 137.537 41.312ZM137.681 37.712C138.289 37.712 139.081 37.408 140.057 36.8C140.377 36.576 140.689 36.328 140.993 36.056C141.313 35.768 141.569 35.48 141.761 35.192C141.969 34.904 142.073 34.648 142.073 34.424C142.073 34.216 141.905 34.112 141.569 34.112C141.089 34.112 140.417 34.472 139.553 35.192C139.137 35.544 138.737 35.928 138.353 36.344C137.969 36.76 137.641 37.2 137.369 37.664C137.465 37.696 137.569 37.712 137.681 37.712ZM143.029 45.92C142.517 45.92 142.069 45.704 141.685 45.272C141.301 44.824 141.117 44.328 141.133 43.784C141.325 44.024 141.581 44.304 141.901 44.624C142.317 45.024 142.725 45.224 143.125 45.224C144.037 45.224 145.021 44.496 146.077 43.04C146.445 42.528 146.821 41.928 147.205 41.24C147.605 40.568 147.981 39.816 148.333 38.984L149.245 36.776L145.717 39.536C144.629 40.384 143.757 40.808 143.101 40.808C142.749 40.808 142.469 40.68 142.261 40.424C142.053 40.168 141.949 39.904 141.949 39.632C141.949 38.944 142.541 37.816 143.725 36.248C144.909 34.664 145.797 33.872 146.389 33.872C146.885 33.872 147.133 34.056 147.133 34.424C147.133 34.568 146.421 35.4 144.997 36.92C143.589 38.424 142.885 39.44 142.885 39.968C142.885 40.176 143.021 40.28 143.293 40.28C143.805 40.28 144.917 39.616 146.629 38.288C147.333 37.728 147.957 37.216 148.501 36.752C149.045 36.288 149.501 35.872 149.869 35.504C149.997 35.344 150.125 35.192 150.253 35.048C150.381 34.888 150.501 34.728 150.613 34.568C150.917 34.216 151.221 34.04 151.525 34.04C151.957 34.04 152.173 34.216 152.173 34.568C152.173 34.632 151.837 35.16 151.165 36.152C150.813 36.696 150.533 37.12 150.325 37.424C150.117 37.712 149.997 37.896 149.965 37.976C149.469 38.936 148.709 40.336 147.685 42.176C146.133 44.672 144.581 45.92 143.029 45.92ZM166.293 42.128C163.765 42.128 162.045 41.264 161.133 39.536C159.485 40.912 158.309 41.6 157.605 41.6C157.269 41.6 157.005 41.44 156.813 41.12C156.637 40.8 156.549 40.44 156.549 40.04C156.549 39.08 156.917 37.96 157.653 36.68C157.973 36.12 158.325 35.608 158.709 35.144C159.093 34.68 159.525 34.448 160.005 34.448C160.469 34.448 160.821 34.832 161.061 35.6L161.781 37.904C162.037 37.632 162.317 37.304 162.621 36.92C162.941 36.52 163.293 36.056 163.677 35.528L165.813 32.648C168.437 29.24 170.157 27.376 170.973 27.056C171.261 26.944 171.549 26.888 171.837 26.888C172.157 26.888 172.413 26.96 172.605 27.104C172.813 27.232 172.917 27.384 172.917 27.56C172.917 27.848 172.685 28.016 172.221 28.064C171.741 28.336 170.805 29.144 169.413 30.488C168.773 31.112 168.253 31.632 167.853 32.048C167.469 32.448 167.205 32.752 167.061 32.96C165.269 35.456 163.613 37.376 162.093 38.72C163.069 40.656 164.533 41.624 166.485 41.624C167.221 41.624 167.965 41.464 168.717 41.144C169.485 40.84 170.189 40.432 170.829 39.92C171.485 39.408 172.013 38.84 172.413 38.216C172.813 37.576 173.013 36.944 173.013 36.32C173.013 35.664 172.781 35.072 172.317 34.544C171.853 34.016 171.285 33.64 170.613 33.416C170.613 33.416 170.493 33.4 170.253 33.368C170.013 33.336 169.645 33.288 169.149 33.224C168.397 33.128 168.021 32.976 168.021 32.768C168.021 32.624 168.109 32.496 168.285 32.384C168.477 32.272 168.669 32.216 168.861 32.216C169.005 32.216 169.173 32.248 169.365 32.312C169.557 32.376 169.725 32.44 169.869 32.504C170.029 32.552 170.109 32.576 170.109 32.576C170.237 32.592 170.381 32.608 170.541 32.624C170.701 32.624 170.861 32.624 171.021 32.624C172.077 32.624 173.037 32.456 173.901 32.12C174.733 31.784 175.341 31.32 175.725 30.728C176.109 30.136 176.301 29.448 176.301 28.664C176.301 27.864 176.045 27.232 175.533 26.768C175.037 26.304 174.373 25.976 173.541 25.784C172.725 25.576 171.837 25.472 170.877 25.472C169.005 25.472 167.221 25.744 165.525 26.288C163.845 26.832 162.389 27.736 161.157 29C160.213 29.976 159.741 30.792 159.741 31.448C159.741 31.912 159.861 32.304 160.101 32.624C160.165 32.704 160.237 32.784 160.317 32.864C160.397 32.944 160.493 33.024 160.605 33.104C160.685 33.152 160.637 33.176 160.461 33.176C159.469 32.952 158.973 32.288 158.973 31.184C158.973 30.08 159.533 29.04 160.653 28.064C161.517 27.312 162.501 26.704 163.605 26.24C164.725 25.776 165.901 25.44 167.133 25.232C168.381 25.024 169.613 24.92 170.829 24.92C171.693 24.92 172.525 24.984 173.325 25.112C174.125 25.24 174.845 25.456 175.485 25.76C176.125 26.048 176.629 26.432 176.997 26.912C177.381 27.392 177.573 27.984 177.573 28.688C177.573 29.68 177.309 30.472 176.781 31.064C176.253 31.656 175.541 32.112 174.645 32.432C173.589 32.8 172.453 32.992 171.237 33.008C171.909 33.04 172.493 33.216 172.989 33.536C173.501 33.856 173.893 34.272 174.165 34.784C174.453 35.296 174.597 35.856 174.597 36.464C174.597 37.28 174.349 38.04 173.853 38.744C173.373 39.432 172.725 40.032 171.909 40.544C171.093 41.04 170.197 41.424 169.221 41.696C168.245 41.984 167.269 42.128 166.293 42.128ZM157.917 41.048C158.429 41.048 159.413 40.32 160.869 38.864L160.797 38.768C160.157 36.64 159.645 35.576 159.261 35.576C159.245 35.576 159.205 35.592 159.141 35.624C157.957 37.336 157.365 38.712 157.365 39.752C157.365 39.976 157.405 40.248 157.485 40.568C157.581 40.888 157.725 41.048 157.917 41.048ZM177.005 41.312C176.493 41.312 176.029 41.152 175.613 40.832C175.197 40.496 174.989 40.056 174.989 39.512C174.989 38.376 175.685 37.08 177.077 35.624C178.501 34.152 179.773 33.416 180.893 33.416C181.261 33.416 181.557 33.52 181.781 33.728C182.021 33.92 182.141 34.16 182.141 34.448C182.141 35.344 181.429 36.224 180.005 37.088C178.741 37.856 177.677 38.24 176.813 38.24C176.685 38.24 176.573 38.224 176.477 38.192C176.237 38.624 176.117 39.08 176.117 39.56C176.117 40.392 176.509 40.808 177.293 40.808C178.093 40.808 179.125 40.272 180.389 39.2C181.365 38.416 182.197 37.584 182.885 36.704C183.029 36.512 183.157 36.416 183.269 36.416C183.365 36.416 183.413 36.464 183.413 36.56C183.413 36.656 183.349 36.792 183.221 36.968C182.773 37.56 182.293 38.104 181.781 38.6C181.269 39.096 180.717 39.552 180.125 39.968C178.893 40.864 177.853 41.312 177.005 41.312ZM177.149 37.712C177.757 37.712 178.549 37.408 179.525 36.8C179.845 36.576 180.157 36.328 180.461 36.056C180.781 35.768 181.037 35.48 181.229 35.192C181.437 34.904 181.541 34.648 181.541 34.424C181.541 34.216 181.373 34.112 181.037 34.112C180.557 34.112 179.885 34.472 179.021 35.192C178.605 35.544 178.205 35.928 177.821 36.344C177.437 36.76 177.109 37.2 176.837 37.664C176.933 37.696 177.037 37.712 177.149 37.712ZM181.681 45.92C181.201 45.92 180.793 45.72 180.457 45.32C180.121 44.92 179.945 44.488 179.929 44.024C179.977 43.832 180.049 43.736 180.145 43.736C180.241 43.736 180.297 43.856 180.313 44.096C180.329 44.352 180.457 44.6 180.697 44.84C180.937 45.08 181.169 45.2 181.393 45.2C182.321 45.2 183.297 44.6 184.321 43.4C184.689 42.968 185.065 42.456 185.449 41.864C185.849 41.288 186.233 40.632 186.601 39.896L187.801 37.52L186.001 39.344C185.441 39.904 184.953 40.32 184.537 40.592C184.137 40.864 183.825 41 183.601 41C183.217 41 182.833 40.864 182.449 40.592C182.065 40.304 181.849 39.976 181.801 39.608C181.641 38.376 182.417 36.912 184.129 35.216C185.841 33.536 187.369 32.696 188.713 32.696C189.081 32.696 189.369 32.784 189.577 32.96C189.689 33.056 189.769 33.2 189.817 33.392C189.881 33.584 189.929 33.68 189.961 33.68C190.025 33.68 190.081 33.672 190.129 33.656C190.177 33.624 190.233 33.608 190.297 33.608C190.505 33.608 190.673 33.68 190.801 33.824C190.945 33.968 190.993 34.112 190.945 34.256C190.929 34.4 190.697 34.832 190.249 35.552C189.961 36.032 189.633 36.616 189.265 37.304C188.897 37.976 188.505 38.68 188.089 39.416C187.689 40.136 187.297 40.808 186.913 41.432C186.529 42.072 186.185 42.592 185.881 42.992C184.409 44.944 183.009 45.92 181.681 45.92ZM183.385 40.448C184.313 40.448 185.577 39.432 187.177 37.4L189.721 33.896C189.625 33.672 189.425 33.56 189.121 33.56C188.129 33.56 186.801 34.344 185.137 35.912C183.409 37.544 182.633 38.864 182.809 39.872C182.889 40.256 183.081 40.448 183.385 40.448ZM192.436 41.12C192.052 41.12 191.668 40.984 191.284 40.712C190.9 40.44 190.684 40.12 190.636 39.752C190.476 38.52 191.252 37.056 192.964 35.36C194.66 33.664 196.188 32.816 197.548 32.816C197.916 32.816 198.204 32.904 198.412 33.08C198.524 33.192 198.604 33.344 198.652 33.536C198.716 33.728 198.764 33.824 198.796 33.824C198.86 33.824 198.916 33.816 198.964 33.8C199.012 33.768 199.068 33.752 199.132 33.752C199.324 33.752 199.492 33.824 199.636 33.968C199.78 34.112 199.86 34.24 199.876 34.352C199.892 34.384 199.38 35.176 198.34 36.728C197.3 38.248 196.828 39.28 196.924 39.824C197.004 40.192 197.18 40.376 197.452 40.376C198.284 40.376 199.804 39 202.012 36.248C202.06 36.184 202.108 36.152 202.156 36.152C202.236 36.152 202.276 36.208 202.276 36.32C202.276 36.448 202.204 36.608 202.06 36.8C200.028 39.536 198.468 40.904 197.38 40.904C197.236 40.904 197.1 40.88 196.972 40.832C196.268 40.56 195.916 40.032 195.916 39.248C195.916 38.976 195.948 38.704 196.012 38.432L194.524 39.872C194.076 40.32 193.668 40.64 193.3 40.832C192.948 41.024 192.66 41.12 192.436 41.12ZM192.22 40.592C193.148 40.592 194.412 39.576 196.012 37.544L198.556 34.04C198.428 33.816 198.22 33.704 197.932 33.704C196.956 33.704 195.636 34.488 193.972 36.056C192.244 37.656 191.468 38.976 191.644 40.016C191.724 40.4 191.916 40.592 192.22 40.592ZM206.839 41.048C206.407 41.048 206.103 40.928 205.927 40.688C205.751 40.432 205.663 40.12 205.663 39.752C205.663 38.824 205.983 37.832 206.623 36.776L208.159 34.28C207.071 35.08 205.991 36.08 204.919 37.28C204.631 37.6 204.303 37.976 203.935 38.408C203.583 38.84 203.191 39.336 202.759 39.896C202.183 40.648 201.839 41.024 201.727 41.024C201.503 41.024 201.319 40.928 201.175 40.736C201.031 40.528 200.959 40.344 200.959 40.184C200.959 40.056 200.999 39.824 201.079 39.488C201.159 39.136 201.255 38.832 201.367 38.576C201.479 38.304 201.591 38.04 201.703 37.784C201.831 37.512 201.951 37.248 202.063 36.992L200.623 38.504C200.591 38.536 200.495 38.632 200.335 38.792C200.175 38.952 200.047 39.032 199.951 39.032C199.871 39.032 199.831 38.976 199.831 38.864C199.831 38.832 199.847 38.792 199.879 38.744C199.895 38.68 199.943 38.608 200.023 38.528C200.263 38.288 200.511 38.032 200.767 37.76C201.023 37.488 201.287 37.176 201.559 36.824C201.703 36.648 201.919 36.384 202.207 36.032C202.495 35.664 202.807 35.272 203.143 34.856C203.495 34.44 203.823 34.056 204.127 33.704C204.207 33.592 204.295 33.52 204.391 33.488C204.487 33.44 204.551 33.416 204.583 33.416C205.015 33.416 205.231 33.584 205.231 33.92C205.231 34.016 205.207 34.112 205.159 34.208C203.719 36.192 202.855 37.704 202.567 38.744C204.423 36.888 205.911 35.496 207.031 34.568C208.167 33.624 208.975 33.152 209.455 33.152C209.711 33.152 209.903 33.192 210.031 33.272C210.175 33.352 210.247 33.504 210.247 33.728C210.247 33.808 210.239 33.872 210.223 33.92C210.175 34.032 209.847 34.48 209.239 35.264C208.871 35.712 208.543 36.12 208.255 36.488C207.983 36.856 207.759 37.176 207.583 37.448C207.295 37.896 207.079 38.32 206.935 38.72C206.791 39.104 206.719 39.432 206.719 39.704C206.719 39.816 206.735 39.952 206.767 40.112C206.799 40.272 206.895 40.352 207.055 40.352C207.423 40.352 207.999 40.032 208.783 39.392C209.151 39.072 209.495 38.752 209.815 38.432C210.135 38.096 210.439 37.768 210.727 37.448C210.791 37.384 210.895 37.264 211.039 37.088C211.183 36.896 211.271 36.8 211.303 36.8C211.367 36.8 211.399 36.864 211.399 36.992C211.399 37.056 211.359 37.168 211.279 37.328C211.215 37.472 211.143 37.584 211.063 37.664C210.887 37.872 210.623 38.16 210.271 38.528C209.935 38.896 209.551 39.272 209.119 39.656C208.703 40.04 208.295 40.368 207.895 40.64C207.495 40.912 207.143 41.048 206.839 41.048ZM220.364 43.688C220.076 43.688 219.932 43.504 219.932 43.136C219.932 42.784 220.076 42.336 220.364 41.792L224.996 35.12C226.42 33.072 227.476 31.392 228.164 30.08C228.852 28.768 229.196 27.84 229.196 27.296C229.196 27.04 229.1 26.848 228.908 26.72C228.716 26.592 228.492 26.504 228.236 26.456C227.98 26.408 227.74 26.384 227.516 26.384C226.156 26.384 224.26 27.216 221.828 28.88C221.14 29.344 220.508 29.864 219.932 30.44C219.356 31.016 218.82 31.632 218.324 32.288C217.364 33.6 216.884 34.704 216.884 35.6C216.884 36.288 217.204 36.704 217.844 36.848C218.084 36.912 218.356 36.944 218.66 36.944C219.236 36.944 219.812 36.8 220.388 36.512C220.964 36.224 221.524 35.856 222.068 35.408C222.484 35.056 222.724 34.88 222.788 34.88C222.852 34.88 222.876 34.936 222.86 35.048C222.764 35.384 222.532 35.704 222.164 36.008C221.796 36.312 221.356 36.592 220.844 36.848C220.332 37.088 219.812 37.28 219.284 37.424C218.772 37.552 218.316 37.616 217.916 37.616C217.276 37.616 216.716 37.456 216.236 37.136C215.756 36.8 215.516 36.312 215.516 35.672C215.516 34.696 216.084 33.496 217.22 32.072C218.308 30.696 219.652 29.472 221.252 28.4C221.908 27.952 222.676 27.528 223.556 27.128C224.436 26.712 225.324 26.376 226.22 26.12C227.116 25.848 227.916 25.712 228.62 25.712C229.884 25.712 230.516 26.128 230.516 26.96C230.516 27.968 229.756 29.704 228.236 32.168C227.164 33.864 225.748 35.88 223.988 38.216C222.532 40.152 221.796 41.12 221.78 41.12C221.828 41.12 222.596 40.296 224.084 38.648C224.996 37.624 225.852 36.712 226.652 35.912C227.468 35.096 228.22 34.384 228.908 33.776C229.244 33.472 229.652 33.096 230.132 32.648C230.612 32.184 231.172 31.648 231.812 31.04C232.372 30.528 232.916 30.064 233.444 29.648C233.988 29.232 234.484 29.024 234.932 29.024C235.396 29.024 235.7 29.136 235.844 29.36C234.372 31.184 232.996 33.416 231.716 36.056C230.804 37.944 230.348 39.376 230.348 40.352C230.348 40.928 230.5 41.344 230.804 41.6C231.108 41.856 231.508 41.984 232.004 41.984C232.548 41.984 233.116 41.832 233.708 41.528C234.316 41.224 234.916 40.832 235.508 40.352C236.1 39.872 236.652 39.368 237.164 38.84C239.004 36.984 240.468 34.976 241.556 32.816C242.404 31.12 242.828 29.768 242.828 28.76C242.828 28.664 242.82 28.576 242.804 28.496C242.804 28.416 242.796 28.344 242.78 28.28C242.444 28.28 242.084 28.104 241.7 27.752C241.46 27.56 241.34 27.36 241.34 27.152C241.34 26.96 241.42 26.8 241.58 26.672C241.74 26.544 241.924 26.48 242.132 26.48C242.436 26.48 242.66 26.616 242.804 26.888C242.868 27.016 242.996 27.176 243.188 27.368C243.316 27.496 243.372 27.592 243.356 27.656C243.452 27.8 243.612 27.872 243.836 27.872C244.06 27.872 244.268 27.776 244.46 27.584C244.668 27.392 244.892 27.296 245.132 27.296C245.26 27.296 245.324 27.344 245.324 27.44C245.324 27.616 245.172 27.784 244.868 27.944C244.708 28.056 244.516 28.128 244.292 28.16C244.164 28.176 244.036 28.192 243.908 28.208C243.78 28.208 243.652 28.192 243.524 28.16C243.716 28.8 243.812 29.272 243.812 29.576C243.812 30.856 243.204 32.512 241.988 34.544C241.38 35.568 240.684 36.536 239.9 37.448C239.116 38.36 238.236 39.216 237.26 40.016C235.324 41.648 233.604 42.464 232.1 42.464C230.452 42.464 229.628 41.696 229.628 40.16C229.628 39.44 229.78 38.624 230.084 37.712C230.388 36.784 230.748 35.864 231.164 34.952L232.892 31.184C232.188 31.728 231.612 32.176 231.164 32.528C230.732 32.864 230.364 33.152 230.06 33.392C229.772 33.632 229.492 33.88 229.22 34.136C228.964 34.376 228.652 34.672 228.284 35.024C227.884 35.424 227.348 36 226.676 36.752C226.004 37.488 225.22 38.408 224.324 39.512L221.54 42.92C221.38 43.112 221.196 43.288 220.988 43.448C220.78 43.608 220.572 43.688 220.364 43.688ZM247.695 32.744C247.423 32.744 247.183 32.656 246.975 32.48C246.783 32.304 246.687 32.104 246.687 31.88C246.687 31.432 246.991 31.208 247.599 31.208C247.823 31.208 248.047 31.288 248.271 31.448C248.495 31.592 248.607 31.776 248.607 32C248.607 32.192 248.503 32.368 248.295 32.528C248.087 32.672 247.887 32.744 247.695 32.744ZM243.255 41.264C242.903 41.264 242.615 41.152 242.391 40.928C242.151 40.688 242.031 40.272 242.031 39.68C242.031 39.344 242.111 38.96 242.271 38.528C242.415 38.08 242.599 37.632 242.823 37.184C243.063 36.736 243.295 36.336 243.519 35.984C244.415 34.528 245.151 33.792 245.727 33.776C245.871 33.776 246.047 33.84 246.255 33.968C246.463 34.08 246.567 34.208 246.567 34.352C246.567 34.352 245.959 35.136 244.743 36.704C243.543 38.256 242.943 39.36 242.943 40.016C242.943 40.528 243.143 40.784 243.543 40.784C243.799 40.784 244.127 40.68 244.527 40.472C244.943 40.248 245.375 39.968 245.823 39.632C246.271 39.296 246.695 38.936 247.095 38.552C247.511 38.168 247.847 37.816 248.103 37.496C248.263 37.288 248.399 37.144 248.511 37.064C248.639 36.984 248.719 36.944 248.751 36.944C248.815 36.944 248.847 36.992 248.847 37.088C248.847 37.168 248.751 37.328 248.559 37.568C248.383 37.808 248.135 38.088 247.815 38.408C247.431 38.792 247.007 39.208 246.543 39.656C246.079 40.104 245.575 40.488 245.031 40.808C244.487 41.112 243.895 41.264 243.255 41.264ZM249.293 41.144C248.781 41.144 248.373 41.024 248.069 40.784C247.781 40.528 247.637 40.08 247.637 39.44C247.637 39.072 247.749 38.608 247.973 38.048C248.197 37.472 248.477 36.856 248.813 36.2C249.149 35.544 249.485 34.896 249.821 34.256C249.613 34.304 249.429 34.328 249.269 34.328C248.789 34.328 248.549 34.144 248.549 33.776C248.549 33.6 248.613 33.464 248.741 33.368C248.885 33.272 249.013 33.216 249.125 33.2C249.125 33.2 249.141 33.2 249.173 33.2C249.221 33.2 249.277 33.192 249.341 33.176H250.733C251.021 32.808 251.317 32.416 251.621 32C252.053 31.456 252.397 31.136 252.653 31.04H252.725C252.837 31.04 252.997 31.096 253.205 31.208C253.461 31.352 253.589 31.496 253.589 31.64C253.589 31.848 253.205 32.384 252.437 33.248C252.581 33.264 252.789 33.272 253.061 33.272C253.333 33.272 253.669 33.272 254.069 33.272C254.261 33.272 254.533 33.272 254.885 33.272C255.253 33.272 255.629 33.272 256.013 33.272C256.413 33.256 256.757 33.248 257.045 33.248C257.333 33.232 257.493 33.224 257.525 33.224C257.573 33.24 257.597 33.264 257.597 33.296C257.597 33.44 256.653 33.632 254.765 33.872C253.693 34.016 252.869 34.128 252.293 34.208C251.733 34.288 251.429 34.336 251.381 34.352C251.157 34.544 250.885 34.872 250.565 35.336C250.245 35.8 249.925 36.32 249.605 36.896C249.285 37.472 249.013 38.024 248.789 38.552C248.581 39.064 248.477 39.464 248.477 39.752C248.477 40.008 248.573 40.224 248.765 40.4C248.957 40.56 249.269 40.64 249.701 40.64C249.989 40.64 250.333 40.576 250.733 40.448C251.133 40.32 251.509 40.176 251.861 40.016C252.229 39.84 252.493 39.704 252.653 39.608C253.069 39.352 253.525 39.016 254.021 38.6C254.533 38.168 255.037 37.68 255.533 37.136C255.757 36.912 255.909 36.8 255.989 36.8C256.037 36.8 256.061 36.832 256.061 36.896C256.061 37.024 255.941 37.232 255.701 37.52C255.317 37.984 254.885 38.432 254.405 38.864C253.941 39.28 253.421 39.664 252.845 40.016C252.189 40.416 251.557 40.704 250.949 40.88C250.357 41.056 249.805 41.144 249.293 41.144ZM254.282 41.12C253.818 41.12 253.586 40.984 253.586 40.712C253.586 40.552 253.682 40.296 253.874 39.944C254.61 38.632 255.266 37.472 255.842 36.464C256.434 35.44 256.954 34.576 257.402 33.872C259.306 30.816 260.65 29.16 261.434 28.904C261.466 28.904 261.49 28.904 261.506 28.904C261.522 28.888 261.538 28.88 261.554 28.88C261.762 28.88 261.898 29.048 261.962 29.384C261.914 29.72 261.082 30.936 259.466 33.032C258.618 34.104 257.954 34.992 257.474 35.696C257.01 36.384 256.722 36.888 256.61 37.208C257.138 36.824 257.706 36.416 258.314 35.984C258.922 35.552 259.514 35.144 260.09 34.76C260.666 34.36 261.186 34.04 261.65 33.8C262.114 33.544 262.474 33.4 262.73 33.368C262.762 33.368 262.802 33.368 262.85 33.368C262.898 33.352 262.93 33.344 262.946 33.344C263.394 33.344 263.618 33.552 263.618 33.968C263.618 34.08 263.474 34.328 263.186 34.712C262.898 35.096 262.458 35.688 261.866 36.488C260.81 37.896 260.282 38.952 260.282 39.656C260.282 40.024 260.418 40.208 260.69 40.208C260.978 40.192 261.306 40.064 261.674 39.824C262.058 39.584 262.442 39.288 262.826 38.936C263.21 38.584 263.554 38.24 263.858 37.904C264.178 37.552 264.418 37.28 264.578 37.088C264.722 36.944 264.834 36.872 264.914 36.872C264.978 36.872 265.01 36.904 265.01 36.968C265.01 37.096 264.946 37.248 264.818 37.424C264.626 37.664 264.338 37.976 263.954 38.36C263.586 38.744 263.178 39.136 262.73 39.536C262.298 39.92 261.882 40.248 261.482 40.52C261.098 40.776 260.81 40.904 260.618 40.904C259.674 40.904 259.202 40.352 259.202 39.248C259.202 38.624 259.49 37.808 260.066 36.8C260.29 36.416 260.522 36.032 260.762 35.648C261.002 35.264 261.242 34.88 261.482 34.496C259.434 35.52 257.578 37.032 255.914 39.032C255.706 39.32 255.49 39.632 255.266 39.968C255.042 40.288 254.842 40.56 254.666 40.784C254.49 41.008 254.362 41.12 254.282 41.12ZM71.7462 73.784C69.2822 73.576 68.0502 72.312 68.0502 69.992C68.0502 68.616 68.4822 67.16 69.3462 65.624C69.8582 64.696 70.4982 63.792 71.2662 62.912C72.0502 62.032 72.8982 61.24 73.8102 60.536C74.7382 59.816 75.6822 59.248 76.6422 58.832C77.6182 58.416 78.5542 58.208 79.4502 58.208C81.0342 58.208 81.8262 58.792 81.8262 59.96C81.8262 60.744 81.5862 61.616 81.1062 62.576C80.6262 63.536 80.1382 64.144 79.6422 64.4C79.5942 64.416 79.5382 64.424 79.4742 64.424C79.4262 64.424 79.4022 64.408 79.4022 64.376L80.1942 63.08C80.7382 62.184 81.0102 61.4 81.0102 60.728C81.0102 60.248 80.8822 59.792 80.6262 59.36C80.3702 58.928 79.9142 58.712 79.2582 58.712C78.4582 58.712 77.6342 58.936 76.7862 59.384C75.9542 59.832 75.1462 60.424 74.3622 61.16C73.5782 61.896 72.8662 62.712 72.2262 63.608C71.5862 64.488 71.0742 65.36 70.6902 66.224C69.8742 68.064 69.4662 69.552 69.4662 70.688C69.4662 72.4 70.3382 73.256 72.0822 73.256C73.7462 73.256 76.0022 72.184 78.8502 70.04C79.5062 69.544 80.3462 68.848 81.3702 67.952C82.4102 67.056 83.6262 65.968 85.0182 64.688C84.8262 64.704 84.5862 64.728 84.2982 64.76C84.0102 64.776 83.6742 64.816 83.2902 64.88C83.1302 64.912 82.9782 64.944 82.8342 64.976C82.6902 64.992 82.5542 65 82.4262 65C82.1062 64.968 81.9702 64.888 82.0182 64.76C82.0822 64.168 82.3862 63.872 82.9302 63.872C83.4262 63.936 83.8902 63.984 84.3222 64.016C84.7702 64.048 85.1942 64.064 85.5942 64.064C86.2182 63.488 87.0422 62.688 88.0662 61.664C89.1062 60.624 90.3382 59.352 91.7622 57.848C93.6022 55.912 94.7222 54.944 95.1222 54.944C95.2982 54.944 95.3862 55.104 95.3862 55.424C95.3862 55.552 95.3702 55.712 95.3382 55.904C95.3062 56.096 95.2582 56.32 95.1942 56.576C95.0342 57.184 94.8662 57.552 94.6902 57.68C94.1942 58.032 93.7782 58.488 93.4422 59.048C93.1222 59.592 92.7942 60.2 92.4582 60.872C92.1222 61.56 91.8102 62.176 91.5222 62.72C91.2502 63.248 91.0022 63.72 90.7782 64.136L93.1062 64.088C93.6822 64.088 93.9702 64.128 93.9702 64.208C93.9702 64.224 93.9542 64.248 93.9222 64.28C93.6502 64.456 92.4982 64.616 90.4662 64.76C88.9782 67.656 88.2342 69.64 88.2342 70.712C88.2342 71.448 88.4662 71.816 88.9302 71.816C89.1062 71.816 89.3302 71.704 89.6022 71.48C89.8582 71.272 90.0182 71.168 90.0822 71.168C90.0822 71.136 90.0902 71.128 90.1062 71.144C90.1222 71.16 90.1142 71.168 90.0822 71.168C90.0022 71.456 89.7622 71.712 89.3622 71.936C88.9782 72.176 88.5702 72.296 88.1382 72.296C87.7382 72.296 87.4742 72.168 87.3462 71.912C87.2182 71.656 87.1542 71.304 87.1542 70.856C87.1542 69.24 87.7702 67.184 89.0022 64.688L86.1222 64.76C83.9782 66.856 81.8262 68.696 79.6662 70.28C76.2262 72.776 73.5862 73.944 71.7462 73.784ZM89.2182 64.064C89.4102 63.696 89.7942 63.032 90.3702 62.072C90.9462 61.096 91.7222 59.832 92.6982 58.28L86.5542 64.04L89.2182 64.064ZM103.997 73.28C103.341 73.28 102.525 72.888 101.549 72.104C100.861 71.992 100.269 71.84 99.7728 71.648C99.2928 71.472 98.8928 71.256 98.5728 71C98.1248 70.616 97.7328 70.104 97.3968 69.464C97.0608 68.824 96.8928 68.208 96.8928 67.616C96.8928 67.168 96.9968 66.768 97.2048 66.416C97.6848 65.568 98.2928 65.144 99.0288 65.144C99.5888 65.144 99.9168 65.616 100.013 66.56C100.125 67.44 100.213 68.144 100.277 68.672C100.357 69.184 100.421 69.52 100.469 69.68C100.709 70.464 101.117 71.128 101.693 71.672C102.365 71.816 103.093 71.888 103.877 71.888C105.605 71.888 107.261 71.56 108.845 70.904C109.517 70.616 110.173 70.24 110.813 69.776C111.453 69.312 111.981 68.8 112.397 68.24C112.813 67.68 113.021 67.136 113.021 66.608C113.021 65.856 112.357 65.272 111.029 64.856L106.805 63.896C105.941 63.704 105.245 63.368 104.717 62.888C104.205 62.392 103.949 61.832 103.949 61.208C103.949 60.248 104.549 59.288 105.749 58.328C106.357 57.832 107.069 57.416 107.885 57.08C108.701 56.728 109.557 56.464 110.453 56.288C111.365 56.096 112.237 56 113.069 56C114.253 56 115.261 56.184 116.093 56.552C116.941 56.92 117.469 57.456 117.677 58.16C117.725 58.32 117.749 58.496 117.749 58.688C117.749 59.664 117.261 60.344 116.285 60.728C115.693 60.968 115.189 61.088 114.773 61.088C114.517 61.088 114.317 61.04 114.173 60.944C114.141 60.912 114.125 60.872 114.125 60.824C114.125 60.712 114.349 60.648 114.797 60.632C115.069 60.616 115.293 60.592 115.469 60.56C115.645 60.528 115.773 60.496 115.853 60.464C116.461 60.144 116.765 59.672 116.765 59.048C116.765 58.728 116.677 58.392 116.501 58.04C116.005 57.128 114.765 56.672 112.781 56.672C112.061 56.672 111.317 56.752 110.549 56.912C109.781 57.056 109.053 57.28 108.365 57.584C107.677 57.872 107.093 58.24 106.613 58.688C105.781 59.456 105.365 60.144 105.365 60.752C105.365 61.216 105.589 61.632 106.037 62C106.501 62.352 107.197 62.616 108.125 62.792L110.957 63.32C112.045 63.528 112.925 63.84 113.597 64.256C114.269 64.656 114.605 65.272 114.605 66.104C114.605 66.84 114.421 67.528 114.053 68.168C113.685 68.808 113.189 69.384 112.565 69.896C111.957 70.392 111.261 70.808 110.477 71.144C108.701 71.928 106.605 72.32 104.189 72.32C103.885 72.32 103.581 72.312 103.277 72.296C102.973 72.28 102.677 72.256 102.389 72.224C102.613 72.352 102.893 72.48 103.229 72.608C103.581 72.736 103.981 72.856 104.429 72.968C104.477 72.984 104.501 73.016 104.501 73.064C104.501 73.208 104.333 73.28 103.997 73.28ZM100.829 71.432C100.397 70.952 100.061 70.456 99.8208 69.944C99.4688 69.144 99.2048 68.16 99.0288 66.992C98.9008 66.144 98.7648 65.72 98.6208 65.72C98.4928 65.72 98.3168 65.816 98.0928 66.008C97.8848 66.2 97.7808 66.608 97.7808 67.232C97.7808 68.448 98.2128 69.504 99.0768 70.4C99.5088 70.848 100.093 71.192 100.829 71.432ZM120.558 62.744C120.286 62.744 120.046 62.656 119.838 62.48C119.646 62.304 119.55 62.104 119.55 61.88C119.55 61.432 119.854 61.208 120.462 61.208C120.686 61.208 120.91 61.288 121.134 61.448C121.358 61.592 121.47 61.776 121.47 62C121.47 62.192 121.366 62.368 121.158 62.528C120.95 62.672 120.75 62.744 120.558 62.744ZM116.118 71.264C115.766 71.264 115.478 71.152 115.254 70.928C115.014 70.688 114.894 70.272 114.894 69.68C114.894 69.344 114.974 68.96 115.134 68.528C115.278 68.08 115.462 67.632 115.686 67.184C115.926 66.736 116.158 66.336 116.382 65.984C117.278 64.528 118.014 63.792 118.59 63.776C118.734 63.776 118.91 63.84 119.118 63.968C119.326 64.08 119.43 64.208 119.43 64.352C119.43 64.352 118.822 65.136 117.606 66.704C116.406 68.256 115.806 69.36 115.806 70.016C115.806 70.528 116.006 70.784 116.406 70.784C116.662 70.784 116.99 70.68 117.39 70.472C117.806 70.248 118.238 69.968 118.686 69.632C119.134 69.296 119.558 68.936 119.958 68.552C120.374 68.168 120.71 67.816 120.966 67.496C121.126 67.288 121.262 67.144 121.374 67.064C121.502 66.984 121.582 66.944 121.614 66.944C121.678 66.944 121.71 66.992 121.71 67.088C121.71 67.168 121.614 67.328 121.422 67.568C121.246 67.808 120.998 68.088 120.678 68.408C120.294 68.792 119.87 69.208 119.406 69.656C118.942 70.104 118.438 70.488 117.894 70.808C117.35 71.112 116.758 71.264 116.118 71.264ZM126.332 71.048C125.948 71.048 125.756 70.832 125.756 70.4C125.932 69.504 126.292 68.496 126.836 67.376C127.092 66.832 127.348 66.296 127.604 65.768C127.876 65.24 128.14 64.704 128.396 64.16C127.804 64.56 127.212 65.008 126.62 65.504C126.028 65.984 125.452 66.528 124.892 67.136C124.236 67.84 123.476 68.744 122.612 69.848C121.988 70.632 121.628 71.024 121.532 71.024C121.308 71.024 121.124 70.92 120.98 70.712C120.836 70.504 120.764 70.328 120.764 70.184C120.764 69.976 120.948 69.44 121.316 68.576C121.428 68.304 121.54 68.04 121.652 67.784C121.78 67.512 121.9 67.248 122.012 66.992L120.572 68.504C120.54 68.536 120.444 68.632 120.284 68.792C120.124 68.952 119.996 69.032 119.9 69.032C119.82 69.032 119.78 68.976 119.78 68.864C119.78 68.832 119.796 68.792 119.828 68.744C119.844 68.68 119.892 68.608 119.972 68.528C120.212 68.288 120.46 68.032 120.716 67.76C120.972 67.488 121.236 67.176 121.508 66.824C121.716 66.552 122.012 66.152 122.396 65.624C122.796 65.08 123.284 64.4 123.86 63.584C124.036 63.344 124.284 63.224 124.604 63.224C124.924 63.224 125.084 63.376 125.084 63.68C125.084 63.792 124.676 64.536 123.86 65.912C123.444 66.648 123.108 67.248 122.852 67.712C122.612 68.176 122.46 68.52 122.396 68.744C122.748 68.36 123.164 67.928 123.644 67.448C124.14 66.968 124.708 66.432 125.348 65.84C127.316 64.016 128.612 63.104 129.236 63.104C129.412 63.104 129.58 63.16 129.74 63.272C129.916 63.384 130.004 63.528 130.004 63.704C130.004 63.784 129.692 64.368 129.068 65.456C128.46 66.56 128.124 67.216 128.06 67.424C129.836 65.936 130.724 65.184 130.724 65.168C132.228 64 133.308 63.416 133.964 63.416C134.156 63.416 134.332 63.48 134.492 63.608C134.668 63.72 134.756 63.856 134.756 64.016C134.756 64.048 134.244 64.72 133.22 66.032C132.164 67.36 131.572 68.448 131.444 69.296C131.38 69.872 131.676 70.16 132.332 70.16C132.732 70.16 133.292 69.904 134.012 69.392C134.732 68.88 135.484 68.176 136.268 67.28C136.364 67.168 136.468 67.064 136.58 66.968C136.692 66.856 136.788 66.8 136.868 66.8C136.964 66.8 137.012 66.84 137.012 66.92C137.012 67.032 136.94 67.16 136.796 67.304C136.38 67.8 135.884 68.312 135.308 68.84C134.748 69.368 134.188 69.816 133.628 70.184C133.068 70.536 132.572 70.712 132.14 70.712C131.052 70.712 130.508 70.208 130.508 69.2C130.508 68.848 130.604 68.44 130.796 67.976C130.988 67.496 131.18 67.064 131.372 66.68C131.836 65.784 132.34 64.992 132.884 64.304C132.372 64.56 131.836 64.896 131.276 65.312C130.732 65.728 130.164 66.216 129.572 66.776C128.196 68.12 127.252 69.48 126.74 70.856C126.66 70.984 126.524 71.048 126.332 71.048ZM134.417 75.536C133.745 75.168 133.409 74.472 133.409 73.448C133.409 72.344 134.313 70.456 136.121 67.784C137.849 65.208 139.049 63.816 139.721 63.608C139.785 63.592 139.841 63.584 139.889 63.584C139.937 63.568 139.985 63.56 140.033 63.56C140.305 63.56 140.441 63.856 140.441 64.448C140.553 64.336 140.745 64.232 141.017 64.136C141.305 64.024 141.593 63.936 141.881 63.872C142.185 63.808 142.409 63.768 142.553 63.752C143.209 63.72 143.753 63.88 144.185 64.232C144.633 64.568 144.857 65.016 144.857 65.576C144.857 66.872 144.081 68.128 142.529 69.344C141.121 70.448 139.873 71 138.785 71C138.065 71 137.569 70.96 137.297 70.88C136.913 70.768 136.521 70.472 136.121 69.992C135.945 70.136 135.753 70.384 135.545 70.736C135.337 71.072 135.145 71.44 134.969 71.84C134.777 72.256 134.625 72.664 134.513 73.064C134.385 73.464 134.321 73.8 134.321 74.072C134.321 74.344 134.377 74.568 134.489 74.744C134.585 74.936 134.681 75.112 134.777 75.272C134.777 75.288 134.785 75.296 134.801 75.296C134.801 75.312 134.801 75.32 134.801 75.32C134.801 75.4 134.761 75.464 134.681 75.512C134.585 75.576 134.497 75.584 134.417 75.536ZM138.473 70.328C139.369 70.328 140.401 69.872 141.569 68.96C142.945 67.872 143.633 66.664 143.633 65.336C143.633 64.728 143.257 64.424 142.505 64.424C141.817 64.424 141.177 64.576 140.585 64.88C140.425 64.944 140.161 65.152 139.793 65.504C139.441 65.856 138.969 66.336 138.377 66.944C137.113 68.256 136.481 69.096 136.481 69.464C136.481 69.752 136.745 69.984 137.273 70.16C137.625 70.272 138.025 70.328 138.473 70.328ZM146.679 71.048C146.215 71.048 145.783 70.936 145.383 70.712C144.983 70.472 144.783 70.08 144.783 69.536C144.783 68.784 145.047 67.888 145.575 66.848C146.119 65.808 146.735 64.728 147.423 63.608C149.295 60.568 150.623 59.048 151.407 59.048C151.567 59.048 151.727 59.112 151.887 59.24C152.063 59.352 152.159 59.48 152.175 59.624L150.495 61.88C149.839 62.76 149.247 63.576 148.719 64.328C148.191 65.064 147.735 65.728 147.351 66.32C147.159 66.624 146.943 66.968 146.703 67.352C146.463 67.736 146.247 68.136 146.055 68.552C145.879 68.952 145.791 69.36 145.791 69.776C145.791 69.968 145.847 70.144 145.959 70.304C146.071 70.448 146.271 70.52 146.559 70.52C147.071 70.52 147.743 70.248 148.575 69.704C149.407 69.144 150.231 68.376 151.047 67.4C151.127 67.304 151.215 67.216 151.311 67.136C151.407 67.056 151.487 67.016 151.551 67.016C151.631 67.016 151.671 67.064 151.671 67.16C151.671 67.208 151.615 67.304 151.503 67.448C151.407 67.576 151.327 67.68 151.263 67.76L150.687 68.408C150.367 68.76 149.983 69.144 149.535 69.56C149.103 69.976 148.639 70.328 148.143 70.616C147.663 70.904 147.175 71.048 146.679 71.048ZM151.915 71.312C151.403 71.312 150.939 71.152 150.523 70.832C150.107 70.496 149.899 70.056 149.899 69.512C149.899 68.376 150.595 67.08 151.987 65.624C153.411 64.152 154.683 63.416 155.803 63.416C156.171 63.416 156.467 63.52 156.691 63.728C156.931 63.92 157.051 64.16 157.051 64.448C157.051 65.344 156.339 66.224 154.915 67.088C153.651 67.856 152.587 68.24 151.723 68.24C151.595 68.24 151.483 68.224 151.387 68.192C151.147 68.624 151.027 69.08 151.027 69.56C151.027 70.392 151.419 70.808 152.203 70.808C153.003 70.808 154.035 70.272 155.299 69.2C156.275 68.416 157.107 67.584 157.795 66.704C157.939 66.512 158.067 66.416 158.179 66.416C158.275 66.416 158.323 66.464 158.323 66.56C158.323 66.656 158.259 66.792 158.131 66.968C157.683 67.56 157.203 68.104 156.691 68.6C156.179 69.096 155.627 69.552 155.035 69.968C153.803 70.864 152.763 71.312 151.915 71.312ZM152.059 67.712C152.667 67.712 153.459 67.408 154.435 66.8C154.755 66.576 155.067 66.328 155.371 66.056C155.691 65.768 155.947 65.48 156.139 65.192C156.347 64.904 156.451 64.648 156.451 64.424C156.451 64.216 156.283 64.112 155.947 64.112C155.467 64.112 154.795 64.472 153.931 65.192C153.515 65.544 153.115 65.928 152.731 66.344C152.347 66.76 152.019 67.2 151.747 67.664C151.843 67.696 151.947 67.712 152.059 67.712ZM166.725 73.592C165.477 73.592 164.485 73.296 163.749 72.704C163.013 72.128 162.645 71.288 162.645 70.184C162.645 69.384 162.813 68.632 163.149 67.928C163.501 67.208 163.973 66.568 164.565 66.008C165.157 65.448 165.829 65.008 166.581 64.688C167.349 64.368 168.149 64.208 168.981 64.208C169.829 64.208 170.493 64.4 170.973 64.784C171.469 65.168 171.717 65.688 171.717 66.344C171.717 66.824 171.405 67.448 170.781 68.216C170.157 68.984 169.845 69.24 169.845 68.984C169.845 68.92 169.869 68.856 169.917 68.792C170.429 68.04 170.685 67.336 170.685 66.68C170.685 66.088 170.493 65.616 170.109 65.264C169.741 64.912 169.253 64.736 168.645 64.736C167.973 64.736 167.325 64.904 166.701 65.24C166.093 65.56 165.549 65.992 165.069 66.536C164.589 67.08 164.213 67.68 163.941 68.336C163.669 68.992 163.533 69.64 163.533 70.28C163.533 71.16 163.813 71.824 164.373 72.272C164.949 72.736 165.701 72.968 166.629 72.968C167.573 72.968 168.477 72.792 169.341 72.44C170.221 72.104 171.005 71.616 171.693 70.976C172.509 70.208 173.333 69.088 174.165 67.616L176.253 63.848C176.797 62.984 177.365 61.944 177.957 60.728C178.549 59.496 179.173 58.088 179.829 56.504C177.525 56.472 175.285 56.696 173.109 57.176C170.789 57.672 169.069 58.36 167.949 59.24C167.469 59.592 167.229 59.96 167.229 60.344C167.229 60.68 167.413 60.96 167.781 61.184C168.165 61.392 168.645 61.496 169.221 61.496C169.557 61.496 169.957 61.448 170.421 61.352C170.885 61.256 171.333 61.128 171.765 60.968C172.197 60.792 172.525 60.6 172.749 60.392C172.909 60.264 173.021 60.2 173.085 60.2C173.213 60.2 173.237 60.264 173.157 60.392C172.821 60.792 172.381 61.128 171.837 61.4C171.309 61.672 170.749 61.88 170.157 62.024C169.565 62.152 169.013 62.216 168.501 62.216C167.717 62.216 167.101 62.064 166.653 61.76C166.221 61.44 166.005 61.032 166.005 60.536C166.005 59.96 166.293 59.4 166.869 58.856C167.957 57.8 169.901 57.016 172.701 56.504C173.789 56.312 174.957 56.176 176.205 56.096C177.453 56 178.781 55.96 180.189 55.976C180.541 55.672 180.877 55.52 181.197 55.52C181.517 55.52 181.637 55.688 181.557 56.024C182.565 56.088 183.581 56.216 184.605 56.408C185.645 56.6 186.589 56.872 187.437 57.224C188.301 57.56 188.997 57.984 189.525 58.496C190.053 58.992 190.317 59.584 190.317 60.272C190.317 61.008 190.069 61.712 189.573 62.384C189.093 63.04 188.469 63.624 187.701 64.136C186.949 64.648 186.157 65.056 185.325 65.36C184.557 65.632 183.733 65.848 182.853 66.008C181.989 66.168 181.133 66.248 180.285 66.248C179.645 66.248 179.029 66.2 178.437 66.104C177.861 66.008 177.333 65.856 176.853 65.648C175.877 67.072 175.061 68.232 174.405 69.128C173.765 70.024 173.269 70.648 172.917 71C171.189 72.728 169.125 73.592 166.725 73.592ZM179.685 65.672C180.277 65.672 180.861 65.616 181.437 65.504C182.029 65.376 182.661 65.208 183.333 65C184.005 64.776 184.685 64.496 185.373 64.16C186.061 63.808 186.693 63.416 187.269 62.984C187.845 62.536 188.309 62.064 188.661 61.568C189.013 61.056 189.189 60.544 189.189 60.032C189.189 59.456 188.949 58.96 188.469 58.544C187.989 58.112 187.357 57.76 186.573 57.488C185.789 57.216 184.941 57.008 184.029 56.864C183.117 56.704 182.237 56.6 181.389 56.552L180.621 58.952C180.349 59.64 179.965 60.44 179.469 61.352C178.973 62.264 178.365 63.288 177.645 64.424L177.117 65.24C177.229 65.304 177.349 65.36 177.477 65.408C177.621 65.44 177.773 65.472 177.933 65.504C178.237 65.568 178.533 65.616 178.821 65.648C179.109 65.664 179.397 65.672 179.685 65.672ZM191.869 71.12C191.181 71.12 190.709 70.944 190.453 70.592C190.197 70.224 190.069 69.736 190.069 69.128C190.069 68.456 190.277 67.656 190.693 66.728C190.853 66.36 191.021 66.032 191.197 65.744C191.373 65.44 191.557 65.16 191.749 64.904C191.685 64.92 191.629 64.928 191.581 64.928C191.533 64.928 191.485 64.928 191.437 64.928C191.053 64.928 190.733 64.656 190.477 64.112L188.701 66.416C187.757 67.648 187.181 68.264 186.973 68.264C186.893 68.264 186.853 68.232 186.853 68.168C186.853 68.088 186.893 67.984 186.973 67.856C187.021 67.76 187.117 67.632 187.261 67.472C187.869 66.768 188.429 66.072 188.941 65.384C189.453 64.696 189.877 64.024 190.213 63.368C190.581 61.976 191.045 61.28 191.605 61.28C191.973 61.28 192.157 61.448 192.157 61.784C192.157 62.088 191.957 62.488 191.557 62.984C191.173 63.48 190.981 63.736 190.981 63.752C190.981 64.088 191.229 64.256 191.725 64.256C192.013 64.256 192.333 64.152 192.685 63.944L193.309 63.56C193.341 63.544 193.389 63.536 193.453 63.536C193.645 63.536 193.813 63.616 193.957 63.776C194.101 63.936 194.149 64.08 194.101 64.208L192.445 66.296C191.421 67.608 190.909 68.664 190.909 69.464C190.909 70.184 191.261 70.544 191.965 70.544C192.445 70.544 192.957 70.4 193.501 70.112C194.061 69.824 194.597 69.472 195.109 69.056C195.637 68.624 196.077 68.208 196.429 67.808L197.005 67.136C197.037 67.104 197.077 67.064 197.125 67.016C197.173 66.968 197.213 66.944 197.245 66.944C197.357 66.944 197.413 67 197.413 67.112C197.413 67.144 197.397 67.2 197.365 67.28C197.333 67.36 197.277 67.448 197.197 67.544L196.429 68.408C196.061 68.824 195.605 69.248 195.061 69.68C194.533 70.096 193.981 70.44 193.405 70.712C192.845 70.984 192.333 71.12 191.869 71.12ZM197.642 71.312C197.13 71.312 196.666 71.152 196.25 70.832C195.834 70.496 195.626 70.056 195.626 69.512C195.626 68.376 196.322 67.08 197.714 65.624C199.138 64.152 200.41 63.416 201.53 63.416C201.898 63.416 202.194 63.52 202.418 63.728C202.658 63.92 202.778 64.16 202.778 64.448C202.778 65.344 202.066 66.224 200.642 67.088C199.378 67.856 198.314 68.24 197.45 68.24C197.322 68.24 197.21 68.224 197.114 68.192C196.874 68.624 196.754 69.08 196.754 69.56C196.754 70.392 197.146 70.808 197.93 70.808C198.73 70.808 199.762 70.272 201.026 69.2C202.002 68.416 202.834 67.584 203.522 66.704C203.666 66.512 203.794 66.416 203.906 66.416C204.002 66.416 204.05 66.464 204.05 66.56C204.05 66.656 203.986 66.792 203.858 66.968C203.41 67.56 202.93 68.104 202.418 68.6C201.906 69.096 201.354 69.552 200.762 69.968C199.53 70.864 198.49 71.312 197.642 71.312ZM197.786 67.712C198.394 67.712 199.186 67.408 200.162 66.8C200.482 66.576 200.794 66.328 201.098 66.056C201.418 65.768 201.674 65.48 201.866 65.192C202.074 64.904 202.178 64.648 202.178 64.424C202.178 64.216 202.01 64.112 201.674 64.112C201.194 64.112 200.522 64.472 199.658 65.192C199.242 65.544 198.842 65.928 198.458 66.344C198.074 66.76 197.746 67.2 197.474 67.664C197.57 67.696 197.674 67.712 197.786 67.712ZM208.246 71.048C207.862 71.048 207.67 70.832 207.67 70.4C207.846 69.504 208.206 68.496 208.75 67.376C209.006 66.832 209.262 66.296 209.518 65.768C209.79 65.24 210.054 64.704 210.31 64.16C209.718 64.56 209.126 65.008 208.534 65.504C207.942 65.984 207.366 66.528 206.806 67.136C206.15 67.84 205.39 68.744 204.526 69.848C203.902 70.632 203.542 71.024 203.446 71.024C203.222 71.024 203.038 70.92 202.894 70.712C202.75 70.504 202.678 70.328 202.678 70.184C202.678 69.976 202.862 69.44 203.23 68.576C203.342 68.304 203.454 68.04 203.566 67.784C203.694 67.512 203.814 67.248 203.926 66.992L202.486 68.504C202.454 68.536 202.358 68.632 202.198 68.792C202.038 68.952 201.91 69.032 201.814 69.032C201.734 69.032 201.694 68.976 201.694 68.864C201.694 68.832 201.71 68.792 201.742 68.744C201.758 68.68 201.806 68.608 201.886 68.528C202.126 68.288 202.374 68.032 202.63 67.76C202.886 67.488 203.15 67.176 203.422 66.824C203.63 66.552 203.926 66.152 204.31 65.624C204.71 65.08 205.198 64.4 205.774 63.584C205.95 63.344 206.198 63.224 206.518 63.224C206.838 63.224 206.998 63.376 206.998 63.68C206.998 63.792 206.59 64.536 205.774 65.912C205.358 66.648 205.022 67.248 204.766 67.712C204.526 68.176 204.374 68.52 204.31 68.744C204.662 68.36 205.078 67.928 205.558 67.448C206.054 66.968 206.622 66.432 207.262 65.84C209.23 64.016 210.526 63.104 211.15 63.104C211.326 63.104 211.494 63.16 211.654 63.272C211.83 63.384 211.918 63.528 211.918 63.704C211.918 63.784 211.606 64.368 210.982 65.456C210.374 66.56 210.038 67.216 209.974 67.424C211.75 65.936 212.638 65.184 212.638 65.168C214.142 64 215.222 63.416 215.878 63.416C216.07 63.416 216.246 63.48 216.406 63.608C216.582 63.72 216.67 63.856 216.67 64.016C216.67 64.048 216.158 64.72 215.134 66.032C214.078 67.36 213.486 68.448 213.358 69.296C213.294 69.872 213.59 70.16 214.246 70.16C214.646 70.16 215.206 69.904 215.926 69.392C216.646 68.88 217.398 68.176 218.182 67.28C218.278 67.168 218.382 67.064 218.494 66.968C218.606 66.856 218.702 66.8 218.782 66.8C218.878 66.8 218.926 66.84 218.926 66.92C218.926 67.032 218.854 67.16 218.71 67.304C218.294 67.8 217.798 68.312 217.222 68.84C216.662 69.368 216.102 69.816 215.542 70.184C214.982 70.536 214.486 70.712 214.054 70.712C212.966 70.712 212.422 70.208 212.422 69.2C212.422 68.848 212.518 68.44 212.71 67.976C212.902 67.496 213.094 67.064 213.286 66.68C213.75 65.784 214.254 64.992 214.798 64.304C214.286 64.56 213.75 64.896 213.19 65.312C212.646 65.728 212.078 66.216 211.486 66.776C210.11 68.12 209.166 69.48 208.654 70.856C208.574 70.984 208.438 71.048 208.246 71.048ZM223.027 62.744C222.755 62.744 222.515 62.656 222.307 62.48C222.115 62.304 222.019 62.104 222.019 61.88C222.019 61.432 222.323 61.208 222.931 61.208C223.155 61.208 223.379 61.288 223.603 61.448C223.827 61.592 223.939 61.776 223.939 62C223.939 62.192 223.835 62.368 223.627 62.528C223.419 62.672 223.219 62.744 223.027 62.744ZM218.587 71.264C218.235 71.264 217.947 71.152 217.723 70.928C217.483 70.688 217.363 70.272 217.363 69.68C217.363 69.344 217.443 68.96 217.603 68.528C217.747 68.08 217.931 67.632 218.155 67.184C218.395 66.736 218.627 66.336 218.851 65.984C219.747 64.528 220.483 63.792 221.059 63.776C221.203 63.776 221.379 63.84 221.587 63.968C221.795 64.08 221.899 64.208 221.899 64.352C221.899 64.352 221.291 65.136 220.075 66.704C218.875 68.256 218.275 69.36 218.275 70.016C218.275 70.528 218.475 70.784 218.875 70.784C219.131 70.784 219.459 70.68 219.859 70.472C220.275 70.248 220.707 69.968 221.155 69.632C221.603 69.296 222.027 68.936 222.427 68.552C222.843 68.168 223.179 67.816 223.435 67.496C223.595 67.288 223.731 67.144 223.843 67.064C223.971 66.984 224.051 66.944 224.083 66.944C224.147 66.944 224.179 66.992 224.179 67.088C224.179 67.168 224.083 67.328 223.891 67.568C223.715 67.808 223.467 68.088 223.147 68.408C222.763 68.792 222.339 69.208 221.875 69.656C221.411 70.104 220.907 70.488 220.363 70.808C219.819 71.112 219.227 71.264 218.587 71.264ZM225.897 71.048C225.145 71.048 224.585 70.8 224.217 70.304C223.865 69.808 223.577 69.12 223.353 68.24C223.065 68.528 222.865 68.672 222.753 68.672C222.673 68.672 222.633 68.608 222.633 68.48C222.633 68.384 222.673 68.296 222.753 68.216C222.753 68.216 222.953 67.968 223.353 67.472C223.769 66.976 224.465 66.28 225.441 65.384L228.465 62.552C228.881 62.152 229.209 61.848 229.449 61.64C229.705 61.432 229.889 61.328 230.001 61.328C230.513 61.328 230.769 61.52 230.769 61.904C230.769 62.096 230.665 62.32 230.457 62.576C230.297 62.768 230.177 62.92 230.097 63.032C230.033 63.128 229.993 63.184 229.977 63.2C229.689 63.696 229.425 64.584 229.185 65.864C229.009 66.808 228.857 67.584 228.729 68.192C228.601 68.8 228.497 69.24 228.417 69.512C229.089 69.496 229.753 69.288 230.409 68.888C231.065 68.488 231.769 67.832 232.521 66.92C232.553 66.888 232.601 66.84 232.665 66.776C232.729 66.712 232.793 66.68 232.857 66.68C232.953 66.68 233.001 66.72 233.001 66.8C233.001 66.88 232.977 66.96 232.929 67.04C232.881 67.12 232.833 67.192 232.785 67.256C232.289 67.848 231.825 68.336 231.393 68.72C230.961 69.088 230.505 69.384 230.025 69.608C229.545 69.816 228.977 69.992 228.321 70.136L227.553 70.64C227.345 70.784 227.097 70.888 226.809 70.952C226.521 71.016 226.217 71.048 225.897 71.048ZM226.185 69.824C226.553 69.824 226.857 69.736 227.097 69.56C227.273 69.464 227.441 69.2 227.601 68.768C227.777 68.32 227.945 67.768 228.105 67.112C228.233 66.552 228.329 66.008 228.393 65.48C228.473 64.936 228.545 64.416 228.609 63.92L228.705 63.104C228.337 63.376 227.873 63.768 227.313 64.28C226.753 64.792 226.201 65.328 225.657 65.888C225.113 66.448 224.761 66.864 224.601 67.136C224.441 67.392 224.353 67.584 224.337 67.712C224.273 68.352 224.425 68.864 224.793 69.248C225.177 69.632 225.641 69.824 226.185 69.824ZM232.986 71.312C232.474 71.312 232.01 71.152 231.594 70.832C231.178 70.496 230.97 70.056 230.97 69.512C230.97 68.376 231.666 67.08 233.058 65.624C234.482 64.152 235.754 63.416 236.874 63.416C237.242 63.416 237.538 63.52 237.762 63.728C238.002 63.92 238.122 64.16 238.122 64.448C238.122 65.344 237.41 66.224 235.986 67.088C234.722 67.856 233.658 68.24 232.794 68.24C232.666 68.24 232.554 68.224 232.458 68.192C232.218 68.624 232.098 69.08 232.098 69.56C232.098 70.392 232.49 70.808 233.274 70.808C234.074 70.808 235.106 70.272 236.37 69.2C237.346 68.416 238.178 67.584 238.866 66.704C239.01 66.512 239.138 66.416 239.25 66.416C239.346 66.416 239.394 66.464 239.394 66.56C239.394 66.656 239.33 66.792 239.202 66.968C238.754 67.56 238.274 68.104 237.762 68.6C237.25 69.096 236.698 69.552 236.106 69.968C234.874 70.864 233.834 71.312 232.986 71.312ZM233.13 67.712C233.738 67.712 234.53 67.408 235.506 66.8C235.826 66.576 236.138 66.328 236.442 66.056C236.762 65.768 237.018 65.48 237.21 65.192C237.418 64.904 237.522 64.648 237.522 64.424C237.522 64.216 237.354 64.112 237.018 64.112C236.538 64.112 235.866 64.472 235.002 65.192C234.586 65.544 234.186 65.928 233.802 66.344C233.418 66.76 233.09 67.2 232.818 67.664C232.914 67.696 233.018 67.712 233.13 67.712Z" fill="black"/>
<path d="M13.8533 31.16C13.2666 31.16 12.6933 30.7333 12.1333 29.88C11.5466 29 11.2533 28.0133 11.2533 26.92C11.2533 25.4533 11.7066 23.9733 12.6133 22.48C13.5466 20.96 14.4533 20.2 15.3333 20.2V21.04C14.4266 21.5733 13.8666 22.8133 13.6533 24.76C13.6533 26.28 14.4933 27.32 16.1733 27.88V28.72L13.8533 31.16ZM20.7333 31.16C20.1466 31.16 19.5733 30.7333 19.0133 29.88C18.4266 29 18.1333 28.0133 18.1333 26.92C18.1333 25.5067 18.5999 24.0267 19.5333 22.48C20.4666 20.96 21.3733 20.2 22.2533 20.2V21.04C21.3199 21.6 20.7466 22.84 20.5333 24.76C20.5333 26.28 21.3733 27.32 23.0533 27.88V28.72L20.7333 31.16Z" fill="black"/>
<path d="M275.147 72.16C275.733 72.16 276.307 71.7333 276.867 70.88C277.453 70 277.747 69.0133 277.747 67.92C277.747 66.4533 277.293 64.9733 276.387 63.48C275.453 61.96 274.547 61.2 273.667 61.2V62.04C274.573 62.5733 275.133 63.8133 275.347 65.76C275.347 67.28 274.507 68.32 272.827 68.88V69.72L275.147 72.16ZM268.267 72.16C268.853 72.16 269.427 71.7333 269.987 70.88C270.573 70 270.867 69.0133 270.867 67.92C270.867 66.5067 270.4 65.0267 269.467 63.48C268.533 61.96 267.627 61.2 266.747 61.2V62.04C267.68 62.6 268.253 63.84 268.467 65.76C268.467 67.28 267.627 68.32 265.947 68.88V69.72L268.267 72.16Z" fill="black"/>
</svg>
