<svg width="304" height="63" viewBox="0 0 304 63" fill="none" xmlns="http://www.w3.org/2000/svg">
<path d="M51.9338 46.888C51.6991 46.888 51.4644 46.888 51.2298 46.888C50.9951 46.888 50.7604 46.8773 50.5258 46.856C48.8404 46.7707 47.4751 46.216 46.4298 45.192C45.3844 44.168 44.8618 42.7707 44.8618 41C44.8618 39.464 45.2991 37.7253 46.1738 35.784C47.2831 33.3307 49.3738 31.0053 52.4458 28.808C54.2164 27.5493 56.1044 26.5467 58.1098 25.8C60.1151 25.032 62.1418 24.648 64.1898 24.648C65.3844 24.648 66.4724 24.808 67.4538 25.128C68.4564 25.448 69.2458 25.928 69.8218 26.568C70.4191 27.208 70.7178 28.0187 70.7178 29C70.7178 29.3413 70.6751 29.704 70.5898 30.088C70.5044 30.4507 70.3658 30.8133 70.1738 31.176L69.8218 31.848C69.9924 32.424 70.0778 33.0107 70.0778 33.608C70.0778 36.2747 68.7124 38.824 65.9818 41.256C61.8004 45.0107 57.1178 46.888 51.9338 46.888ZM51.7418 46.248C55.9444 46.248 59.9444 44.552 63.7418 41.16C66.4724 38.728 67.9444 36.4133 68.1578 34.216C67.0484 35.432 65.1284 36.8827 62.3978 38.568L62.1418 38.632C61.9711 38.632 62.2484 38.3333 62.9738 37.736L64.7658 36.264C65.5338 35.624 66.1951 35.0267 66.7498 34.472C67.3044 33.9173 67.7631 33.416 68.1258 32.968C67.9764 31.7733 67.4004 30.7493 66.3978 29.896C65.5444 29.1493 64.5204 28.5947 63.3258 28.232C62.7284 28.0827 61.7471 27.9867 60.3818 27.944C59.2511 27.9013 58.6858 27.848 58.6858 27.784C58.6858 27.7627 58.7071 27.7307 58.7498 27.688C59.7524 27.368 60.7124 27.208 61.6298 27.208C62.0564 27.208 62.5258 27.24 63.0378 27.304C63.5498 27.368 64.1044 27.4747 64.7018 27.624C66.9418 28.1573 68.5098 29.2453 69.4058 30.888C69.6191 30.376 69.7258 29.8533 69.7258 29.32C69.7258 28.4453 69.4698 27.7093 68.9578 27.112C68.4671 26.5147 67.7951 26.0667 66.9418 25.768C66.1098 25.4693 65.1818 25.32 64.1578 25.32C60.9364 25.32 57.8431 26.3547 54.8778 28.424C52.1258 30.344 49.9498 32.8187 48.3498 35.848C47.1764 38.0453 46.5898 40.0187 46.5898 41.768C46.5898 44.584 48.0084 46.0667 50.8458 46.216C50.9951 46.2373 51.1444 46.248 51.2938 46.248C51.4431 46.248 51.5924 46.248 51.7418 46.248ZM70.6915 45.352C69.7315 45.352 69.2515 44.744 69.2515 43.528C69.2515 43.0587 69.3902 42.504 69.6675 41.864C69.9662 41.2027 70.3822 40.5093 70.9155 39.784C70.9155 39.784 70.7235 39.9653 70.3395 40.328C69.9555 40.6907 69.5182 41.1493 69.0275 41.704C68.9422 41.7893 68.8355 41.832 68.7075 41.832C68.6222 41.832 68.5795 41.7787 68.5795 41.672C68.5795 41.5653 68.6755 41.384 68.8675 41.128L73.2835 35.944C73.8382 35.304 74.4462 34.984 75.1075 34.984C75.5982 34.984 75.8435 35.176 75.8435 35.56C75.8435 35.7093 75.7795 35.848 75.6515 35.976C75.2462 36.36 74.7448 36.904 74.1475 37.608C73.5715 38.312 73.0062 39.0693 72.4515 39.88C71.8968 40.6907 71.4275 41.4693 71.0435 42.216C70.6808 42.9413 70.4995 43.528 70.4995 43.976C70.4995 44.36 70.6275 44.552 70.8835 44.552C71.0328 44.552 71.2675 44.4987 71.5875 44.392C71.9075 44.264 72.3342 44.0187 72.8675 43.656C73.4008 43.272 74.0408 42.6853 74.7875 41.896C74.9155 41.768 75.2568 41.384 75.8115 40.744C76.3662 40.104 77.1128 39.1867 78.0515 37.992C79.7155 35.9227 80.8035 34.888 81.3155 34.888C82.0195 34.888 82.4035 35.176 82.4675 35.752C82.5102 35.944 82.0622 36.5733 81.1235 37.64C79.9075 39.112 79.0755 40.168 78.6275 40.808C77.7955 42.024 77.3795 42.9733 77.3795 43.656C77.3795 44.1253 77.5395 44.36 77.8595 44.36C78.1795 44.36 78.5848 44.2107 79.0755 43.912C79.5875 43.592 80.1208 43.1973 80.6755 42.728C81.2302 42.2373 81.7635 41.736 82.2755 41.224C82.8088 40.6907 83.2675 40.2 83.6515 39.752C83.7795 39.6027 83.9075 39.528 84.0355 39.528C84.1635 39.528 84.2275 39.592 84.2275 39.72C84.2275 39.7627 84.2168 39.8267 84.1955 39.912C84.1742 39.9973 84.1102 40.0933 84.0035 40.2C83.6622 40.584 83.2248 41.064 82.6915 41.64C82.1582 42.1947 81.5822 42.7493 80.9635 43.304C80.3448 43.8587 79.7475 44.3173 79.1715 44.68C78.5955 45.0427 78.1048 45.224 77.6995 45.224C77.2088 45.224 76.7822 45.096 76.4195 44.84C76.0568 44.5627 75.8755 44.1893 75.8755 43.72C75.8755 43.2507 75.9502 42.7813 76.0995 42.312C76.2488 41.8213 76.3662 41.4053 76.4515 41.064C75.4488 42.2373 74.5635 43.1333 73.7955 43.752C73.0488 44.3707 72.4195 44.7867 71.9075 45C71.3955 45.2347 70.9902 45.352 70.6915 45.352ZM89.3093 45.16C88.3919 45.16 87.7626 44.9253 87.4213 44.456C87.0799 43.9653 86.9093 43.3147 86.9093 42.504C86.9093 41.608 87.1866 40.5413 87.7413 39.304C87.9546 38.8133 88.1786 38.376 88.4133 37.992C88.6479 37.5867 88.8933 37.2133 89.1493 36.872C89.0639 36.8933 88.9893 36.904 88.9253 36.904C88.8613 36.904 88.7973 36.904 88.7333 36.904C88.2213 36.904 87.7946 36.5413 87.4533 35.816L85.0853 38.888C83.8266 40.5307 83.0586 41.352 82.7812 41.352C82.6746 41.352 82.6212 41.3093 82.6212 41.224C82.6212 41.1173 82.6746 40.9787 82.7812 40.808C82.8453 40.68 82.9733 40.5093 83.1653 40.296C83.9759 39.3573 84.7226 38.4293 85.4053 37.512C86.0879 36.5947 86.6533 35.6987 87.1013 34.824C87.5919 32.968 88.2106 32.04 88.9573 32.04C89.4479 32.04 89.6933 32.264 89.6933 32.712C89.6933 33.1173 89.4266 33.6507 88.8933 34.312C88.3813 34.9733 88.1253 35.3147 88.1253 35.336C88.1253 35.784 88.4559 36.008 89.1173 36.008C89.5013 36.008 89.9279 35.8693 90.3973 35.592L91.2292 35.08C91.2719 35.0587 91.3359 35.048 91.4213 35.048C91.6773 35.048 91.9013 35.1547 92.0933 35.368C92.2853 35.5813 92.3493 35.7733 92.2853 35.944L90.0773 38.728C88.7119 40.4773 88.0293 41.8853 88.0293 42.952C88.0293 43.912 88.4986 44.392 89.4373 44.392C90.0773 44.392 90.7599 44.2 91.4853 43.816C92.2319 43.432 92.9466 42.9627 93.6293 42.408C94.3333 41.832 94.9199 41.2773 95.3893 40.744L96.1573 39.848C96.1999 39.8053 96.2533 39.752 96.3173 39.688C96.3813 39.624 96.4346 39.592 96.4773 39.592C96.6266 39.592 96.7013 39.6667 96.7013 39.816C96.7013 39.8587 96.6799 39.9333 96.6373 40.04C96.5946 40.1467 96.5199 40.264 96.4133 40.392L95.3893 41.544C94.8986 42.0987 94.2906 42.664 93.5653 43.24C92.8613 43.7947 92.1253 44.2533 91.3573 44.616C90.6106 44.9787 89.9279 45.16 89.3093 45.16ZM115.287 46.504C111.916 46.504 109.623 45.352 108.407 43.048C106.209 44.8827 104.641 45.8 103.703 45.8C103.255 45.8 102.903 45.5867 102.647 45.16C102.412 44.7333 102.295 44.2533 102.295 43.72C102.295 42.44 102.785 40.9467 103.767 39.24C104.193 38.4933 104.663 37.8107 105.175 37.192C105.687 36.5733 106.263 36.264 106.903 36.264C107.521 36.264 107.991 36.776 108.311 37.8L109.271 40.872C109.612 40.5093 109.985 40.072 110.391 39.56C110.817 39.0267 111.287 38.408 111.799 37.704L114.647 33.864C118.145 29.32 120.439 26.8347 121.527 26.408C121.911 26.2587 122.295 26.184 122.679 26.184C123.105 26.184 123.447 26.28 123.703 26.472C123.98 26.6427 124.119 26.8453 124.119 27.08C124.119 27.464 123.809 27.688 123.191 27.752C122.551 28.1147 121.303 29.192 119.447 30.984C118.593 31.816 117.9 32.5093 117.367 33.064C116.855 33.5973 116.503 34.0027 116.311 34.28C113.921 37.608 111.713 40.168 109.687 41.96C110.988 44.5413 112.94 45.832 115.543 45.832C116.524 45.832 117.516 45.6187 118.519 45.192C119.543 44.7867 120.481 44.2427 121.335 43.56C122.209 42.8773 122.913 42.12 123.447 41.288C123.98 40.4347 124.247 39.592 124.247 38.76C124.247 37.8853 123.937 37.096 123.319 36.392C122.7 35.688 121.943 35.1867 121.047 34.888C121.047 34.888 120.887 34.8667 120.567 34.824C120.247 34.7813 119.756 34.7173 119.095 34.632C118.092 34.504 117.591 34.3013 117.591 34.024C117.591 33.832 117.708 33.6613 117.943 33.512C118.199 33.3627 118.455 33.288 118.711 33.288C118.903 33.288 119.127 33.3307 119.383 33.416C119.639 33.5013 119.863 33.5867 120.055 33.672C120.268 33.736 120.375 33.768 120.375 33.768C120.545 33.7893 120.737 33.8107 120.951 33.832C121.164 33.832 121.377 33.832 121.591 33.832C122.999 33.832 124.279 33.608 125.431 33.16C126.54 32.712 127.351 32.0933 127.863 31.304C128.375 30.5147 128.631 29.5973 128.631 28.552C128.631 27.4853 128.289 26.6427 127.607 26.024C126.945 25.4053 126.06 24.968 124.951 24.712C123.863 24.4347 122.679 24.296 121.399 24.296C118.903 24.296 116.524 24.6587 114.263 25.384C112.023 26.1093 110.081 27.3147 108.439 29C107.18 30.3013 106.551 31.3893 106.551 32.264C106.551 32.8827 106.711 33.4053 107.031 33.832C107.116 33.9387 107.212 34.0453 107.319 34.152C107.425 34.2587 107.553 34.3653 107.703 34.472C107.809 34.536 107.745 34.568 107.511 34.568C106.188 34.2693 105.527 33.384 105.527 31.912C105.527 30.44 106.273 29.0533 107.767 27.752C108.919 26.7493 110.231 25.9387 111.703 25.32C113.196 24.7013 114.764 24.2533 116.407 23.976C118.071 23.6987 119.713 23.56 121.335 23.56C122.487 23.56 123.596 23.6453 124.663 23.816C125.729 23.9867 126.689 24.2747 127.543 24.68C128.396 25.064 129.068 25.576 129.559 26.216C130.071 26.856 130.327 27.6453 130.327 28.584C130.327 29.9067 129.975 30.9627 129.271 31.752C128.567 32.5413 127.617 33.1493 126.423 33.576C125.015 34.0667 123.5 34.3227 121.879 34.344C122.775 34.3867 123.553 34.6213 124.215 35.048C124.897 35.4747 125.42 36.0293 125.783 36.712C126.167 37.3947 126.359 38.1413 126.359 38.952C126.359 40.04 126.028 41.0533 125.367 41.992C124.727 42.9093 123.863 43.7093 122.775 44.392C121.687 45.0533 120.492 45.5653 119.191 45.928C117.889 46.312 116.588 46.504 115.287 46.504ZM104.119 45.064C104.801 45.064 106.113 44.0933 108.055 42.152L107.959 42.024C107.105 39.1867 106.423 37.768 105.911 37.768C105.889 37.768 105.836 37.7893 105.751 37.832C104.172 40.1147 103.383 41.9493 103.383 43.336C103.383 43.6347 103.436 43.9973 103.543 44.424C103.671 44.8507 103.863 45.064 104.119 45.064ZM129.57 45.416C128.887 45.416 128.268 45.2027 127.713 44.776C127.159 44.328 126.882 43.7413 126.882 43.016C126.882 41.5013 127.81 39.7733 129.666 37.832C131.564 35.8693 133.26 34.888 134.754 34.888C135.244 34.888 135.639 35.0267 135.938 35.304C136.258 35.56 136.418 35.88 136.418 36.264C136.418 37.4587 135.468 38.632 133.57 39.784C131.884 40.808 130.466 41.32 129.314 41.32C129.143 41.32 128.994 41.2987 128.866 41.256C128.546 41.832 128.386 42.44 128.386 43.08C128.386 44.1893 128.908 44.744 129.954 44.744C131.02 44.744 132.396 44.0293 134.082 42.6C135.383 41.5547 136.492 40.4453 137.41 39.272C137.602 39.016 137.772 38.888 137.922 38.888C138.05 38.888 138.114 38.952 138.114 39.08C138.114 39.208 138.028 39.3893 137.858 39.624C137.26 40.4133 136.62 41.1387 135.938 41.8C135.255 42.4613 134.519 43.0693 133.73 43.624C132.087 44.8187 130.7 45.416 129.57 45.416ZM129.762 40.616C130.572 40.616 131.628 40.2107 132.93 39.4C133.356 39.1013 133.772 38.7707 134.178 38.408C134.604 38.024 134.946 37.64 135.202 37.256C135.479 36.872 135.618 36.5307 135.618 36.232C135.618 35.9547 135.394 35.816 134.946 35.816C134.306 35.816 133.41 36.296 132.258 37.256C131.703 37.7253 131.17 38.2373 130.658 38.792C130.146 39.3467 129.708 39.9333 129.346 40.552C129.474 40.5947 129.612 40.616 129.762 40.616ZM138.588 45.064C137.97 45.064 137.394 44.9147 136.86 44.616C136.327 44.296 136.06 43.7733 136.06 43.048C136.06 42.0453 136.412 40.8507 137.116 39.464C137.842 38.0773 138.663 36.6373 139.58 35.144C142.076 31.0907 143.847 29.064 144.892 29.064C145.106 29.064 145.319 29.1493 145.532 29.32C145.767 29.4693 145.895 29.64 145.916 29.832L143.676 32.84C142.802 34.0133 142.012 35.1013 141.308 36.104C140.604 37.0853 139.996 37.9707 139.484 38.76C139.228 39.1653 138.94 39.624 138.62 40.136C138.3 40.648 138.012 41.1813 137.756 41.736C137.522 42.2693 137.404 42.8133 137.404 43.368C137.404 43.624 137.479 43.8587 137.628 44.072C137.778 44.264 138.044 44.36 138.428 44.36C139.111 44.36 140.007 43.9973 141.116 43.272C142.226 42.5253 143.324 41.5013 144.412 40.2C144.519 40.072 144.636 39.9547 144.764 39.848C144.892 39.7413 144.999 39.688 145.084 39.688C145.191 39.688 145.244 39.752 145.244 39.88C145.244 39.944 145.17 40.072 145.02 40.264C144.892 40.4347 144.786 40.5733 144.7 40.68L143.932 41.544C143.506 42.0133 142.994 42.5253 142.396 43.08C141.82 43.6347 141.202 44.104 140.54 44.488C139.9 44.872 139.25 45.064 138.588 45.064ZM145.314 45.064C144.78 45.064 144.364 44.8187 144.066 44.328C143.767 43.816 143.617 43.3253 143.617 42.856C143.617 41.576 144.546 39.784 146.402 37.48C148.279 35.1547 149.794 33.992 150.946 33.992C152.034 33.992 152.578 34.568 152.578 35.72C152.578 35.8907 152.556 36.072 152.514 36.264C152.492 36.456 152.46 36.6587 152.418 36.872C152.46 36.936 152.567 36.968 152.738 36.968C153.314 36.968 153.996 36.7653 154.786 36.36C154.764 36.7227 153.922 37.2453 152.258 37.928C152.492 38.632 151.788 39.976 150.146 41.96C148.46 44.0293 147.02 45.064 145.826 45.064H145.314ZM145.89 44.104C146.807 44.104 147.98 43.2613 149.41 41.576C150.796 39.9333 151.49 38.7493 151.49 38.024C151.148 37.832 150.722 37.3413 150.21 36.552C149.484 36.552 148.439 37.4267 147.074 39.176C145.73 40.8827 145.079 42.1947 145.122 43.112C145.143 43.7733 145.399 44.104 145.89 44.104ZM153.993 45.096C153.866 45.096 153.684 45.0427 153.45 44.936C153.215 44.808 153.002 44.6693 152.809 44.52C152.617 44.3493 152.511 44.2 152.489 44.072C152.468 43.9013 152.585 43.4213 152.841 42.632C153.076 41.8213 153.46 40.7227 153.993 39.336C154.527 37.928 154.975 36.84 155.338 36.072C155.7 35.304 155.967 34.8453 156.138 34.696C156.223 34.6107 156.34 34.568 156.49 34.568C156.724 34.568 156.948 34.6747 157.161 34.888C157.375 35.08 157.492 35.3147 157.514 35.592C157.514 35.6133 156.98 36.872 155.914 39.368C154.868 41.7787 154.378 43.2187 154.442 43.688C155.38 43.3893 156.948 42.3333 159.146 40.52C160.468 39.4107 161.418 38.408 161.994 37.512C162.591 36.5947 162.89 35.7733 162.89 35.048C162.89 34.6213 162.783 34.2373 162.57 33.896C162.378 33.5333 162.015 33.2347 161.482 33C161.332 32.936 161.258 32.84 161.258 32.712C161.258 32.52 161.375 32.424 161.61 32.424C162.228 32.424 162.762 32.6267 163.21 33.032C163.679 33.4373 163.914 34.0453 163.914 34.856C163.914 35.7093 163.551 36.68 162.826 37.768C162.1 38.8347 161.066 39.976 159.722 41.192C158.548 42.2373 157.482 43.0907 156.522 43.752C155.583 44.4133 154.74 44.8613 153.993 45.096ZM164.195 45.416C163.512 45.416 162.893 45.2027 162.338 44.776C161.784 44.328 161.507 43.7413 161.507 43.016C161.507 41.5013 162.435 39.7733 164.291 37.832C166.189 35.8693 167.885 34.888 169.379 34.888C169.869 34.888 170.264 35.0267 170.562 35.304C170.883 35.56 171.043 35.88 171.043 36.264C171.043 37.4587 170.093 38.632 168.195 39.784C166.509 40.808 165.091 41.32 163.939 41.32C163.768 41.32 163.619 41.2987 163.491 41.256C163.171 41.832 163.011 42.44 163.011 43.08C163.011 44.1893 163.533 44.744 164.579 44.744C165.645 44.744 167.021 44.0293 168.707 42.6C170.008 41.5547 171.117 40.4453 172.035 39.272C172.227 39.016 172.397 38.888 172.547 38.888C172.675 38.888 172.739 38.952 172.739 39.08C172.739 39.208 172.653 39.3893 172.483 39.624C171.885 40.4133 171.245 41.1387 170.562 41.8C169.88 42.4613 169.144 43.0693 168.355 43.624C166.712 44.8187 165.325 45.416 164.195 45.416ZM164.387 40.616C165.197 40.616 166.253 40.2107 167.555 39.4C167.981 39.1013 168.397 38.7707 168.803 38.408C169.229 38.024 169.571 37.64 169.827 37.256C170.104 36.872 170.243 36.5307 170.243 36.232C170.243 35.9547 170.019 35.816 169.571 35.816C168.931 35.816 168.035 36.296 166.883 37.256C166.328 37.7253 165.795 38.2373 165.283 38.792C164.771 39.3467 164.333 39.9333 163.971 40.552C164.099 40.5947 164.237 40.616 164.387 40.616ZM172.925 45.16C172.285 45.16 171.741 44.9893 171.293 44.648C170.845 44.2853 170.589 43.848 170.525 43.336C170.44 42.6533 170.536 41.9707 170.813 41.288C171.112 40.584 171.507 39.912 171.997 39.272C172.509 38.632 173.053 38.0347 173.629 37.48C175.891 35.2187 177.928 34.088 179.741 34.088C180.36 34.088 180.776 34.248 180.989 34.568C181.075 34.6747 181.171 34.92 181.277 35.304C183.667 31.4213 185.331 29.48 186.269 29.48C186.483 29.48 186.707 29.5333 186.941 29.64C187.176 29.7467 187.293 29.8853 187.293 30.056C187.293 30.1627 187.24 30.3013 187.133 30.472C186.493 31.2613 185.853 32.0507 185.213 32.84C184.573 33.608 183.944 34.3867 183.325 35.176C182.28 36.4987 181.437 37.6507 180.797 38.632C180.157 39.6133 179.699 40.4453 179.421 41.128C179.336 41.3413 179.251 41.608 179.165 41.928C179.101 42.2267 179.069 42.536 179.069 42.856C179.069 43.2613 179.155 43.6133 179.325 43.912C179.496 44.2107 179.805 44.36 180.253 44.36C180.957 44.36 181.821 44.0187 182.845 43.336C183.869 42.6533 185.064 41.5333 186.429 39.976C186.515 39.8907 186.589 39.816 186.653 39.752C186.739 39.688 186.824 39.6453 186.909 39.624C187.101 39.5813 187.197 39.624 187.197 39.752C187.197 39.816 187.133 39.9333 187.005 40.104C186.344 40.8933 185.608 41.672 184.797 42.44C183.987 43.208 183.155 43.848 182.301 44.36C181.469 44.8507 180.691 45.096 179.965 45.096C179.24 45.096 178.728 44.8507 178.429 44.36C178.131 43.8693 177.981 43.3147 177.981 42.696C177.981 42.056 178.099 41.4693 178.333 40.936L175.741 43.528C175.165 44.104 174.632 44.52 174.141 44.776C173.672 45.032 173.267 45.16 172.925 45.16ZM172.637 44.456C173.555 44.456 175.08 43.1973 177.213 40.68C177.32 40.552 177.693 40.0827 178.333 39.272C178.973 38.44 179.88 37.2347 181.053 35.656C180.904 35.4 180.648 35.272 180.285 35.272C178.963 35.272 177.192 36.3173 174.973 38.408C172.883 40.3493 171.837 41.9813 171.837 43.304C171.837 44.072 172.104 44.456 172.637 44.456ZM216.255 47.112C215.657 47.112 215.199 46.8773 214.879 46.408C214.559 45.9387 214.399 45.384 214.399 44.744C214.399 43.5067 214.964 41.8213 216.095 39.688C215.305 39.752 214.516 39.784 213.727 39.784C213.151 39.784 212.063 39.752 210.463 39.688L206.367 39.56C204.873 41.9493 203.657 44.1253 202.719 46.088C202.441 46.664 202.068 46.952 201.599 46.952C201.279 46.952 201.119 46.8027 201.119 46.504C201.119 46.2907 201.183 46.056 201.311 45.8C201.673 45.0107 202.143 44.0933 202.719 43.048C203.316 42.0027 204.009 40.8293 204.799 39.528C203.049 39.528 201.887 39.6027 201.311 39.752C200.351 39.9867 199.636 40.4667 199.167 41.192C198.996 41.4267 198.857 41.5547 198.751 41.576C198.623 41.5973 198.559 41.544 198.559 41.416C198.559 41.3093 198.601 41.2133 198.687 41.128C199.497 40.04 200.319 39.2827 201.151 38.856C202.004 38.408 203.487 38.216 205.599 38.28C206.921 36.296 208.745 33.352 211.071 29.448C211.945 27.8053 212.383 26.472 212.383 25.448C212.383 23.784 211.263 22.952 209.023 22.952C206.292 22.952 203.753 23.6667 201.407 25.096C200.169 25.864 199.007 26.8347 197.919 28.008C196.831 29.16 195.956 30.3973 195.295 31.72C194.633 33.0213 194.303 34.3013 194.303 35.56C194.303 37.544 195.231 38.536 197.087 38.536C197.919 38.536 198.655 38.344 199.295 37.96C199.935 37.5547 200.5 37.0427 200.991 36.424C201.951 35.2293 202.431 34.0453 202.431 32.872C202.431 32.2107 202.26 31.6667 201.919 31.24C201.876 31.1973 201.855 31.144 201.855 31.08C201.855 30.9307 201.94 30.856 202.111 30.856C202.217 30.856 202.281 30.888 202.303 30.952C202.729 31.5067 202.943 32.168 202.943 32.936C202.943 34.2373 202.409 35.5707 201.343 36.936C200.681 37.7467 199.999 38.344 199.295 38.728C198.612 39.0907 197.823 39.272 196.927 39.272C195.583 39.272 194.537 38.856 193.791 38.024C193.044 37.1707 192.671 36.0827 192.671 34.76C192.671 32.968 193.204 31.272 194.271 29.672C195.359 28.072 196.724 26.696 198.367 25.544C201.609 23.2613 205.225 22.1733 209.215 22.28C210.068 22.3013 210.868 22.4613 211.615 22.76C212.361 23.0373 212.959 23.4533 213.407 24.008C213.876 24.5413 214.111 25.2133 214.111 26.024C214.111 27.048 213.716 28.1893 212.927 29.448L207.135 38.344C207.561 38.3653 208.116 38.408 208.799 38.472C209.481 38.5147 210.292 38.5893 211.231 38.696C212.02 38.7813 212.681 38.8453 213.215 38.888C213.748 38.9093 214.153 38.92 214.431 38.92C214.921 38.92 215.337 38.92 215.679 38.92C216.041 38.92 216.329 38.9093 216.543 38.888L217.759 36.872C218.825 35.1013 219.935 33.4267 221.087 31.848C222.26 30.248 223.476 28.744 224.735 27.336C227.593 24.1787 230.036 22.2373 232.062 21.512C232.127 21.4907 232.201 21.48 232.287 21.48C232.415 21.48 232.479 21.5653 232.479 21.736C232.479 21.8 232.447 21.8533 232.383 21.896C231.721 22.2587 230.911 22.8987 229.951 23.816C229.012 24.712 227.913 25.8853 226.655 27.336C224.009 30.3867 221.759 33.4693 219.903 36.584L218.655 38.696C219.636 38.568 220.34 38.3227 220.767 37.96C220.852 37.896 220.927 37.928 220.991 38.056C221.055 38.2053 221.044 38.312 220.959 38.376C220.319 38.8667 219.412 39.2187 218.239 39.432C216.745 42.2053 215.999 44.1573 215.999 45.288C215.999 46.0133 216.308 46.376 216.927 46.376C217.353 46.376 217.844 46.2267 218.399 45.928C218.975 45.6507 219.433 45.3307 219.775 44.968C219.817 44.9253 219.849 44.904 219.871 44.904C219.935 44.904 219.967 44.968 219.967 45.096C219.945 45.2453 219.892 45.3627 219.807 45.448C219.551 45.704 219.209 45.96 218.783 46.216C218.356 46.472 217.908 46.6853 217.439 46.856C216.991 47.0267 216.596 47.112 216.255 47.112ZM223.876 45.064C223.343 45.064 222.927 44.8187 222.628 44.328C222.329 43.816 222.18 43.3253 222.18 42.856C222.18 41.576 223.108 39.784 224.964 37.48C226.841 35.1547 228.356 33.992 229.508 33.992C230.596 33.992 231.14 34.568 231.14 35.72C231.14 35.8907 231.119 36.072 231.076 36.264C231.055 36.456 231.023 36.6587 230.98 36.872C231.023 36.936 231.129 36.968 231.3 36.968C231.876 36.968 232.559 36.7653 233.348 36.36C233.327 36.7227 232.484 37.2453 230.82 37.928C231.055 38.632 230.351 39.976 228.708 41.96C227.023 44.0293 225.583 45.064 224.388 45.064H223.876ZM224.452 44.104C225.369 44.104 226.543 43.2613 227.972 41.576C229.359 39.9333 230.052 38.7493 230.052 38.024C229.711 37.832 229.284 37.3413 228.772 36.552C228.047 36.552 227.001 37.4267 225.636 39.176C224.292 40.8827 223.641 42.1947 223.684 43.112C223.705 43.7733 223.961 44.104 224.452 44.104ZM239.052 45.064C238.54 45.064 238.284 44.776 238.284 44.2C238.519 43.0053 238.999 41.6613 239.724 40.168C240.065 39.4427 240.407 38.728 240.748 38.024C241.111 37.32 241.463 36.6053 241.804 35.88C241.015 36.4133 240.225 37.0107 239.436 37.672C238.647 38.312 237.879 39.0373 237.132 39.848C236.257 40.7867 235.244 41.992 234.092 43.464C233.26 44.5093 232.78 45.032 232.652 45.032C232.353 45.032 232.108 44.8933 231.916 44.616C231.724 44.3387 231.628 44.104 231.628 43.912C231.628 43.6347 231.873 42.92 232.364 41.768C232.513 41.4053 232.663 41.0533 232.812 40.712C232.983 40.3493 233.143 39.9973 233.292 39.656L231.372 41.672C231.329 41.7147 231.201 41.8427 230.988 42.056C230.775 42.2693 230.604 42.376 230.476 42.376C230.369 42.376 230.316 42.3013 230.316 42.152C230.316 42.1093 230.337 42.056 230.38 41.992C230.401 41.9067 230.465 41.8107 230.572 41.704C230.892 41.384 231.223 41.0427 231.564 40.68C231.905 40.3173 232.257 39.9013 232.62 39.432C232.897 39.0693 233.292 38.536 233.804 37.832C234.337 37.1067 234.988 36.2 235.756 35.112C235.991 34.792 236.321 34.632 236.748 34.632C237.175 34.632 237.388 34.8347 237.388 35.24C237.388 35.3893 236.844 36.3813 235.756 38.216C235.201 39.1973 234.753 39.9973 234.412 40.616C234.092 41.2347 233.889 41.6933 233.804 41.992C234.273 41.48 234.828 40.904 235.468 40.264C236.129 39.624 236.887 38.9093 237.74 38.12C240.364 35.688 242.092 34.472 242.924 34.472C243.159 34.472 243.383 34.5467 243.596 34.696C243.831 34.8453 243.948 35.0373 243.948 35.272C243.948 35.3787 243.532 36.1573 242.7 37.608C241.889 39.08 241.441 39.9547 241.356 40.232C243.724 38.248 244.908 37.2453 244.908 37.224C246.913 35.6667 248.353 34.888 249.228 34.888C249.484 34.888 249.719 34.9733 249.932 35.144C250.167 35.2933 250.284 35.4747 250.284 35.688C250.284 35.7307 249.601 36.6267 248.236 38.376C246.828 40.1467 246.039 41.5973 245.868 42.728C245.783 43.496 246.177 43.88 247.052 43.88C247.585 43.88 248.332 43.5387 249.292 42.856C250.252 42.1733 251.255 41.2347 252.3 40.04C252.428 39.8907 252.567 39.752 252.716 39.624C252.865 39.4747 252.993 39.4 253.1 39.4C253.228 39.4 253.292 39.4533 253.292 39.56C253.292 39.7093 253.196 39.88 253.004 40.072C252.449 40.7333 251.788 41.416 251.02 42.12C250.273 42.824 249.527 43.4213 248.78 43.912C248.033 44.3813 247.372 44.616 246.796 44.616C245.345 44.616 244.62 43.944 244.62 42.6C244.62 42.1307 244.748 41.5867 245.004 40.968C245.26 40.328 245.516 39.752 245.772 39.24C246.391 38.0453 247.063 36.9893 247.788 36.072C247.105 36.4133 246.391 36.8613 245.644 37.416C244.919 37.9707 244.161 38.6213 243.372 39.368C241.537 41.16 240.279 42.9733 239.596 44.808C239.489 44.9787 239.308 45.064 239.052 45.064ZM253.32 45.416C252.637 45.416 252.018 45.2027 251.463 44.776C250.909 44.328 250.632 43.7413 250.632 43.016C250.632 41.5013 251.56 39.7733 253.416 37.832C255.314 35.8693 257.01 34.888 258.504 34.888C258.994 34.888 259.389 35.0267 259.688 35.304C260.008 35.56 260.168 35.88 260.168 36.264C260.168 37.4587 259.218 38.632 257.32 39.784C255.634 40.808 254.216 41.32 253.064 41.32C252.893 41.32 252.744 41.2987 252.616 41.256C252.296 41.832 252.136 42.44 252.136 43.08C252.136 44.1893 252.658 44.744 253.704 44.744C254.77 44.744 256.146 44.0293 257.832 42.6C259.133 41.5547 260.242 40.4453 261.16 39.272C261.352 39.016 261.522 38.888 261.672 38.888C261.8 38.888 261.864 38.952 261.864 39.08C261.864 39.208 261.778 39.3893 261.608 39.624C261.01 40.4133 260.37 41.1387 259.688 41.8C259.005 42.4613 258.269 43.0693 257.48 43.624C255.837 44.8187 254.45 45.416 253.32 45.416ZM253.512 40.616C254.322 40.616 255.378 40.2107 256.68 39.4C257.106 39.1013 257.522 38.7707 257.928 38.408C258.354 38.024 258.696 37.64 258.952 37.256C259.229 36.872 259.368 36.5307 259.368 36.232C259.368 35.9547 259.144 35.816 258.696 35.816C258.056 35.816 257.16 36.296 256.008 37.256C255.453 37.7253 254.92 38.2373 254.408 38.792C253.896 39.3467 253.458 39.9333 253.096 40.552C253.224 40.5947 253.362 40.616 253.512 40.616Z" fill="black"/>
<path d="M13.8533 32.16C13.2666 32.16 12.6933 31.7333 12.1333 30.88C11.5466 30 11.2533 29.0133 11.2533 27.92C11.2533 26.4533 11.7066 24.9733 12.6133 23.48C13.5466 21.96 14.4533 21.2 15.3333 21.2V22.04C14.4266 22.5733 13.8666 23.8133 13.6533 25.76C13.6533 27.28 14.4933 28.32 16.1733 28.88V29.72L13.8533 32.16ZM20.7333 32.16C20.1466 32.16 19.5733 31.7333 19.0133 30.88C18.4266 30 18.1333 29.0133 18.1333 27.92C18.1333 26.5067 18.5999 25.0267 19.5333 23.48C20.4666 21.96 21.3733 21.2 22.2533 21.2V22.04C21.3199 22.6 20.7466 23.84 20.5333 25.76C20.5333 27.28 21.3733 28.32 23.0533 28.88V29.72L20.7333 32.16Z" fill="black"/>
<path d="M290.147 31.16C290.733 31.16 291.307 30.7333 291.867 29.88C292.453 29 292.747 28.0133 292.747 26.92C292.747 25.4533 292.293 23.9733 291.387 22.48C290.453 20.96 289.547 20.2 288.667 20.2V21.04C289.573 21.5733 290.133 22.8133 290.347 24.76C290.347 26.28 289.507 27.32 287.827 27.88V28.72L290.147 31.16ZM283.267 31.16C283.853 31.16 284.427 30.7333 284.987 29.88C285.573 29 285.867 28.0133 285.867 26.92C285.867 25.5067 285.4 24.0267 284.467 22.48C283.533 20.96 282.627 20.2 281.747 20.2V21.04C282.68 21.6 283.253 22.84 283.467 24.76C283.467 26.28 282.627 27.32 280.947 27.88V28.72L283.267 31.16Z" fill="black"/>
</svg>
