<svg width="340" height="70" viewBox="0 0 340 70" fill="none" xmlns="http://www.w3.org/2000/svg">
<path d="M28.6133 23.064C28.3999 23.064 28.1119 22.9467 27.7493 22.712C27.3653 22.4773 27.1733 22.2533 27.1733 22.04C27.1733 21.528 27.8026 19.8853 29.0613 17.112C30.4053 14.1467 31.3973 12.664 32.0373 12.664C32.2933 12.664 32.5066 12.7813 32.6773 13.016C32.8693 13.2507 32.9653 13.4427 32.9653 13.592C32.9653 13.656 32.3786 14.7227 31.2053 16.792C30.0533 18.8827 29.4879 20.1413 29.5093 20.568C30.0639 19.9067 30.6079 19.256 31.1413 18.616C31.6746 17.976 32.2079 17.3253 32.7413 16.664C34.8106 14.2747 36.1653 13.08 36.8053 13.08C37.0399 13.08 37.2639 13.1867 37.4773 13.4C37.7119 13.592 37.8293 13.784 37.8293 13.976C37.8293 14.104 37.5626 14.5093 37.0293 15.192C36.4106 16.0453 35.8773 16.856 35.4293 17.624C35.0026 18.392 34.7893 19.1707 34.7893 19.96C34.7893 21.304 35.2373 21.976 36.1333 21.976C36.9226 21.976 37.5839 21.7733 38.1173 21.368C38.6719 20.9627 39.2373 20.2267 39.8133 19.16C40.2399 18.3707 40.5599 17.6347 40.7733 16.952C41.0079 16.248 41.1253 15.6293 41.1253 15.096C41.1253 14.6267 41.0826 14.232 40.9973 13.912C40.9333 13.592 40.8373 13.3253 40.7093 13.112C40.6666 13.0693 40.6453 13.016 40.6453 12.952C40.6453 12.824 40.7093 12.76 40.8373 12.76C40.9653 12.76 41.1039 12.8027 41.2533 12.888C41.4239 12.952 41.5839 13.144 41.7333 13.464C41.8399 13.6347 41.9253 13.9547 41.9893 14.424C42.0746 14.8933 42.1173 15.2773 42.1173 15.576C42.1173 17.112 41.4666 18.6587 40.1653 20.216C38.7999 21.88 37.3279 22.712 35.7493 22.712C35.2159 22.712 34.7573 22.5413 34.3733 22.2C34.0106 21.8373 33.7333 21.4 33.5413 20.888C33.3493 20.3547 33.2533 19.832 33.2533 19.32C33.2533 18.5947 33.4239 17.6773 33.7653 16.568C33.4879 16.8453 33.1253 17.24 32.6773 17.752C32.2506 18.2427 31.7599 18.84 31.2053 19.544C30.5866 20.3333 30.0533 21.016 29.6053 21.592C29.1786 22.168 28.8479 22.6587 28.6133 23.064Z" fill="black"/>
<path d="M41.2923 23.16C40.6736 23.16 40.3643 22.9787 40.3643 22.616C40.3643 22.4027 40.4923 22.0613 40.7483 21.592C41.7296 19.8427 42.6043 18.296 43.3723 16.952C44.1616 15.5867 44.8549 14.4347 45.4523 13.496C47.9909 9.42133 49.7829 7.21333 50.8283 6.872C50.8709 6.872 50.9029 6.872 50.9243 6.872C50.9456 6.85067 50.9669 6.84 50.9883 6.84C51.2656 6.84 51.4469 7.064 51.5323 7.512C51.4683 7.96 50.3589 9.58133 48.2043 12.376C47.0736 13.8053 46.1883 14.9893 45.5483 15.928C44.9296 16.8453 44.5456 17.5173 44.3963 17.944C45.1003 17.432 45.8576 16.888 46.6683 16.312C47.4789 15.736 48.2683 15.192 49.0363 14.68C49.8043 14.1467 50.4976 13.72 51.1163 13.4C51.7349 13.0587 52.2149 12.8667 52.5563 12.824C52.5989 12.824 52.6523 12.824 52.7163 12.824C52.7803 12.8027 52.8229 12.792 52.8443 12.792C53.4416 12.792 53.7403 13.0693 53.7403 13.624C53.7403 13.7733 53.5483 14.104 53.1643 14.616C52.7803 15.128 52.1936 15.9173 51.4043 16.984C49.9963 18.8613 49.2923 20.2693 49.2923 21.208C49.2923 21.6987 49.4736 21.944 49.8363 21.944C50.2203 21.9227 50.6576 21.752 51.1483 21.432C51.6603 21.112 52.1723 20.7173 52.6843 20.248C53.1963 19.7787 53.6549 19.32 54.0603 18.872C54.4869 18.4027 54.8069 18.04 55.0203 17.784C55.2123 17.592 55.3616 17.496 55.4683 17.496C55.5536 17.496 55.5963 17.5387 55.5963 17.624C55.5963 17.7947 55.5109 17.9973 55.3403 18.232C55.0843 18.552 54.7003 18.968 54.1883 19.48C53.6976 19.992 53.1536 20.5147 52.5563 21.048C51.9803 21.56 51.4256 21.9973 50.8923 22.36C50.3803 22.7013 49.9963 22.872 49.7403 22.872C48.4816 22.872 47.8523 22.136 47.8523 20.664C47.8523 19.832 48.2363 18.744 49.0043 17.4C49.3029 16.888 49.6123 16.376 49.9323 15.864C50.2523 15.352 50.5723 14.84 50.8923 14.328C48.1616 15.6933 45.6869 17.7093 43.4683 20.376C43.1909 20.76 42.9029 21.176 42.6043 21.624C42.3056 22.0507 42.0389 22.4133 41.8043 22.712C41.5696 23.0107 41.3989 23.16 41.2923 23.16Z" fill="black"/>
<path d="M55.8195 23.416C55.1368 23.416 54.5182 23.2027 53.9635 22.776C53.4088 22.328 53.1315 21.7413 53.1315 21.016C53.1315 19.5013 54.0595 17.7733 55.9155 15.832C57.8142 13.8693 59.5102 12.888 61.0035 12.888C61.4942 12.888 61.8888 13.0267 62.1875 13.304C62.5075 13.56 62.6675 13.88 62.6675 14.264C62.6675 15.4587 61.7182 16.632 59.8195 17.784C58.1342 18.808 56.7155 19.32 55.5635 19.32C55.3928 19.32 55.2435 19.2987 55.1155 19.256C54.7955 19.832 54.6355 20.44 54.6355 21.08C54.6355 22.1893 55.1582 22.744 56.2035 22.744C57.2702 22.744 58.6462 22.0293 60.3315 20.6C61.6329 19.5547 62.7422 18.4453 63.6595 17.272C63.8515 17.016 64.0222 16.888 64.1715 16.888C64.2995 16.888 64.3635 16.952 64.3635 17.08C64.3635 17.208 64.2782 17.3893 64.1075 17.624C63.5102 18.4133 62.8702 19.1387 62.1875 19.8C61.5048 20.4613 60.7688 21.0693 59.9795 21.624C58.3368 22.8187 56.9502 23.416 55.8195 23.416ZM56.0115 18.616C56.8222 18.616 57.8782 18.2107 59.1795 17.4C59.6062 17.1013 60.0222 16.7707 60.4275 16.408C60.8542 16.024 61.1955 15.64 61.4515 15.256C61.7288 14.872 61.8675 14.5307 61.8675 14.232C61.8675 13.9547 61.6435 13.816 61.1955 13.816C60.5555 13.816 59.6595 14.296 58.5075 15.256C57.9528 15.7253 57.4195 16.2373 56.9075 16.792C56.3955 17.3467 55.9582 17.9333 55.5955 18.552C55.7235 18.5947 55.8622 18.616 56.0115 18.616Z" fill="black"/>
<path d="M68.9343 23.16C68.0169 23.16 67.3876 22.9253 67.0463 22.456C66.7049 21.9653 66.5343 21.3147 66.5343 20.504C66.5343 19.608 66.8116 18.5413 67.3663 17.304C67.5796 16.8133 67.8036 16.376 68.0383 15.992C68.2729 15.5867 68.5183 15.2133 68.7743 14.872C68.6889 14.8933 68.6143 14.904 68.5503 14.904C68.4863 14.904 68.4223 14.904 68.3583 14.904C67.8463 14.904 67.4196 14.5413 67.0783 13.816L64.7103 16.888C63.4516 18.5307 62.6836 19.352 62.4063 19.352C62.2996 19.352 62.2463 19.3093 62.2463 19.224C62.2463 19.1173 62.2996 18.9787 62.4063 18.808C62.4703 18.68 62.5983 18.5093 62.7903 18.296C63.6009 17.3573 64.3476 16.4293 65.0303 15.512C65.7129 14.5947 66.2783 13.6987 66.7263 12.824C67.2169 10.968 67.8356 10.04 68.5823 10.04C69.0729 10.04 69.3183 10.264 69.3183 10.712C69.3183 11.1173 69.0516 11.6507 68.5183 12.312C68.0063 12.9733 67.7503 13.3147 67.7503 13.336C67.7503 13.784 68.0809 14.008 68.7423 14.008C69.1263 14.008 69.5529 13.8693 70.0223 13.592L70.8543 13.08C70.8969 13.0587 70.9609 13.048 71.0463 13.048C71.3023 13.048 71.5263 13.1547 71.7183 13.368C71.9103 13.5813 71.9743 13.7733 71.9103 13.944L69.7023 16.728C68.3369 18.4773 67.6543 19.8853 67.6543 20.952C67.6543 21.912 68.1236 22.392 69.0623 22.392C69.7023 22.392 70.3849 22.2 71.1103 21.816C71.8569 21.432 72.5716 20.9627 73.2543 20.408C73.9583 19.832 74.5449 19.2773 75.0143 18.744L75.7823 17.848C75.8249 17.8053 75.8783 17.752 75.9423 17.688C76.0063 17.624 76.0596 17.592 76.1023 17.592C76.2516 17.592 76.3263 17.6667 76.3263 17.816C76.3263 17.8587 76.3049 17.9333 76.2623 18.04C76.2196 18.1467 76.1449 18.264 76.0383 18.392L75.0143 19.544C74.5236 20.0987 73.9156 20.664 73.1903 21.24C72.4863 21.7947 71.7503 22.2533 70.9823 22.616C70.2356 22.9787 69.5529 23.16 68.9343 23.16Z" fill="black"/>
<path d="M76.632 23.416C75.9493 23.416 75.3307 23.2027 74.776 22.776C74.2213 22.328 73.944 21.7413 73.944 21.016C73.944 19.5013 74.872 17.7733 76.728 15.832C78.6267 13.8693 80.3227 12.888 81.816 12.888C82.3067 12.888 82.7013 13.0267 83 13.304C83.32 13.56 83.48 13.88 83.48 14.264C83.48 15.4587 82.5307 16.632 80.632 17.784C78.9467 18.808 77.528 19.32 76.376 19.32C76.2053 19.32 76.056 19.2987 75.928 19.256C75.608 19.832 75.448 20.44 75.448 21.08C75.448 22.1893 75.9707 22.744 77.016 22.744C78.0827 22.744 79.4587 22.0293 81.144 20.6C82.4453 19.5547 83.5547 18.4453 84.472 17.272C84.664 17.016 84.8347 16.888 84.984 16.888C85.112 16.888 85.176 16.952 85.176 17.08C85.176 17.208 85.0907 17.3893 84.92 17.624C84.3227 18.4133 83.6827 19.1387 83 19.8C82.3173 20.4613 81.5813 21.0693 80.792 21.624C79.1493 22.8187 77.7627 23.416 76.632 23.416ZM76.824 18.616C77.6347 18.616 78.6907 18.2107 79.992 17.4C80.4187 17.1013 80.8347 16.7707 81.24 16.408C81.6667 16.024 82.008 15.64 82.264 15.256C82.5413 14.872 82.68 14.5307 82.68 14.232C82.68 13.9547 82.456 13.816 82.008 13.816C81.368 13.816 80.472 14.296 79.32 15.256C78.7653 15.7253 78.232 16.2373 77.72 16.792C77.208 17.3467 76.7707 17.9333 76.408 18.552C76.536 18.5947 76.6747 18.616 76.824 18.616Z" fill="black"/>
<path d="M91.5465 23.192C90.8638 23.192 90.3198 23.032 89.9145 22.712C89.5305 22.3707 89.3385 21.7733 89.3385 20.92C89.3385 20.4293 89.4878 19.8107 89.7865 19.064C90.0852 18.296 90.4585 17.4747 90.9065 16.6C91.3545 15.7253 91.8025 14.8613 92.2505 14.008C91.9732 14.072 91.7278 14.104 91.5145 14.104C90.8745 14.104 90.5545 13.8587 90.5545 13.368C90.5545 13.1333 90.6398 12.952 90.8105 12.824C91.0025 12.696 91.1732 12.6213 91.3225 12.6C91.3225 12.6 91.3438 12.6 91.3865 12.6C91.4505 12.6 91.5252 12.5893 91.6105 12.568H93.4665C93.8505 12.0773 94.2452 11.5547 94.6505 11C95.2265 10.2747 95.6852 9.848 96.0265 9.72H96.1225C96.2718 9.72 96.4852 9.79467 96.7625 9.944C97.1038 10.136 97.2745 10.328 97.2745 10.52C97.2745 10.7973 96.7625 11.512 95.7385 12.664C95.9305 12.6853 96.2079 12.696 96.5705 12.696C96.9332 12.696 97.3812 12.696 97.9145 12.696C98.1705 12.696 98.5332 12.696 99.0025 12.696C99.4932 12.696 99.9945 12.696 100.507 12.696C101.04 12.6747 101.499 12.664 101.883 12.664C102.267 12.6427 102.48 12.632 102.523 12.632C102.587 12.6533 102.619 12.6853 102.619 12.728C102.619 12.92 101.36 13.176 98.8425 13.496C97.4132 13.688 96.3145 13.8373 95.5465 13.944C94.7998 14.0507 94.3945 14.1147 94.3305 14.136C94.0318 14.392 93.6692 14.8293 93.2425 15.448C92.8158 16.0667 92.3892 16.76 91.9625 17.528C91.5359 18.296 91.1732 19.032 90.8745 19.736C90.5972 20.4187 90.4585 20.952 90.4585 21.336C90.4585 21.6773 90.5865 21.9653 90.8425 22.2C91.0985 22.4133 91.5145 22.52 92.0905 22.52C92.4745 22.52 92.9332 22.4347 93.4665 22.264C93.9998 22.0933 94.5012 21.9013 94.9705 21.688C95.4612 21.4533 95.8132 21.272 96.0265 21.144C96.5812 20.8027 97.1892 20.3547 97.8505 19.8C98.5332 19.224 99.2052 18.5733 99.8665 17.848C100.165 17.5493 100.368 17.4 100.475 17.4C100.539 17.4 100.571 17.4427 100.571 17.528C100.571 17.6987 100.411 17.976 100.091 18.36C99.5785 18.9787 99.0025 19.576 98.3625 20.152C97.7439 20.7067 97.0505 21.2187 96.2825 21.688C95.4078 22.2213 94.5652 22.6053 93.7545 22.84C92.9652 23.0747 92.2292 23.192 91.5465 23.192Z" fill="black"/>
<path d="M105.591 23.16C104.673 23.16 104.044 22.9253 103.703 22.456C103.361 21.9653 103.191 21.3147 103.191 20.504C103.191 19.608 103.468 18.5413 104.023 17.304C104.236 16.8133 104.46 16.376 104.695 15.992C104.929 15.5867 105.175 15.2133 105.431 14.872C105.345 14.8933 105.271 14.904 105.207 14.904C105.143 14.904 105.079 14.904 105.015 14.904C104.503 14.904 104.076 14.5413 103.735 13.816L101.367 16.888C100.108 18.5307 99.3398 19.352 99.0625 19.352C98.9558 19.352 98.9025 19.3093 98.9025 19.224C98.9025 19.1173 98.9558 18.9787 99.0625 18.808C99.1265 18.68 99.2545 18.5093 99.4465 18.296C100.257 17.3573 101.004 16.4293 101.687 15.512C102.369 14.5947 102.935 13.6987 103.383 12.824C103.873 10.968 104.492 10.04 105.239 10.04C105.729 10.04 105.975 10.264 105.975 10.712C105.975 11.1173 105.708 11.6507 105.175 12.312C104.663 12.9733 104.407 13.3147 104.407 13.336C104.407 13.784 104.737 14.008 105.399 14.008C105.783 14.008 106.209 13.8693 106.679 13.592L107.511 13.08C107.553 13.0587 107.617 13.048 107.703 13.048C107.959 13.048 108.183 13.1547 108.375 13.368C108.567 13.5813 108.631 13.7733 108.567 13.944L106.359 16.728C104.993 18.4773 104.311 19.8853 104.311 20.952C104.311 21.912 104.78 22.392 105.719 22.392C106.359 22.392 107.041 22.2 107.767 21.816C108.513 21.432 109.228 20.9627 109.911 20.408C110.615 19.832 111.201 19.2773 111.671 18.744L112.439 17.848C112.481 17.8053 112.535 17.752 112.599 17.688C112.663 17.624 112.716 17.592 112.759 17.592C112.908 17.592 112.983 17.6667 112.983 17.816C112.983 17.8587 112.961 17.9333 112.919 18.04C112.876 18.1467 112.801 18.264 112.695 18.392L111.671 19.544C111.18 20.0987 110.572 20.664 109.847 21.24C109.143 21.7947 108.407 22.2533 107.639 22.616C106.892 22.9787 106.209 23.16 105.591 23.16Z" fill="black"/>
<path d="M113.8 23.16C113.288 23.16 112.776 22.9787 112.264 22.616C111.752 22.2533 111.464 21.8267 111.4 21.336C111.187 19.6933 112.222 17.7413 114.504 15.48C116.766 13.2187 118.803 12.088 120.616 12.088C121.107 12.088 121.491 12.2053 121.768 12.44C121.918 12.5893 122.024 12.792 122.088 13.048C122.174 13.304 122.238 13.432 122.28 13.432C122.366 13.432 122.44 13.4213 122.504 13.4C122.568 13.3573 122.643 13.336 122.728 13.336C122.984 13.336 123.208 13.432 123.4 13.624C123.592 13.816 123.699 13.9867 123.72 14.136C123.742 14.1787 123.059 15.2347 121.672 17.304C120.286 19.3307 119.656 20.7067 119.784 21.432C119.891 21.9227 120.126 22.168 120.488 22.168C121.598 22.168 123.624 20.3333 126.568 16.664C126.632 16.5787 126.696 16.536 126.76 16.536C126.867 16.536 126.92 16.6107 126.92 16.76C126.92 16.9307 126.824 17.144 126.632 17.4C123.923 21.048 121.843 22.872 120.392 22.872C120.2 22.872 120.019 22.84 119.848 22.776C118.91 22.4133 118.44 21.7093 118.44 20.664C118.44 20.3013 118.483 19.9387 118.568 19.576L116.584 21.496C115.987 22.0933 115.443 22.52 114.952 22.776C114.483 23.032 114.099 23.16 113.8 23.16ZM113.512 22.456C114.75 22.456 116.435 21.1013 118.568 18.392L121.96 13.72C121.79 13.4213 121.512 13.272 121.128 13.272C119.827 13.272 118.067 14.3173 115.848 16.408C113.544 18.5413 112.51 20.3013 112.744 21.688C112.851 22.2 113.107 22.456 113.512 22.456Z" fill="black"/>
<path d="M126.988 23.16C126.348 23.16 125.804 22.9893 125.356 22.648C124.908 22.2853 124.652 21.848 124.588 21.336C124.502 20.6533 124.598 19.9707 124.876 19.288C125.174 18.584 125.569 17.912 126.06 17.272C126.572 16.632 127.116 16.0347 127.692 15.48C129.953 13.2187 131.99 12.088 133.804 12.088C134.422 12.088 134.838 12.248 135.052 12.568C135.137 12.6747 135.233 12.92 135.34 13.304C137.729 9.42133 139.393 7.48 140.332 7.48C140.545 7.48 140.769 7.53333 141.004 7.64C141.238 7.74666 141.356 7.88533 141.356 8.056C141.356 8.16266 141.302 8.30133 141.196 8.472C140.556 9.26133 139.916 10.0507 139.276 10.84C138.636 11.608 138.006 12.3867 137.388 13.176C136.342 14.4987 135.5 15.6507 134.86 16.632C134.22 17.6133 133.761 18.4453 133.484 19.128C133.398 19.3413 133.313 19.608 133.228 19.928C133.164 20.2267 133.132 20.536 133.132 20.856C133.132 21.2613 133.217 21.6133 133.388 21.912C133.558 22.2107 133.868 22.36 134.316 22.36C135.02 22.36 135.884 22.0187 136.908 21.336C137.932 20.6533 139.126 19.5333 140.492 17.976C140.577 17.8907 140.652 17.816 140.716 17.752C140.801 17.688 140.886 17.6453 140.972 17.624C141.164 17.5813 141.26 17.624 141.26 17.752C141.26 17.816 141.196 17.9333 141.068 18.104C140.406 18.8933 139.67 19.672 138.86 20.44C138.049 21.208 137.217 21.848 136.364 22.36C135.532 22.8507 134.753 23.096 134.028 23.096C133.302 23.096 132.79 22.8507 132.492 22.36C132.193 21.8693 132.044 21.3147 132.044 20.696C132.044 20.056 132.161 19.4693 132.396 18.936L129.804 21.528C129.228 22.104 128.694 22.52 128.204 22.776C127.734 23.032 127.329 23.16 126.988 23.16ZM126.7 22.456C127.617 22.456 129.142 21.1973 131.276 18.68C131.382 18.552 131.756 18.0827 132.396 17.272C133.036 16.44 133.942 15.2347 135.116 13.656C134.966 13.4 134.71 13.272 134.348 13.272C133.025 13.272 131.254 14.3173 129.036 16.408C126.945 18.3493 125.9 19.9813 125.9 21.304C125.9 22.072 126.166 22.456 126.7 22.456Z" fill="black"/>
<path d="M146.853 11.992C146.491 11.992 146.171 11.8747 145.893 11.64C145.637 11.4053 145.509 11.1387 145.509 10.84C145.509 10.2427 145.915 9.944 146.725 9.944C147.024 9.944 147.323 10.0507 147.621 10.264C147.92 10.456 148.069 10.7013 148.069 11C148.069 11.256 147.931 11.4907 147.653 11.704C147.376 11.896 147.109 11.992 146.853 11.992ZM140.933 23.352C140.464 23.352 140.08 23.2027 139.781 22.904C139.461 22.584 139.301 22.0293 139.301 21.24C139.301 20.792 139.408 20.28 139.621 19.704C139.813 19.1067 140.059 18.5093 140.357 17.912C140.677 17.3147 140.987 16.7813 141.285 16.312C142.48 14.3707 143.461 13.3893 144.229 13.368C144.421 13.368 144.656 13.4533 144.933 13.624C145.211 13.7733 145.349 13.944 145.349 14.136C145.349 14.136 144.539 15.1813 142.917 17.272C141.317 19.3413 140.517 20.8133 140.517 21.688C140.517 22.3707 140.784 22.712 141.317 22.712C141.659 22.712 142.096 22.5733 142.629 22.296C143.184 21.9973 143.76 21.624 144.357 21.176C144.955 20.728 145.52 20.248 146.053 19.736C146.608 19.224 147.056 18.7547 147.397 18.328C147.611 18.0507 147.792 17.8587 147.941 17.752C148.112 17.6453 148.219 17.592 148.261 17.592C148.347 17.592 148.389 17.656 148.389 17.784C148.389 17.8907 148.261 18.104 148.005 18.424C147.771 18.744 147.44 19.1173 147.013 19.544C146.501 20.056 145.936 20.6107 145.317 21.208C144.699 21.8053 144.027 22.3173 143.301 22.744C142.576 23.1493 141.787 23.352 140.933 23.352Z" fill="black"/>
<path d="M148.984 23.192C148.301 23.192 147.757 23.032 147.352 22.712C146.968 22.3707 146.776 21.7733 146.776 20.92C146.776 20.4293 146.925 19.8107 147.224 19.064C147.523 18.296 147.896 17.4747 148.344 16.6C148.792 15.7253 149.24 14.8613 149.688 14.008C149.411 14.072 149.165 14.104 148.952 14.104C148.312 14.104 147.992 13.8587 147.992 13.368C147.992 13.1333 148.077 12.952 148.248 12.824C148.44 12.696 148.611 12.6213 148.76 12.6C148.76 12.6 148.781 12.6 148.824 12.6C148.888 12.6 148.963 12.5893 149.048 12.568H150.904C151.288 12.0773 151.683 11.5547 152.088 11C152.664 10.2747 153.123 9.848 153.464 9.72H153.56C153.709 9.72 153.923 9.79467 154.2 9.944C154.541 10.136 154.712 10.328 154.712 10.52C154.712 10.7973 154.2 11.512 153.176 12.664C153.368 12.6853 153.645 12.696 154.008 12.696C154.371 12.696 154.819 12.696 155.352 12.696C155.608 12.696 155.971 12.696 156.44 12.696C156.931 12.696 157.432 12.696 157.944 12.696C158.477 12.6747 158.936 12.664 159.32 12.664C159.704 12.6427 159.917 12.632 159.96 12.632C160.024 12.6533 160.056 12.6853 160.056 12.728C160.056 12.92 158.797 13.176 156.28 13.496C154.851 13.688 153.752 13.8373 152.984 13.944C152.237 14.0507 151.832 14.1147 151.768 14.136C151.469 14.392 151.107 14.8293 150.68 15.448C150.253 16.0667 149.827 16.76 149.4 17.528C148.973 18.296 148.611 19.032 148.312 19.736C148.035 20.4187 147.896 20.952 147.896 21.336C147.896 21.6773 148.024 21.9653 148.28 22.2C148.536 22.4133 148.952 22.52 149.528 22.52C149.912 22.52 150.371 22.4347 150.904 22.264C151.437 22.0933 151.939 21.9013 152.408 21.688C152.899 21.4533 153.251 21.272 153.464 21.144C154.019 20.8027 154.627 20.3547 155.288 19.8C155.971 19.224 156.643 18.5733 157.304 17.848C157.603 17.5493 157.805 17.4 157.912 17.4C157.976 17.4 158.008 17.4427 158.008 17.528C158.008 17.6987 157.848 17.976 157.528 18.36C157.016 18.9787 156.44 19.576 155.8 20.152C155.181 20.7067 154.488 21.2187 153.72 21.688C152.845 22.2213 152.003 22.6053 151.192 22.84C150.403 23.0747 149.667 23.192 148.984 23.192Z" fill="black"/>
<path d="M163.572 11.992C163.209 11.992 162.889 11.8747 162.612 11.64C162.356 11.4053 162.228 11.1387 162.228 10.84C162.228 10.2427 162.633 9.944 163.444 9.944C163.743 9.944 164.041 10.0507 164.34 10.264C164.639 10.456 164.788 10.7013 164.788 11C164.788 11.256 164.649 11.4907 164.372 11.704C164.095 11.896 163.828 11.992 163.572 11.992ZM157.652 23.352C157.183 23.352 156.799 23.2027 156.5 22.904C156.18 22.584 156.02 22.0293 156.02 21.24C156.02 20.792 156.127 20.28 156.34 19.704C156.532 19.1067 156.777 18.5093 157.076 17.912C157.396 17.3147 157.705 16.7813 158.004 16.312C159.199 14.3707 160.18 13.3893 160.948 13.368C161.14 13.368 161.375 13.4533 161.652 13.624C161.929 13.7733 162.068 13.944 162.068 14.136C162.068 14.136 161.257 15.1813 159.636 17.272C158.036 19.3413 157.236 20.8133 157.236 21.688C157.236 22.3707 157.503 22.712 158.036 22.712C158.377 22.712 158.815 22.5733 159.348 22.296C159.903 21.9973 160.479 21.624 161.076 21.176C161.673 20.728 162.239 20.248 162.772 19.736C163.327 19.224 163.775 18.7547 164.116 18.328C164.329 18.0507 164.511 17.8587 164.66 17.752C164.831 17.6453 164.937 17.592 164.98 17.592C165.065 17.592 165.108 17.656 165.108 17.784C165.108 17.8907 164.98 18.104 164.724 18.424C164.489 18.744 164.159 19.1173 163.732 19.544C163.22 20.056 162.655 20.6107 162.036 21.208C161.417 21.8053 160.745 22.3173 160.02 22.744C159.295 23.1493 158.505 23.352 157.652 23.352Z" fill="black"/>
<path d="M165.095 23.064C164.561 23.064 164.145 22.8187 163.847 22.328C163.548 21.816 163.399 21.3253 163.399 20.856C163.399 19.576 164.327 17.784 166.183 15.48C168.06 13.1547 169.575 11.992 170.727 11.992C171.815 11.992 172.359 12.568 172.359 13.72C172.359 13.8907 172.337 14.072 172.295 14.264C172.273 14.456 172.241 14.6587 172.199 14.872C172.241 14.936 172.348 14.968 172.519 14.968C173.095 14.968 173.777 14.7653 174.567 14.36C174.545 14.7227 173.703 15.2453 172.039 15.928C172.273 16.632 171.569 17.976 169.927 19.96C168.241 22.0293 166.801 23.064 165.607 23.064H165.095ZM165.671 22.104C166.588 22.104 167.761 21.2613 169.191 19.576C170.577 17.9333 171.271 16.7493 171.271 16.024C170.929 15.832 170.503 15.3413 169.991 14.552C169.265 14.552 168.22 15.4267 166.855 17.176C165.511 18.8827 164.86 20.1947 164.903 21.112C164.924 21.7733 165.18 22.104 165.671 22.104Z" fill="black"/>
<path d="M180.879 23.064C180.303 23.064 179.897 22.904 179.663 22.584C179.428 22.2427 179.311 21.8267 179.311 21.336C179.311 20.0987 179.737 18.776 180.591 17.368L182.639 14.04C181.188 15.1067 179.748 16.44 178.319 18.04C177.935 18.4667 177.497 18.968 177.007 19.544C176.537 20.12 176.015 20.7813 175.439 21.528C174.671 22.5307 174.212 23.032 174.063 23.032C173.764 23.032 173.519 22.904 173.327 22.648C173.135 22.3707 173.039 22.1253 173.039 21.912C173.039 21.7413 173.092 21.432 173.199 20.984C173.305 20.5147 173.433 20.1093 173.583 19.768C173.732 19.4053 173.881 19.0533 174.031 18.712C174.201 18.3493 174.361 17.9973 174.511 17.656L172.591 19.672C172.548 19.7147 172.42 19.8427 172.207 20.056C171.993 20.2693 171.823 20.376 171.695 20.376C171.588 20.376 171.535 20.3013 171.535 20.152C171.535 20.1093 171.556 20.056 171.599 19.992C171.62 19.9067 171.684 19.8107 171.791 19.704C172.111 19.384 172.441 19.0427 172.783 18.68C173.124 18.3173 173.476 17.9013 173.839 17.432C174.031 17.1973 174.319 16.8453 174.703 16.376C175.087 15.8853 175.503 15.3627 175.951 14.808C176.42 14.2533 176.857 13.7413 177.263 13.272C177.369 13.1227 177.487 13.0267 177.615 12.984C177.743 12.92 177.828 12.888 177.871 12.888C178.447 12.888 178.735 13.112 178.735 13.56C178.735 13.688 178.703 13.816 178.639 13.944C176.719 16.5893 175.567 18.6053 175.183 19.992C177.657 17.5173 179.641 15.6613 181.135 14.424C182.649 13.1653 183.727 12.536 184.367 12.536C184.708 12.536 184.964 12.5893 185.135 12.696C185.327 12.8027 185.423 13.0053 185.423 13.304C185.423 13.4107 185.412 13.496 185.391 13.56C185.327 13.7093 184.889 14.3067 184.079 15.352C183.588 15.9493 183.151 16.4933 182.767 16.984C182.404 17.4747 182.105 17.9013 181.871 18.264C181.487 18.8613 181.199 19.4267 181.007 19.96C180.815 20.472 180.719 20.9093 180.719 21.272C180.719 21.4213 180.74 21.6027 180.783 21.816C180.825 22.0293 180.953 22.136 181.167 22.136C181.657 22.136 182.425 21.7093 183.471 20.856C183.961 20.4293 184.42 20.0027 184.847 19.576C185.273 19.128 185.679 18.6907 186.063 18.264C186.148 18.1787 186.287 18.0187 186.479 17.784C186.671 17.528 186.788 17.4 186.831 17.4C186.916 17.4 186.959 17.4853 186.959 17.656C186.959 17.7413 186.905 17.8907 186.799 18.104C186.713 18.296 186.617 18.4453 186.511 18.552C186.276 18.8293 185.924 19.2133 185.455 19.704C185.007 20.1947 184.495 20.696 183.919 21.208C183.364 21.72 182.82 22.1573 182.287 22.52C181.753 22.8827 181.284 23.064 180.879 23.064Z" fill="black"/>
<path d="M188.345 25.56C188.26 25.5387 188.217 25.5067 188.217 25.464C188.217 25.4427 188.462 25.1547 188.953 24.6C189.444 24.0453 189.657 23.5547 189.593 23.128C189.572 22.8933 189.422 22.6907 189.145 22.52C188.868 22.328 188.729 22.136 188.729 21.944C188.729 21.304 189.038 20.984 189.657 20.984C189.956 20.984 190.254 21.0907 190.553 21.304C190.852 21.496 191.001 21.752 191.001 22.072C191.001 22.968 190.628 23.8213 189.881 24.632C189.198 25.336 188.686 25.6453 188.345 25.56Z" fill="black"/>
<path d="M205.26 11.992C204.897 11.992 204.577 11.8747 204.3 11.64C204.044 11.4053 203.916 11.1387 203.916 10.84C203.916 10.2427 204.321 9.944 205.132 9.944C205.43 9.944 205.729 10.0507 206.028 10.264C206.326 10.456 206.476 10.7013 206.476 11C206.476 11.256 206.337 11.4907 206.06 11.704C205.782 11.896 205.516 11.992 205.26 11.992ZM199.34 23.352C198.87 23.352 198.486 23.2027 198.188 22.904C197.868 22.584 197.708 22.0293 197.708 21.24C197.708 20.792 197.814 20.28 198.028 19.704C198.22 19.1067 198.465 18.5093 198.764 17.912C199.084 17.3147 199.393 16.7813 199.692 16.312C200.886 14.3707 201.868 13.3893 202.636 13.368C202.828 13.368 203.062 13.4533 203.34 13.624C203.617 13.7733 203.756 13.944 203.756 14.136C203.756 14.136 202.945 15.1813 201.324 17.272C199.724 19.3413 198.924 20.8133 198.924 21.688C198.924 22.3707 199.19 22.712 199.724 22.712C200.065 22.712 200.502 22.5733 201.036 22.296C201.59 21.9973 202.166 21.624 202.764 21.176C203.361 20.728 203.926 20.248 204.46 19.736C205.014 19.224 205.462 18.7547 205.804 18.328C206.017 18.0507 206.198 17.8587 206.348 17.752C206.518 17.6453 206.625 17.592 206.668 17.592C206.753 17.592 206.796 17.656 206.796 17.784C206.796 17.8907 206.668 18.104 206.412 18.424C206.177 18.744 205.846 19.1173 205.42 19.544C204.908 20.056 204.342 20.6107 203.724 21.208C203.105 21.8053 202.433 22.3173 201.708 22.744C200.982 23.1493 200.193 23.352 199.34 23.352Z" fill="black"/>
<path d="M213.566 23.064C212.99 23.064 212.585 22.904 212.35 22.584C212.116 22.2427 211.998 21.8267 211.998 21.336C211.998 20.0987 212.425 18.776 213.278 17.368L215.326 14.04C213.876 15.1067 212.436 16.44 211.006 18.04C210.622 18.4667 210.185 18.968 209.694 19.544C209.225 20.12 208.702 20.7813 208.126 21.528C207.358 22.5307 206.9 23.032 206.75 23.032C206.452 23.032 206.206 22.904 206.014 22.648C205.822 22.3707 205.726 22.1253 205.726 21.912C205.726 21.7413 205.78 21.432 205.886 20.984C205.993 20.5147 206.121 20.1093 206.27 19.768C206.42 19.4053 206.569 19.0533 206.718 18.712C206.889 18.3493 207.049 17.9973 207.198 17.656L205.278 19.672C205.236 19.7147 205.108 19.8427 204.894 20.056C204.681 20.2693 204.51 20.376 204.382 20.376C204.276 20.376 204.222 20.3013 204.222 20.152C204.222 20.1093 204.244 20.056 204.286 19.992C204.308 19.9067 204.372 19.8107 204.478 19.704C204.798 19.384 205.129 19.0427 205.47 18.68C205.812 18.3173 206.164 17.9013 206.526 17.432C206.718 17.1973 207.006 16.8453 207.39 16.376C207.774 15.8853 208.19 15.3627 208.638 14.808C209.108 14.2533 209.545 13.7413 209.95 13.272C210.057 13.1227 210.174 13.0267 210.302 12.984C210.43 12.92 210.516 12.888 210.558 12.888C211.134 12.888 211.422 13.112 211.422 13.56C211.422 13.688 211.39 13.816 211.326 13.944C209.406 16.5893 208.254 18.6053 207.87 19.992C210.345 17.5173 212.329 15.6613 213.822 14.424C215.337 13.1653 216.414 12.536 217.054 12.536C217.396 12.536 217.652 12.5893 217.822 12.696C218.014 12.8027 218.11 13.0053 218.11 13.304C218.11 13.4107 218.1 13.496 218.078 13.56C218.014 13.7093 217.577 14.3067 216.766 15.352C216.276 15.9493 215.838 16.4933 215.454 16.984C215.092 17.4747 214.793 17.9013 214.558 18.264C214.174 18.8613 213.886 19.4267 213.694 19.96C213.502 20.472 213.406 20.9093 213.406 21.272C213.406 21.4213 213.428 21.6027 213.47 21.816C213.513 22.0293 213.641 22.136 213.854 22.136C214.345 22.136 215.113 21.7093 216.158 20.856C216.649 20.4293 217.108 20.0027 217.534 19.576C217.961 19.128 218.366 18.6907 218.75 18.264C218.836 18.1787 218.974 18.0187 219.166 17.784C219.358 17.528 219.476 17.4 219.518 17.4C219.604 17.4 219.646 17.4853 219.646 17.656C219.646 17.7413 219.593 17.8907 219.486 18.104C219.401 18.296 219.305 18.4453 219.198 18.552C218.964 18.8293 218.612 19.2133 218.142 19.704C217.694 20.1947 217.182 20.696 216.606 21.208C216.052 21.72 215.508 22.1573 214.974 22.52C214.441 22.8827 213.972 23.064 213.566 23.064Z" fill="black"/>
<path d="M226.473 23.064C225.897 23.064 225.491 22.904 225.257 22.584C225.022 22.2427 224.905 21.8267 224.905 21.336C224.905 20.0987 225.331 18.776 226.185 17.368L228.233 14.04C226.782 15.1067 225.342 16.44 223.913 18.04C223.529 18.4667 223.091 18.968 222.601 19.544C222.131 20.12 221.609 20.7813 221.033 21.528C220.265 22.5307 219.806 23.032 219.657 23.032C219.358 23.032 219.113 22.904 218.921 22.648C218.729 22.3707 218.633 22.1253 218.633 21.912C218.633 21.7413 218.686 21.432 218.793 20.984C218.899 20.5147 219.027 20.1093 219.177 19.768C219.326 19.4053 219.475 19.0533 219.625 18.712C219.795 18.3493 219.955 17.9973 220.105 17.656L218.185 19.672C218.142 19.7147 218.014 19.8427 217.801 20.056C217.587 20.2693 217.417 20.376 217.289 20.376C217.182 20.376 217.129 20.3013 217.129 20.152C217.129 20.1093 217.15 20.056 217.193 19.992C217.214 19.9067 217.278 19.8107 217.385 19.704C217.705 19.384 218.035 19.0427 218.377 18.68C218.718 18.3173 219.07 17.9013 219.433 17.432C219.625 17.1973 219.913 16.8453 220.297 16.376C220.681 15.8853 221.097 15.3627 221.545 14.808C222.014 14.2533 222.451 13.7413 222.857 13.272C222.963 13.1227 223.081 13.0267 223.209 12.984C223.337 12.92 223.422 12.888 223.465 12.888C224.041 12.888 224.329 13.112 224.329 13.56C224.329 13.688 224.297 13.816 224.233 13.944C222.313 16.5893 221.161 18.6053 220.777 19.992C223.251 17.5173 225.235 15.6613 226.729 14.424C228.243 13.1653 229.321 12.536 229.961 12.536C230.302 12.536 230.558 12.5893 230.729 12.696C230.921 12.8027 231.017 13.0053 231.017 13.304C231.017 13.4107 231.006 13.496 230.985 13.56C230.921 13.7093 230.483 14.3067 229.673 15.352C229.182 15.9493 228.745 16.4933 228.361 16.984C227.998 17.4747 227.699 17.9013 227.465 18.264C227.081 18.8613 226.793 19.4267 226.601 19.96C226.409 20.472 226.313 20.9093 226.313 21.272C226.313 21.4213 226.334 21.6027 226.377 21.816C226.419 22.0293 226.547 22.136 226.761 22.136C227.251 22.136 228.019 21.7093 229.065 20.856C229.555 20.4293 230.014 20.0027 230.441 19.576C230.867 19.128 231.273 18.6907 231.657 18.264C231.742 18.1787 231.881 18.0187 232.073 17.784C232.265 17.528 232.382 17.4 232.425 17.4C232.51 17.4 232.553 17.4853 232.553 17.656C232.553 17.7413 232.499 17.8907 232.393 18.104C232.307 18.296 232.211 18.4453 232.105 18.552C231.87 18.8293 231.518 19.2133 231.049 19.704C230.601 20.1947 230.089 20.696 229.513 21.208C228.958 21.72 228.414 22.1573 227.881 22.52C227.347 22.8827 226.878 23.064 226.473 23.064Z" fill="black"/>
<path d="M232.595 23.064C232.061 23.064 231.645 22.8187 231.347 22.328C231.048 21.816 230.899 21.3253 230.899 20.856C230.899 19.576 231.827 17.784 233.683 15.48C235.56 13.1547 237.075 11.992 238.227 11.992C239.315 11.992 239.859 12.568 239.859 13.72C239.859 13.8907 239.837 14.072 239.795 14.264C239.773 14.456 239.741 14.6587 239.699 14.872C239.741 14.936 239.848 14.968 240.019 14.968C240.595 14.968 241.277 14.7653 242.067 14.36C242.045 14.7227 241.203 15.2453 239.539 15.928C239.773 16.632 239.069 17.976 237.427 19.96C235.741 22.0293 234.301 23.064 233.107 23.064H232.595ZM233.171 22.104C234.088 22.104 235.261 21.2613 236.691 19.576C238.077 17.9333 238.771 16.7493 238.771 16.024C238.429 15.832 238.003 15.3413 237.491 14.552C236.765 14.552 235.72 15.4267 234.355 17.176C233.011 18.8827 232.36 20.1947 232.403 21.112C232.424 21.7733 232.68 22.104 233.171 22.104Z" fill="black"/>
<path d="M241.275 23.096C241.147 23.096 240.965 23.0427 240.731 22.936C240.496 22.808 240.283 22.6693 240.091 22.52C239.899 22.3493 239.792 22.2 239.771 22.072C239.749 21.9013 239.867 21.4213 240.123 20.632C240.357 19.8213 240.741 18.7227 241.275 17.336C241.808 15.928 242.256 14.84 242.619 14.072C242.981 13.304 243.248 12.8453 243.419 12.696C243.504 12.6107 243.621 12.568 243.771 12.568C244.005 12.568 244.229 12.6747 244.443 12.888C244.656 13.08 244.773 13.3147 244.795 13.592C244.795 13.6133 244.261 14.872 243.195 17.368C242.149 19.7787 241.659 21.2187 241.723 21.688C242.661 21.3893 244.229 20.3333 246.427 18.52C247.749 17.4107 248.699 16.408 249.275 15.512C249.872 14.5947 250.171 13.7733 250.171 13.048C250.171 12.6213 250.064 12.2373 249.851 11.896C249.659 11.5333 249.296 11.2347 248.763 11C248.613 10.936 248.539 10.84 248.539 10.712C248.539 10.52 248.656 10.424 248.891 10.424C249.509 10.424 250.043 10.6267 250.491 11.032C250.96 11.4373 251.195 12.0453 251.195 12.856C251.195 13.7093 250.832 14.68 250.107 15.768C249.381 16.8347 248.347 17.976 247.003 19.192C245.829 20.2373 244.763 21.0907 243.803 21.752C242.864 22.4133 242.021 22.8613 241.275 23.096Z" fill="black"/>
<path d="M251.988 23.16C251.476 23.16 250.964 22.9787 250.452 22.616C249.94 22.2533 249.652 21.8267 249.588 21.336C249.374 19.6933 250.409 17.7413 252.692 15.48C254.953 13.2187 256.99 12.088 258.804 12.088C259.294 12.088 259.678 12.2053 259.956 12.44C260.105 12.5893 260.212 12.792 260.276 13.048C260.361 13.304 260.425 13.432 260.468 13.432C260.553 13.432 260.628 13.4213 260.692 13.4C260.756 13.3573 260.83 13.336 260.916 13.336C261.172 13.336 261.396 13.432 261.588 13.624C261.78 13.816 261.886 13.9867 261.908 14.136C261.929 14.1787 261.246 15.2347 259.86 17.304C258.473 19.3307 257.844 20.7067 257.972 21.432C258.078 21.9227 258.313 22.168 258.676 22.168C259.785 22.168 261.812 20.3333 264.756 16.664C264.82 16.5787 264.884 16.536 264.948 16.536C265.054 16.536 265.108 16.6107 265.108 16.76C265.108 16.9307 265.012 17.144 264.82 17.4C262.11 21.048 260.03 22.872 258.58 22.872C258.388 22.872 258.206 22.84 258.036 22.776C257.097 22.4133 256.628 21.7093 256.628 20.664C256.628 20.3013 256.67 19.9387 256.756 19.576L254.772 21.496C254.174 22.0933 253.63 22.52 253.14 22.776C252.67 23.032 252.286 23.16 251.988 23.16ZM251.7 22.456C252.937 22.456 254.622 21.1013 256.756 18.392L260.148 13.72C259.977 13.4213 259.7 13.272 259.316 13.272C258.014 13.272 256.254 14.3173 254.036 16.408C251.732 18.5413 250.697 20.3013 250.932 21.688C251.038 22.2 251.294 22.456 251.7 22.456Z" fill="black"/>
<path d="M265.015 23.192C264.333 23.192 263.789 23.032 263.383 22.712C262.999 22.3707 262.807 21.7733 262.807 20.92C262.807 20.4293 262.957 19.8107 263.255 19.064C263.554 18.296 263.927 17.4747 264.375 16.6C264.823 15.7253 265.271 14.8613 265.719 14.008C265.442 14.072 265.197 14.104 264.983 14.104C264.343 14.104 264.023 13.8587 264.023 13.368C264.023 13.1333 264.109 12.952 264.279 12.824C264.471 12.696 264.642 12.6213 264.791 12.6C264.791 12.6 264.813 12.6 264.855 12.6C264.919 12.6 264.994 12.5893 265.079 12.568H266.935C267.319 12.0773 267.714 11.5547 268.119 11C268.695 10.2747 269.154 9.848 269.495 9.72H269.591C269.741 9.72 269.954 9.79467 270.231 9.944C270.573 10.136 270.743 10.328 270.743 10.52C270.743 10.7973 270.231 11.512 269.207 12.664C269.399 12.6853 269.677 12.696 270.039 12.696C270.402 12.696 270.85 12.696 271.383 12.696C271.639 12.696 272.002 12.696 272.471 12.696C272.962 12.696 273.463 12.696 273.975 12.696C274.509 12.6747 274.967 12.664 275.351 12.664C275.735 12.6427 275.949 12.632 275.991 12.632C276.055 12.6533 276.087 12.6853 276.087 12.728C276.087 12.92 274.829 13.176 272.311 13.496C270.882 13.688 269.783 13.8373 269.015 13.944C268.269 14.0507 267.863 14.1147 267.799 14.136C267.501 14.392 267.138 14.8293 266.711 15.448C266.285 16.0667 265.858 16.76 265.431 17.528C265.005 18.296 264.642 19.032 264.343 19.736C264.066 20.4187 263.927 20.952 263.927 21.336C263.927 21.6773 264.055 21.9653 264.311 22.2C264.567 22.4133 264.983 22.52 265.559 22.52C265.943 22.52 266.402 22.4347 266.935 22.264C267.469 22.0933 267.97 21.9013 268.439 21.688C268.93 21.4533 269.282 21.272 269.495 21.144C270.05 20.8027 270.658 20.3547 271.319 19.8C272.002 19.224 272.674 18.5733 273.335 17.848C273.634 17.5493 273.837 17.4 273.943 17.4C274.007 17.4 274.039 17.4427 274.039 17.528C274.039 17.6987 273.879 17.976 273.559 18.36C273.047 18.9787 272.471 19.576 271.831 20.152C271.213 20.7067 270.519 21.2187 269.751 21.688C268.877 22.2213 268.034 22.6053 267.223 22.84C266.434 23.0747 265.698 23.192 265.015 23.192Z" fill="black"/>
<path d="M279.603 11.992C279.241 11.992 278.921 11.8747 278.643 11.64C278.387 11.4053 278.259 11.1387 278.259 10.84C278.259 10.2427 278.665 9.944 279.475 9.944C279.774 9.944 280.073 10.0507 280.371 10.264C280.67 10.456 280.819 10.7013 280.819 11C280.819 11.256 280.681 11.4907 280.403 11.704C280.126 11.896 279.859 11.992 279.603 11.992ZM273.683 23.352C273.214 23.352 272.83 23.2027 272.531 22.904C272.211 22.584 272.051 22.0293 272.051 21.24C272.051 20.792 272.158 20.28 272.371 19.704C272.563 19.1067 272.809 18.5093 273.107 17.912C273.427 17.3147 273.737 16.7813 274.035 16.312C275.23 14.3707 276.211 13.3893 276.979 13.368C277.171 13.368 277.406 13.4533 277.683 13.624C277.961 13.7733 278.099 13.944 278.099 14.136C278.099 14.136 277.289 15.1813 275.667 17.272C274.067 19.3413 273.267 20.8133 273.267 21.688C273.267 22.3707 273.534 22.712 274.067 22.712C274.409 22.712 274.846 22.5733 275.379 22.296C275.934 21.9973 276.51 21.624 277.107 21.176C277.705 20.728 278.27 20.248 278.803 19.736C279.358 19.224 279.806 18.7547 280.147 18.328C280.361 18.0507 280.542 17.8587 280.691 17.752C280.862 17.6453 280.969 17.592 281.011 17.592C281.097 17.592 281.139 17.656 281.139 17.784C281.139 17.8907 281.011 18.104 280.755 18.424C280.521 18.744 280.19 19.1173 279.763 19.544C279.251 20.056 278.686 20.6107 278.067 21.208C277.449 21.8053 276.777 22.3173 276.051 22.744C275.326 23.1493 274.537 23.352 273.683 23.352Z" fill="black"/>
<path d="M281.126 23.064C280.593 23.064 280.177 22.8187 279.878 22.328C279.579 21.816 279.43 21.3253 279.43 20.856C279.43 19.576 280.358 17.784 282.214 15.48C284.091 13.1547 285.606 11.992 286.758 11.992C287.846 11.992 288.39 12.568 288.39 13.72C288.39 13.8907 288.369 14.072 288.326 14.264C288.305 14.456 288.273 14.6587 288.23 14.872C288.273 14.936 288.379 14.968 288.55 14.968C289.126 14.968 289.809 14.7653 290.598 14.36C290.577 14.7227 289.734 15.2453 288.07 15.928C288.305 16.632 287.601 17.976 285.958 19.96C284.273 22.0293 282.833 23.064 281.638 23.064H281.126ZM281.702 22.104C282.619 22.104 283.793 21.2613 285.222 19.576C286.609 17.9333 287.302 16.7493 287.302 16.024C286.961 15.832 286.534 15.3413 286.022 14.552C285.297 14.552 284.251 15.4267 282.886 17.176C281.542 18.8827 280.891 20.1947 280.934 21.112C280.955 21.7733 281.211 22.104 281.702 22.104Z" fill="black"/>
<path d="M296.91 23.064C296.334 23.064 295.929 22.904 295.694 22.584C295.459 22.2427 295.342 21.8267 295.342 21.336C295.342 20.0987 295.769 18.776 296.622 17.368L298.67 14.04C297.219 15.1067 295.779 16.44 294.35 18.04C293.966 18.4667 293.529 18.968 293.038 19.544C292.569 20.12 292.046 20.7813 291.47 21.528C290.702 22.5307 290.243 23.032 290.094 23.032C289.795 23.032 289.55 22.904 289.358 22.648C289.166 22.3707 289.07 22.1253 289.07 21.912C289.07 21.7413 289.123 21.432 289.23 20.984C289.337 20.5147 289.465 20.1093 289.614 19.768C289.763 19.4053 289.913 19.0533 290.062 18.712C290.233 18.3493 290.393 17.9973 290.542 17.656L288.622 19.672C288.579 19.7147 288.451 19.8427 288.238 20.056C288.025 20.2693 287.854 20.376 287.726 20.376C287.619 20.376 287.566 20.3013 287.566 20.152C287.566 20.1093 287.587 20.056 287.63 19.992C287.651 19.9067 287.715 19.8107 287.822 19.704C288.142 19.384 288.473 19.0427 288.814 18.68C289.155 18.3173 289.507 17.9013 289.87 17.432C290.062 17.1973 290.35 16.8453 290.734 16.376C291.118 15.8853 291.534 15.3627 291.982 14.808C292.451 14.2533 292.889 13.7413 293.294 13.272C293.401 13.1227 293.518 13.0267 293.646 12.984C293.774 12.92 293.859 12.888 293.902 12.888C294.478 12.888 294.766 13.112 294.766 13.56C294.766 13.688 294.734 13.816 294.67 13.944C292.75 16.5893 291.598 18.6053 291.214 19.992C293.689 17.5173 295.673 15.6613 297.166 14.424C298.681 13.1653 299.758 12.536 300.398 12.536C300.739 12.536 300.995 12.5893 301.166 12.696C301.358 12.8027 301.454 13.0053 301.454 13.304C301.454 13.4107 301.443 13.496 301.422 13.56C301.358 13.7093 300.921 14.3067 300.11 15.352C299.619 15.9493 299.182 16.4933 298.798 16.984C298.435 17.4747 298.137 17.9013 297.902 18.264C297.518 18.8613 297.23 19.4267 297.038 19.96C296.846 20.472 296.75 20.9093 296.75 21.272C296.75 21.4213 296.771 21.6027 296.814 21.816C296.857 22.0293 296.985 22.136 297.198 22.136C297.689 22.136 298.457 21.7093 299.502 20.856C299.993 20.4293 300.451 20.0027 300.878 19.576C301.305 19.128 301.71 18.6907 302.094 18.264C302.179 18.1787 302.318 18.0187 302.51 17.784C302.702 17.528 302.819 17.4 302.862 17.4C302.947 17.4 302.99 17.4853 302.99 17.656C302.99 17.7413 302.937 17.8907 302.83 18.104C302.745 18.296 302.649 18.4453 302.542 18.552C302.307 18.8293 301.955 19.2133 301.486 19.704C301.038 20.1947 300.526 20.696 299.95 21.208C299.395 21.72 298.851 22.1573 298.318 22.52C297.785 22.8827 297.315 23.064 296.91 23.064Z" fill="black"/>
<path d="M304.376 25.56C304.291 25.5387 304.248 25.5067 304.248 25.464C304.248 25.4427 304.494 25.1547 304.984 24.6C305.475 24.0453 305.688 23.5547 305.624 23.128C305.603 22.8933 305.454 22.6907 305.176 22.52C304.899 22.328 304.76 22.136 304.76 21.944C304.76 21.304 305.07 20.984 305.688 20.984C305.987 20.984 306.286 21.0907 306.584 21.304C306.883 21.496 307.032 21.752 307.032 22.072C307.032 22.968 306.659 23.8213 305.912 24.632C305.23 25.336 304.718 25.6453 304.376 25.56Z" fill="black"/>
<path d="M41.269 63.16C40.757 63.16 40.245 62.9787 39.733 62.616C39.221 62.2533 38.933 61.8267 38.869 61.336C38.6557 59.6933 39.6903 57.7413 41.973 55.48C44.2343 53.2187 46.2717 52.088 48.085 52.088C48.5757 52.088 48.9597 52.2053 49.237 52.44C49.3863 52.5893 49.493 52.792 49.557 53.048C49.6423 53.304 49.7063 53.432 49.749 53.432C49.8343 53.432 49.909 53.4213 49.973 53.4C50.037 53.3573 50.1117 53.336 50.197 53.336C50.453 53.336 50.677 53.432 50.869 53.624C51.061 53.816 51.1677 53.9867 51.189 54.136C51.2103 54.1787 50.5277 55.2347 49.141 57.304C47.7543 59.3307 47.125 60.7067 47.253 61.432C47.3597 61.9227 47.5943 62.168 47.957 62.168C49.0663 62.168 51.093 60.3333 54.037 56.664C54.101 56.5787 54.165 56.536 54.229 56.536C54.3357 56.536 54.389 56.6107 54.389 56.76C54.389 56.9307 54.293 57.144 54.101 57.4C51.3917 61.048 49.3117 62.872 47.861 62.872C47.669 62.872 47.4877 62.84 47.317 62.776C46.3783 62.4133 45.909 61.7093 45.909 60.664C45.909 60.3013 45.9517 59.9387 46.037 59.576L44.053 61.496C43.4557 62.0933 42.9117 62.52 42.421 62.776C41.9517 63.032 41.5677 63.16 41.269 63.16ZM40.981 62.456C42.2183 62.456 43.9037 61.1013 46.037 58.392L49.429 53.72C49.2583 53.4213 48.981 53.272 48.597 53.272C47.2957 53.272 45.5357 54.3173 43.317 56.408C41.013 58.5413 39.9783 60.3013 40.213 61.688C40.3197 62.2 40.5757 62.456 40.981 62.456Z" fill="black"/>
<path d="M60.4725 63.064C59.8965 63.064 59.4912 62.904 59.2565 62.584C59.0218 62.2427 58.9045 61.8267 58.9045 61.336C58.9045 60.0987 59.3312 58.776 60.1845 57.368L62.2325 54.04C60.7818 55.1067 59.3418 56.44 57.9125 58.04C57.5285 58.4667 57.0912 58.968 56.6005 59.544C56.1312 60.12 55.6085 60.7813 55.0325 61.528C54.2645 62.5307 53.8058 63.032 53.6565 63.032C53.3578 63.032 53.1125 62.904 52.9205 62.648C52.7285 62.3707 52.6325 62.1253 52.6325 61.912C52.6325 61.7413 52.6858 61.432 52.7925 60.984C52.8992 60.5147 53.0272 60.1093 53.1765 59.768C53.3258 59.4053 53.4752 59.0533 53.6245 58.712C53.7952 58.3493 53.9552 57.9973 54.1045 57.656L52.1845 59.672C52.1418 59.7147 52.0138 59.8427 51.8005 60.056C51.5872 60.2693 51.4165 60.376 51.2885 60.376C51.1818 60.376 51.1285 60.3013 51.1285 60.152C51.1285 60.1093 51.1498 60.056 51.1925 59.992C51.2138 59.9067 51.2778 59.8107 51.3845 59.704C51.7045 59.384 52.0352 59.0427 52.3765 58.68C52.7178 58.3173 53.0698 57.9013 53.4325 57.432C53.6245 57.1973 53.9125 56.8453 54.2965 56.376C54.6805 55.8853 55.0965 55.3627 55.5445 54.808C56.0138 54.2533 56.4512 53.7413 56.8565 53.272C56.9632 53.1227 57.0805 53.0267 57.2085 52.984C57.3365 52.92 57.4218 52.888 57.4645 52.888C58.0405 52.888 58.3285 53.112 58.3285 53.56C58.3285 53.688 58.2965 53.816 58.2325 53.944C56.3125 56.5893 55.1605 58.6053 54.7765 59.992C57.2512 57.5173 59.2352 55.6613 60.7285 54.424C62.2432 53.1653 63.3205 52.536 63.9605 52.536C64.3018 52.536 64.5578 52.5893 64.7285 52.696C64.9205 52.8027 65.0165 53.0053 65.0165 53.304C65.0165 53.4107 65.0058 53.496 64.9845 53.56C64.9205 53.7093 64.4832 54.3067 63.6725 55.352C63.1818 55.9493 62.7445 56.4933 62.3605 56.984C61.9978 57.4747 61.6992 57.9013 61.4645 58.264C61.0805 58.8613 60.7925 59.4267 60.6005 59.96C60.4085 60.472 60.3125 60.9093 60.3125 61.272C60.3125 61.4213 60.3338 61.6027 60.3765 61.816C60.4192 62.0293 60.5472 62.136 60.7605 62.136C61.2512 62.136 62.0192 61.7093 63.0645 60.856C63.5552 60.4293 64.0138 60.0027 64.4405 59.576C64.8672 59.128 65.2725 58.6907 65.6565 58.264C65.7419 58.1787 65.8805 58.0187 66.0725 57.784C66.2645 57.528 66.3818 57.4 66.4245 57.4C66.5098 57.4 66.5525 57.4853 66.5525 57.656C66.5525 57.7413 66.4992 57.8907 66.3925 58.104C66.3072 58.296 66.2112 58.4453 66.1045 58.552C65.8698 58.8293 65.5178 59.2133 65.0485 59.704C64.6005 60.1947 64.0885 60.696 63.5125 61.208C62.9578 61.72 62.4138 62.1573 61.8805 62.52C61.3472 62.8827 60.8778 63.064 60.4725 63.064Z" fill="black"/>
<path d="M67.3628 63.16C66.7228 63.16 66.1788 62.9893 65.7308 62.648C65.2828 62.2853 65.0268 61.848 64.9628 61.336C64.8774 60.6533 64.9734 59.9707 65.2508 59.288C65.5494 58.584 65.9441 57.912 66.4348 57.272C66.9468 56.632 67.4908 56.0347 68.0668 55.48C70.3281 53.2187 72.3654 52.088 74.1788 52.088C74.7974 52.088 75.2134 52.248 75.4268 52.568C75.5121 52.6747 75.6081 52.92 75.7148 53.304C78.1041 49.4213 79.7681 47.48 80.7068 47.48C80.9201 47.48 81.1441 47.5333 81.3788 47.64C81.6134 47.7467 81.7308 47.8853 81.7308 48.056C81.7308 48.1627 81.6774 48.3013 81.5708 48.472C80.9308 49.2613 80.2908 50.0507 79.6508 50.84C79.0108 51.608 78.3814 52.3867 77.7628 53.176C76.7174 54.4987 75.8748 55.6507 75.2348 56.632C74.5948 57.6133 74.1361 58.4453 73.8588 59.128C73.7734 59.3413 73.6881 59.608 73.6028 59.928C73.5388 60.2267 73.5068 60.536 73.5068 60.856C73.5068 61.2613 73.5921 61.6133 73.7628 61.912C73.9334 62.2107 74.2428 62.36 74.6908 62.36C75.3948 62.36 76.2588 62.0187 77.2828 61.336C78.3068 60.6533 79.5014 59.5333 80.8668 57.976C80.9521 57.8907 81.0268 57.816 81.0908 57.752C81.1761 57.688 81.2614 57.6453 81.3468 57.624C81.5388 57.5813 81.6348 57.624 81.6348 57.752C81.6348 57.816 81.5708 57.9333 81.4428 58.104C80.7814 58.8933 80.0454 59.672 79.2348 60.44C78.4241 61.208 77.5921 61.848 76.7388 62.36C75.9068 62.8507 75.1281 63.096 74.4028 63.096C73.6774 63.096 73.1654 62.8507 72.8668 62.36C72.5681 61.8693 72.4188 61.3147 72.4188 60.696C72.4188 60.056 72.5361 59.4693 72.7708 58.936L70.1788 61.528C69.6028 62.104 69.0694 62.52 68.5788 62.776C68.1094 63.032 67.7041 63.16 67.3628 63.16ZM67.0748 62.456C67.9921 62.456 69.5174 61.1973 71.6508 58.68C71.7574 58.552 72.1308 58.0827 72.7708 57.272C73.4108 56.44 74.3174 55.2347 75.4908 53.656C75.3414 53.4 75.0854 53.272 74.7228 53.272C73.4001 53.272 71.6294 54.3173 69.4108 56.408C67.3201 58.3493 66.2748 59.9813 66.2748 61.304C66.2748 62.072 66.5414 62.456 67.0748 62.456Z" fill="black"/>
<path d="M88.484 63.192C87.8013 63.192 87.2573 63.032 86.852 62.712C86.468 62.3707 86.276 61.7733 86.276 60.92C86.276 60.4293 86.4253 59.8107 86.724 59.064C87.0227 58.296 87.396 57.4747 87.844 56.6C88.292 55.7253 88.74 54.8613 89.188 54.008C88.9107 54.072 88.6653 54.104 88.452 54.104C87.812 54.104 87.492 53.8587 87.492 53.368C87.492 53.1333 87.5773 52.952 87.748 52.824C87.94 52.696 88.1107 52.6213 88.26 52.6C88.26 52.6 88.2813 52.6 88.324 52.6C88.388 52.6 88.4627 52.5893 88.548 52.568H90.404C90.788 52.0773 91.1827 51.5547 91.588 51C92.164 50.2747 92.6227 49.848 92.964 49.72H93.06C93.2093 49.72 93.4227 49.7947 93.7 49.944C94.0413 50.136 94.212 50.328 94.212 50.52C94.212 50.7973 93.7 51.512 92.676 52.664C92.868 52.6853 93.1454 52.696 93.508 52.696C93.8707 52.696 94.3187 52.696 94.852 52.696C95.108 52.696 95.4707 52.696 95.94 52.696C96.4307 52.696 96.932 52.696 97.444 52.696C97.9773 52.6747 98.436 52.664 98.82 52.664C99.204 52.6427 99.4173 52.632 99.46 52.632C99.524 52.6533 99.556 52.6853 99.556 52.728C99.556 52.92 98.2973 53.176 95.78 53.496C94.3507 53.688 93.252 53.8373 92.484 53.944C91.7373 54.0507 91.332 54.1147 91.268 54.136C90.9693 54.392 90.6067 54.8293 90.18 55.448C89.7533 56.0667 89.3267 56.76 88.9 57.528C88.4734 58.296 88.1107 59.032 87.812 59.736C87.5347 60.4187 87.396 60.952 87.396 61.336C87.396 61.6773 87.524 61.9653 87.78 62.2C88.036 62.4133 88.452 62.52 89.028 62.52C89.412 62.52 89.8707 62.4347 90.404 62.264C90.9373 62.0933 91.4387 61.9013 91.908 61.688C92.3987 61.4533 92.7507 61.272 92.964 61.144C93.5187 60.8027 94.1267 60.3547 94.788 59.8C95.4707 59.224 96.1427 58.5733 96.804 57.848C97.1027 57.5493 97.3054 57.4 97.412 57.4C97.476 57.4 97.508 57.4427 97.508 57.528C97.508 57.6987 97.348 57.976 97.028 58.36C96.516 58.9787 95.94 59.576 95.3 60.152C94.6814 60.7067 93.988 61.2187 93.22 61.688C92.3453 62.2213 91.5027 62.6053 90.692 62.84C89.9027 63.0747 89.1667 63.192 88.484 63.192Z" fill="black"/>
<path d="M95.136 63.16C94.5174 63.16 94.208 62.9787 94.208 62.616C94.208 62.4027 94.336 62.0613 94.592 61.592C95.5733 59.8427 96.448 58.296 97.216 56.952C98.0053 55.5867 98.6987 54.4347 99.296 53.496C101.835 49.4213 103.627 47.2133 104.672 46.872C104.715 46.872 104.747 46.872 104.768 46.872C104.789 46.8507 104.811 46.84 104.832 46.84C105.109 46.84 105.291 47.064 105.376 47.512C105.312 47.96 104.203 49.5813 102.048 52.376C100.917 53.8053 100.032 54.9893 99.392 55.928C98.7733 56.8453 98.3893 57.5173 98.24 57.944C98.944 57.432 99.7013 56.888 100.512 56.312C101.323 55.736 102.112 55.192 102.88 54.68C103.648 54.1467 104.341 53.72 104.96 53.4C105.579 53.0587 106.059 52.8667 106.4 52.824C106.443 52.824 106.496 52.824 106.56 52.824C106.624 52.8027 106.667 52.792 106.688 52.792C107.285 52.792 107.584 53.0693 107.584 53.624C107.584 53.7733 107.392 54.104 107.008 54.616C106.624 55.128 106.037 55.9173 105.248 56.984C103.84 58.8613 103.136 60.2693 103.136 61.208C103.136 61.6987 103.317 61.944 103.68 61.944C104.064 61.9227 104.501 61.752 104.992 61.432C105.504 61.112 106.016 60.7173 106.528 60.248C107.04 59.7787 107.499 59.32 107.904 58.872C108.331 58.4027 108.651 58.04 108.864 57.784C109.056 57.592 109.205 57.496 109.312 57.496C109.397 57.496 109.44 57.5387 109.44 57.624C109.44 57.7947 109.355 57.9973 109.184 58.232C108.928 58.552 108.544 58.968 108.032 59.48C107.541 59.992 106.997 60.5147 106.4 61.048C105.824 61.56 105.269 61.9973 104.736 62.36C104.224 62.7013 103.84 62.872 103.584 62.872C102.325 62.872 101.696 62.136 101.696 60.664C101.696 59.832 102.08 58.744 102.848 57.4C103.147 56.888 103.456 56.376 103.776 55.864C104.096 55.352 104.416 54.84 104.736 54.328C102.005 55.6933 99.5307 57.7093 97.312 60.376C97.0347 60.76 96.7467 61.176 96.448 61.624C96.1493 62.0507 95.8827 62.4133 95.648 62.712C95.4134 63.0107 95.2427 63.16 95.136 63.16Z" fill="black"/>
<path d="M109.663 63.416C108.981 63.416 108.362 63.2027 107.807 62.776C107.253 62.328 106.975 61.7413 106.975 61.016C106.975 59.5013 107.903 57.7733 109.759 55.832C111.658 53.8693 113.354 52.888 114.847 52.888C115.338 52.888 115.733 53.0267 116.031 53.304C116.351 53.56 116.511 53.88 116.511 54.264C116.511 55.4587 115.562 56.632 113.663 57.784C111.978 58.808 110.559 59.32 109.407 59.32C109.237 59.32 109.087 59.2987 108.959 59.256C108.639 59.832 108.479 60.44 108.479 61.08C108.479 62.1893 109.002 62.744 110.047 62.744C111.114 62.744 112.49 62.0293 114.175 60.6C115.477 59.5547 116.586 58.4453 117.503 57.272C117.695 57.016 117.866 56.888 118.015 56.888C118.143 56.888 118.207 56.952 118.207 57.08C118.207 57.208 118.122 57.3893 117.951 57.624C117.354 58.4133 116.714 59.1387 116.031 59.8C115.349 60.4613 114.613 61.0693 113.823 61.624C112.181 62.8187 110.794 63.416 109.663 63.416ZM109.855 58.616C110.666 58.616 111.722 58.2107 113.023 57.4C113.45 57.1013 113.866 56.7707 114.271 56.408C114.698 56.024 115.039 55.64 115.295 55.256C115.573 54.872 115.711 54.5307 115.711 54.232C115.711 53.9547 115.487 53.816 115.039 53.816C114.399 53.816 113.503 54.296 112.351 55.256C111.797 55.7253 111.263 56.2373 110.751 56.792C110.239 57.3467 109.802 57.9333 109.439 58.552C109.567 58.5947 109.706 58.616 109.855 58.616Z" fill="black"/>
<path d="M120.738 69.048C119.842 68.5573 119.394 67.6293 119.394 66.264C119.394 64.792 120.599 62.2747 123.01 58.712C125.314 55.2773 126.914 53.4213 127.81 53.144C127.895 53.1227 127.97 53.112 128.034 53.112C128.098 53.0907 128.162 53.08 128.226 53.08C128.588 53.08 128.77 53.4747 128.77 54.264C128.919 54.1147 129.175 53.976 129.538 53.848C129.922 53.6987 130.306 53.5813 130.69 53.496C131.095 53.4107 131.394 53.3573 131.586 53.336C132.46 53.2933 133.186 53.5067 133.762 53.976C134.359 54.424 134.658 55.0213 134.658 55.768C134.658 57.496 133.623 59.1707 131.554 60.792C129.676 62.264 128.012 63 126.562 63C125.602 63 124.94 62.9467 124.578 62.84C124.066 62.6907 123.543 62.296 123.01 61.656C122.775 61.848 122.519 62.1787 122.242 62.648C121.964 63.096 121.708 63.5867 121.474 64.12C121.218 64.6747 121.015 65.2187 120.866 65.752C120.695 66.2853 120.61 66.7333 120.61 67.096C120.61 67.4587 120.684 67.7573 120.834 67.992C120.962 68.248 121.09 68.4827 121.218 68.696C121.218 68.7173 121.228 68.728 121.25 68.728C121.25 68.7493 121.25 68.76 121.25 68.76C121.25 68.8667 121.196 68.952 121.09 69.016C120.962 69.1013 120.844 69.112 120.738 69.048ZM126.146 62.104C127.34 62.104 128.716 61.496 130.274 60.28C132.108 58.8293 133.026 57.2187 133.026 55.448C133.026 54.6373 132.524 54.232 131.522 54.232C130.604 54.232 129.751 54.4347 128.962 54.84C128.748 54.9253 128.396 55.2027 127.906 55.672C127.436 56.1413 126.807 56.7813 126.018 57.592C124.332 59.3413 123.49 60.4613 123.49 60.952C123.49 61.336 123.842 61.6453 124.546 61.88C125.015 62.0293 125.548 62.104 126.146 62.104Z" fill="black"/>
<path d="M136.16 63.352C135.2 63.352 134.72 62.744 134.72 61.528C134.72 61.0587 134.859 60.504 135.136 59.864C135.435 59.2027 135.851 58.5093 136.384 57.784C136.384 57.784 136.192 57.9653 135.808 58.328C135.424 58.6907 134.987 59.1493 134.496 59.704C134.411 59.7893 134.304 59.832 134.176 59.832C134.091 59.832 134.048 59.7787 134.048 59.672C134.048 59.5653 134.144 59.384 134.336 59.128L138.752 53.944C139.307 53.304 139.915 52.984 140.576 52.984C141.067 52.984 141.312 53.176 141.312 53.56C141.312 53.7093 141.248 53.848 141.12 53.976C140.715 54.36 140.214 54.904 139.616 55.608C139.04 56.312 138.475 57.0693 137.92 57.88C137.366 58.6907 136.896 59.4693 136.512 60.216C136.15 60.9413 135.968 61.528 135.968 61.976C135.968 62.36 136.096 62.552 136.352 62.552C136.502 62.552 136.736 62.4987 137.056 62.392C137.376 62.264 137.803 62.0187 138.336 61.656C138.87 61.272 139.51 60.6853 140.256 59.896C140.384 59.768 140.726 59.384 141.28 58.744C141.835 58.104 142.582 57.1867 143.52 55.992C145.184 53.9227 146.272 52.888 146.784 52.888C147.488 52.888 147.872 53.176 147.936 53.752C147.979 53.944 147.531 54.5733 146.592 55.64C145.376 57.112 144.544 58.168 144.096 58.808C143.264 60.024 142.848 60.9733 142.848 61.656C142.848 62.1253 143.008 62.36 143.328 62.36C143.648 62.36 144.054 62.2107 144.544 61.912C145.056 61.592 145.59 61.1973 146.144 60.728C146.699 60.2373 147.232 59.736 147.744 59.224C148.278 58.6907 148.736 58.2 149.12 57.752C149.248 57.6027 149.376 57.528 149.504 57.528C149.632 57.528 149.696 57.592 149.696 57.72C149.696 57.7627 149.686 57.8267 149.664 57.912C149.643 57.9973 149.579 58.0933 149.472 58.2C149.131 58.584 148.694 59.064 148.16 59.64C147.627 60.1947 147.051 60.7493 146.432 61.304C145.814 61.8587 145.216 62.3173 144.64 62.68C144.064 63.0427 143.574 63.224 143.168 63.224C142.678 63.224 142.251 63.096 141.888 62.84C141.526 62.5627 141.344 62.1893 141.344 61.72C141.344 61.2507 141.419 60.7813 141.568 60.312C141.718 59.8213 141.835 59.4053 141.92 59.064C140.918 60.2373 140.032 61.1333 139.264 61.752C138.518 62.3707 137.888 62.7867 137.376 63C136.864 63.2347 136.459 63.352 136.16 63.352Z" fill="black"/>
<path d="M154.778 63.16C153.861 63.16 153.231 62.9253 152.89 62.456C152.549 61.9653 152.378 61.3147 152.378 60.504C152.378 59.608 152.655 58.5413 153.21 57.304C153.423 56.8133 153.647 56.376 153.882 55.992C154.117 55.5867 154.362 55.2133 154.618 54.872C154.533 54.8933 154.458 54.904 154.394 54.904C154.33 54.904 154.266 54.904 154.202 54.904C153.69 54.904 153.263 54.5413 152.922 53.816L150.554 56.888C149.295 58.5307 148.527 59.352 148.25 59.352C148.143 59.352 148.09 59.3093 148.09 59.224C148.09 59.1173 148.143 58.9787 148.25 58.808C148.314 58.68 148.442 58.5093 148.634 58.296C149.445 57.3573 150.191 56.4293 150.874 55.512C151.557 54.5947 152.122 53.6987 152.57 52.824C153.061 50.968 153.679 50.04 154.426 50.04C154.917 50.04 155.162 50.264 155.162 50.712C155.162 51.1173 154.895 51.6507 154.362 52.312C153.85 52.9733 153.594 53.3147 153.594 53.336C153.594 53.784 153.925 54.008 154.586 54.008C154.97 54.008 155.397 53.8693 155.866 53.592L156.698 53.08C156.741 53.0587 156.805 53.048 156.89 53.048C157.146 53.048 157.37 53.1547 157.562 53.368C157.754 53.5813 157.818 53.7733 157.754 53.944L155.546 56.728C154.181 58.4773 153.498 59.8853 153.498 60.952C153.498 61.912 153.967 62.392 154.906 62.392C155.546 62.392 156.229 62.2 156.954 61.816C157.701 61.432 158.415 60.9627 159.098 60.408C159.802 59.832 160.389 59.2773 160.858 58.744L161.626 57.848C161.669 57.8053 161.722 57.752 161.786 57.688C161.85 57.624 161.903 57.592 161.946 57.592C162.095 57.592 162.17 57.6667 162.17 57.816C162.17 57.8587 162.149 57.9333 162.106 58.04C162.063 58.1467 161.989 58.264 161.882 58.392L160.858 59.544C160.367 60.0987 159.759 60.664 159.034 61.24C158.33 61.7947 157.594 62.2533 156.826 62.616C156.079 62.9787 155.397 63.16 154.778 63.16Z" fill="black"/>
<path d="M162.476 63.416C161.793 63.416 161.174 63.2027 160.62 62.776C160.065 62.328 159.788 61.7413 159.788 61.016C159.788 59.5013 160.716 57.7733 162.572 55.832C164.47 53.8693 166.166 52.888 167.66 52.888C168.15 52.888 168.545 53.0267 168.844 53.304C169.164 53.56 169.324 53.88 169.324 54.264C169.324 55.4587 168.374 56.632 166.476 57.784C164.79 58.808 163.372 59.32 162.22 59.32C162.049 59.32 161.9 59.2987 161.772 59.256C161.452 59.832 161.292 60.44 161.292 61.08C161.292 62.1893 161.814 62.744 162.86 62.744C163.926 62.744 165.302 62.0293 166.988 60.6C168.289 59.5547 169.398 58.4453 170.316 57.272C170.508 57.016 170.678 56.888 170.828 56.888C170.956 56.888 171.02 56.952 171.02 57.08C171.02 57.208 170.934 57.3893 170.764 57.624C170.166 58.4133 169.526 59.1387 168.844 59.8C168.161 60.4613 167.425 61.0693 166.636 61.624C164.993 62.8187 163.606 63.416 162.476 63.416ZM162.668 58.616C163.478 58.616 164.534 58.2107 165.836 57.4C166.262 57.1013 166.678 56.7707 167.084 56.408C167.51 56.024 167.852 55.64 168.108 55.256C168.385 54.872 168.524 54.5307 168.524 54.232C168.524 53.9547 168.3 53.816 167.852 53.816C167.212 53.816 166.316 54.296 165.164 55.256C164.609 55.7253 164.076 56.2373 163.564 56.792C163.052 57.3467 162.614 57.9333 162.252 58.552C162.38 58.5947 162.518 58.616 162.668 58.616Z" fill="black"/>
<path d="M172.743 63.064C171.74 63.064 170.993 62.7333 170.503 62.072C170.033 61.4107 169.649 60.4933 169.351 59.32C168.967 59.704 168.7 59.896 168.551 59.896C168.444 59.896 168.391 59.8107 168.391 59.64C168.391 59.512 168.444 59.3947 168.551 59.288C168.551 59.288 168.817 58.9573 169.351 58.296C169.905 57.6347 170.833 56.7067 172.135 55.512L176.167 51.736C176.721 51.2027 177.159 50.7973 177.479 50.52C177.82 50.2427 178.065 50.104 178.215 50.104C178.897 50.104 179.239 50.36 179.239 50.872C179.239 51.128 179.1 51.4267 178.823 51.768C178.609 52.024 178.449 52.2267 178.343 52.376C178.257 52.504 178.204 52.5787 178.183 52.6C177.799 53.2613 177.447 54.4453 177.127 56.152C176.892 57.4107 176.689 58.4453 176.519 59.256C176.348 60.0667 176.209 60.6533 176.103 61.016C176.999 60.9947 177.884 60.7173 178.759 60.184C179.633 59.6507 180.572 58.776 181.575 57.56C181.617 57.5173 181.681 57.4533 181.767 57.368C181.852 57.2827 181.937 57.24 182.023 57.24C182.151 57.24 182.215 57.2933 182.215 57.4C182.215 57.5067 182.183 57.6133 182.119 57.72C182.055 57.8267 181.991 57.9227 181.927 58.008C181.265 58.7973 180.647 59.448 180.071 59.96C179.495 60.4507 178.887 60.8453 178.247 61.144C177.607 61.4213 176.849 61.656 175.975 61.848L174.951 62.52C174.673 62.712 174.343 62.8507 173.959 62.936C173.575 63.0213 173.169 63.064 172.743 63.064ZM173.127 61.432C173.617 61.432 174.023 61.3147 174.343 61.08C174.577 60.952 174.801 60.6 175.015 60.024C175.249 59.4267 175.473 58.6907 175.687 57.816C175.857 57.0693 175.985 56.344 176.071 55.64C176.177 54.9147 176.273 54.2213 176.359 53.56L176.487 52.472C175.996 52.8347 175.377 53.3573 174.631 54.04C173.884 54.7227 173.148 55.4373 172.423 56.184C171.697 56.9307 171.228 57.4853 171.015 57.848C170.801 58.1893 170.684 58.4453 170.663 58.616C170.577 59.4693 170.78 60.152 171.271 60.664C171.783 61.176 172.401 61.432 173.127 61.432Z" fill="black"/>
<path d="M182.547 63.192C181.864 63.192 181.32 63.032 180.915 62.712C180.531 62.3707 180.339 61.7733 180.339 60.92C180.339 60.4293 180.488 59.8107 180.787 59.064C181.085 58.296 181.459 57.4747 181.907 56.6C182.355 55.7253 182.803 54.8613 183.251 54.008C182.973 54.072 182.728 54.104 182.515 54.104C181.875 54.104 181.555 53.8587 181.555 53.368C181.555 53.1333 181.64 52.952 181.811 52.824C182.003 52.696 182.173 52.6213 182.323 52.6C182.323 52.6 182.344 52.6 182.387 52.6C182.451 52.6 182.525 52.5893 182.611 52.568H184.467C184.851 52.0773 185.245 51.5547 185.651 51C186.227 50.2747 186.685 49.848 187.027 49.72H187.123C187.272 49.72 187.485 49.7947 187.763 49.944C188.104 50.136 188.275 50.328 188.275 50.52C188.275 50.7973 187.763 51.512 186.739 52.664C186.931 52.6853 187.208 52.696 187.571 52.696C187.933 52.696 188.381 52.696 188.915 52.696C189.171 52.696 189.533 52.696 190.003 52.696C190.493 52.696 190.995 52.696 191.507 52.696C192.04 52.6747 192.499 52.664 192.883 52.664C193.267 52.6427 193.48 52.632 193.523 52.632C193.587 52.6533 193.619 52.6853 193.619 52.728C193.619 52.92 192.36 53.176 189.843 53.496C188.413 53.688 187.315 53.8373 186.547 53.944C185.8 54.0507 185.395 54.1147 185.331 54.136C185.032 54.392 184.669 54.8293 184.243 55.448C183.816 56.0667 183.389 56.76 182.963 57.528C182.536 58.296 182.173 59.032 181.875 59.736C181.597 60.4187 181.459 60.952 181.459 61.336C181.459 61.6773 181.587 61.9653 181.843 62.2C182.099 62.4133 182.515 62.52 183.091 62.52C183.475 62.52 183.933 62.4347 184.467 62.264C185 62.0933 185.501 61.9013 185.971 61.688C186.461 61.4533 186.813 61.272 187.027 61.144C187.581 60.8027 188.189 60.3547 188.851 59.8C189.533 59.224 190.205 58.5733 190.867 57.848C191.165 57.5493 191.368 57.4 191.475 57.4C191.539 57.4 191.571 57.4427 191.571 57.528C191.571 57.6987 191.411 57.976 191.091 58.36C190.579 58.9787 190.003 59.576 189.363 60.152C188.744 60.7067 188.051 61.2187 187.283 61.688C186.408 62.2213 185.565 62.6053 184.755 62.84C183.965 63.0747 183.229 63.192 182.547 63.192Z" fill="black"/>
<path d="M195.542 63.16C194.924 63.16 194.614 62.9787 194.614 62.616C194.614 62.4027 194.742 62.0613 194.998 61.592C195.98 59.8427 196.854 58.296 197.622 56.952C198.412 55.5867 199.105 54.4347 199.702 53.496C202.241 49.4213 204.033 47.2133 205.078 46.872C205.121 46.872 205.153 46.872 205.174 46.872C205.196 46.8507 205.217 46.84 205.238 46.84C205.516 46.84 205.697 47.064 205.782 47.512C205.718 47.96 204.609 49.5813 202.454 52.376C201.324 53.8053 200.438 54.9893 199.798 55.928C199.18 56.8453 198.796 57.5173 198.646 57.944C199.35 57.432 200.108 56.888 200.918 56.312C201.729 55.736 202.518 55.192 203.286 54.68C204.054 54.1467 204.748 53.72 205.366 53.4C205.985 53.0587 206.465 52.8667 206.806 52.824C206.849 52.824 206.902 52.824 206.966 52.824C207.03 52.8027 207.073 52.792 207.094 52.792C207.692 52.792 207.99 53.0693 207.99 53.624C207.99 53.7733 207.798 54.104 207.414 54.616C207.03 55.128 206.444 55.9173 205.654 56.984C204.246 58.8613 203.542 60.2693 203.542 61.208C203.542 61.6987 203.724 61.944 204.086 61.944C204.47 61.9227 204.908 61.752 205.398 61.432C205.91 61.112 206.422 60.7173 206.934 60.248C207.446 59.7787 207.905 59.32 208.31 58.872C208.737 58.4027 209.057 58.04 209.27 57.784C209.462 57.592 209.612 57.496 209.718 57.496C209.804 57.496 209.846 57.5387 209.846 57.624C209.846 57.7947 209.761 57.9973 209.59 58.232C209.334 58.552 208.95 58.968 208.438 59.48C207.948 59.992 207.404 60.5147 206.806 61.048C206.23 61.56 205.676 61.9973 205.142 62.36C204.63 62.7013 204.246 62.872 203.99 62.872C202.732 62.872 202.102 62.136 202.102 60.664C202.102 59.832 202.486 58.744 203.254 57.4C203.553 56.888 203.862 56.376 204.182 55.864C204.502 55.352 204.822 54.84 205.142 54.328C202.412 55.6933 199.937 57.7093 197.718 60.376C197.441 60.76 197.153 61.176 196.854 61.624C196.556 62.0507 196.289 62.4133 196.054 62.712C195.82 63.0107 195.649 63.16 195.542 63.16Z" fill="black"/>
<path d="M209.814 63.064C209.28 63.064 208.864 62.8187 208.566 62.328C208.267 61.816 208.118 61.3253 208.118 60.856C208.118 59.576 209.046 57.784 210.902 55.48C212.779 53.1547 214.294 51.992 215.446 51.992C216.534 51.992 217.078 52.568 217.078 53.72C217.078 53.8907 217.056 54.072 217.014 54.264C216.992 54.456 216.96 54.6587 216.918 54.872C216.96 54.936 217.067 54.968 217.238 54.968C217.814 54.968 218.496 54.7653 219.286 54.36C219.264 54.7227 218.422 55.2453 216.758 55.928C216.992 56.632 216.288 57.976 214.646 59.96C212.96 62.0293 211.52 63.064 210.326 63.064H209.814ZM210.39 62.104C211.307 62.104 212.48 61.2613 213.91 59.576C215.296 57.9333 215.99 56.7493 215.99 56.024C215.648 55.832 215.222 55.3413 214.71 54.552C213.984 54.552 212.939 55.4267 211.574 57.176C210.23 58.8827 209.579 60.1947 209.622 61.112C209.643 61.7733 209.899 62.104 210.39 62.104Z" fill="black"/>
<path d="M225.598 63.064C225.022 63.064 224.616 62.904 224.382 62.584C224.147 62.2427 224.03 61.8267 224.03 61.336C224.03 60.0987 224.456 58.776 225.31 57.368L227.358 54.04C225.907 55.1067 224.467 56.44 223.038 58.04C222.654 58.4667 222.216 58.968 221.726 59.544C221.256 60.12 220.734 60.7813 220.158 61.528C219.39 62.5307 218.931 63.032 218.782 63.032C218.483 63.032 218.238 62.904 218.046 62.648C217.854 62.3707 217.758 62.1253 217.758 61.912C217.758 61.7413 217.811 61.432 217.918 60.984C218.024 60.5147 218.152 60.1093 218.302 59.768C218.451 59.4053 218.6 59.0533 218.75 58.712C218.92 58.3493 219.08 57.9973 219.23 57.656L217.31 59.672C217.267 59.7147 217.139 59.8427 216.926 60.056C216.712 60.2693 216.542 60.376 216.414 60.376C216.307 60.376 216.254 60.3013 216.254 60.152C216.254 60.1093 216.275 60.056 216.318 59.992C216.339 59.9067 216.403 59.8107 216.51 59.704C216.83 59.384 217.16 59.0427 217.502 58.68C217.843 58.3173 218.195 57.9013 218.558 57.432C218.75 57.1973 219.038 56.8453 219.422 56.376C219.806 55.8853 220.222 55.3627 220.67 54.808C221.139 54.2533 221.576 53.7413 221.982 53.272C222.088 53.1227 222.206 53.0267 222.334 52.984C222.462 52.92 222.547 52.888 222.59 52.888C223.166 52.888 223.454 53.112 223.454 53.56C223.454 53.688 223.422 53.816 223.358 53.944C221.438 56.5893 220.286 58.6053 219.902 59.992C222.376 57.5173 224.36 55.6613 225.854 54.424C227.368 53.1653 228.446 52.536 229.086 52.536C229.427 52.536 229.683 52.5893 229.854 52.696C230.046 52.8027 230.142 53.0053 230.142 53.304C230.142 53.4107 230.131 53.496 230.11 53.56C230.046 53.7093 229.608 54.3067 228.798 55.352C228.307 55.9493 227.87 56.4933 227.486 56.984C227.123 57.4747 226.824 57.9013 226.59 58.264C226.206 58.8613 225.918 59.4267 225.726 59.96C225.534 60.472 225.438 60.9093 225.438 61.272C225.438 61.4213 225.459 61.6027 225.502 61.816C225.544 62.0293 225.672 62.136 225.886 62.136C226.376 62.136 227.144 61.7093 228.19 60.856C228.68 60.4293 229.139 60.0027 229.566 59.576C229.992 59.128 230.398 58.6907 230.782 58.264C230.867 58.1787 231.006 58.0187 231.198 57.784C231.39 57.528 231.507 57.4 231.55 57.4C231.635 57.4 231.678 57.4853 231.678 57.656C231.678 57.7413 231.624 57.8907 231.518 58.104C231.432 58.296 231.336 58.4453 231.23 58.552C230.995 58.8293 230.643 59.2133 230.174 59.704C229.726 60.1947 229.214 60.696 228.638 61.208C228.083 61.72 227.539 62.1573 227.006 62.52C226.472 62.8827 226.003 63.064 225.598 63.064Z" fill="black"/>
<path d="M231.976 63.416C231.293 63.416 230.674 63.2027 230.12 62.776C229.565 62.328 229.288 61.7413 229.288 61.016C229.288 59.5013 230.216 57.7733 232.072 55.832C233.97 53.8693 235.666 52.888 237.16 52.888C237.65 52.888 238.045 53.0267 238.344 53.304C238.664 53.56 238.824 53.88 238.824 54.264C238.824 55.4587 237.874 56.632 235.976 57.784C234.29 58.808 232.872 59.32 231.72 59.32C231.549 59.32 231.4 59.2987 231.272 59.256C230.952 59.832 230.792 60.44 230.792 61.08C230.792 62.1893 231.314 62.744 232.36 62.744C233.426 62.744 234.802 62.0293 236.488 60.6C237.789 59.5547 238.898 58.4453 239.816 57.272C240.008 57.016 240.178 56.888 240.328 56.888C240.456 56.888 240.52 56.952 240.52 57.08C240.52 57.208 240.434 57.3893 240.264 57.624C239.666 58.4133 239.026 59.1387 238.344 59.8C237.661 60.4613 236.925 61.0693 236.136 61.624C234.493 62.8187 233.106 63.416 231.976 63.416ZM232.168 58.616C232.978 58.616 234.034 58.2107 235.336 57.4C235.762 57.1013 236.178 56.7707 236.584 56.408C237.01 56.024 237.352 55.64 237.608 55.256C237.885 54.872 238.024 54.5307 238.024 54.232C238.024 53.9547 237.8 53.816 237.352 53.816C236.712 53.816 235.816 54.296 234.664 55.256C234.109 55.7253 233.576 56.2373 233.064 56.792C232.552 57.3467 232.114 57.9333 231.752 58.552C231.88 58.5947 232.018 58.616 232.168 58.616Z" fill="black"/>
<path d="M239.299 69.56C238.616 69.56 238.019 69.272 237.507 68.696C236.995 68.0987 236.749 67.4373 236.771 66.712C237.027 67.032 237.368 67.4053 237.795 67.832C238.349 68.3653 238.893 68.632 239.427 68.632C240.643 68.632 241.955 67.6613 243.363 65.72C243.853 65.0373 244.355 64.2373 244.867 63.32C245.4 62.424 245.901 61.4213 246.371 60.312L247.587 57.368L242.883 61.048C241.432 62.1787 240.269 62.744 239.395 62.744C238.925 62.744 238.552 62.5733 238.275 62.232C237.997 61.8907 237.859 61.5387 237.859 61.176C237.859 60.2587 238.648 58.7547 240.227 56.664C241.805 54.552 242.989 53.496 243.779 53.496C244.44 53.496 244.771 53.7413 244.771 54.232C244.771 54.424 243.821 55.5333 241.923 57.56C240.045 59.5653 239.107 60.92 239.107 61.624C239.107 61.9013 239.288 62.04 239.651 62.04C240.333 62.04 241.816 61.1547 244.099 59.384C245.037 58.6373 245.869 57.9547 246.595 57.336C247.32 56.7173 247.928 56.1627 248.419 55.672C248.589 55.4587 248.76 55.256 248.931 55.064C249.101 54.8507 249.261 54.6373 249.411 54.424C249.816 53.9547 250.221 53.72 250.627 53.72C251.203 53.72 251.491 53.9547 251.491 54.424C251.491 54.5093 251.043 55.2133 250.147 56.536C249.677 57.2613 249.304 57.8267 249.027 58.232C248.749 58.616 248.589 58.8613 248.547 58.968C247.885 60.248 246.872 62.1147 245.507 64.568C243.437 67.896 241.368 69.56 239.299 69.56Z" fill="black"/>
<path d="M264.302 63.064C263.79 63.064 263.534 62.776 263.534 62.2C263.769 61.0053 264.249 59.6613 264.974 58.168C265.315 57.4427 265.657 56.728 265.998 56.024C266.361 55.32 266.713 54.6053 267.054 53.88C266.265 54.4133 265.475 55.0107 264.686 55.672C263.897 56.312 263.129 57.0373 262.382 57.848C261.507 58.7867 260.494 59.992 259.342 61.464C258.51 62.5093 258.03 63.032 257.902 63.032C257.603 63.032 257.358 62.8933 257.166 62.616C256.974 62.3387 256.878 62.104 256.878 61.912C256.878 61.6347 257.123 60.92 257.614 59.768C257.763 59.4053 257.913 59.0533 258.062 58.712C258.233 58.3493 258.393 57.9973 258.542 57.656L256.622 59.672C256.579 59.7147 256.451 59.8427 256.238 60.056C256.025 60.2693 255.854 60.376 255.726 60.376C255.619 60.376 255.566 60.3013 255.566 60.152C255.566 60.1093 255.587 60.056 255.63 59.992C255.651 59.9067 255.715 59.8107 255.822 59.704C256.142 59.384 256.473 59.0427 256.814 58.68C257.155 58.3173 257.507 57.9013 257.87 57.432C258.147 57.0693 258.542 56.536 259.054 55.832C259.587 55.1067 260.238 54.2 261.006 53.112C261.241 52.792 261.571 52.632 261.998 52.632C262.425 52.632 262.638 52.8347 262.638 53.24C262.638 53.3893 262.094 54.3813 261.006 56.216C260.451 57.1973 260.003 57.9973 259.662 58.616C259.342 59.2347 259.139 59.6933 259.054 59.992C259.523 59.48 260.078 58.904 260.718 58.264C261.379 57.624 262.137 56.9093 262.99 56.12C265.614 53.688 267.342 52.472 268.174 52.472C268.409 52.472 268.633 52.5467 268.846 52.696C269.081 52.8453 269.198 53.0373 269.198 53.272C269.198 53.3787 268.782 54.1573 267.95 55.608C267.139 57.08 266.691 57.9547 266.606 58.232C268.974 56.248 270.158 55.2453 270.158 55.224C272.163 53.6667 273.603 52.888 274.478 52.888C274.734 52.888 274.969 52.9733 275.182 53.144C275.417 53.2933 275.534 53.4747 275.534 53.688C275.534 53.7307 274.851 54.6267 273.486 56.376C272.078 58.1467 271.289 59.5973 271.118 60.728C271.033 61.496 271.427 61.88 272.302 61.88C272.835 61.88 273.582 61.5387 274.542 60.856C275.502 60.1733 276.505 59.2347 277.55 58.04C277.678 57.8907 277.817 57.752 277.966 57.624C278.115 57.4747 278.243 57.4 278.35 57.4C278.478 57.4 278.542 57.4533 278.542 57.56C278.542 57.7093 278.446 57.88 278.254 58.072C277.699 58.7333 277.038 59.416 276.27 60.12C275.523 60.824 274.777 61.4213 274.03 61.912C273.283 62.3813 272.622 62.616 272.046 62.616C270.595 62.616 269.87 61.944 269.87 60.6C269.87 60.1307 269.998 59.5867 270.254 58.968C270.51 58.328 270.766 57.752 271.022 57.24C271.641 56.0453 272.313 54.9893 273.038 54.072C272.355 54.4133 271.641 54.8613 270.894 55.416C270.169 55.9707 269.411 56.6213 268.622 57.368C266.787 59.16 265.529 60.9733 264.846 62.808C264.739 62.9787 264.558 63.064 264.302 63.064Z" fill="black"/>
<path d="M278.57 63.416C277.887 63.416 277.268 63.2027 276.714 62.776C276.159 62.328 275.882 61.7413 275.882 61.016C275.882 59.5013 276.81 57.7733 278.666 55.832C280.564 53.8693 282.26 52.888 283.754 52.888C284.244 52.888 284.639 53.0267 284.938 53.304C285.258 53.56 285.418 53.88 285.418 54.264C285.418 55.4587 284.468 56.632 282.57 57.784C280.884 58.808 279.466 59.32 278.314 59.32C278.143 59.32 277.994 59.2987 277.866 59.256C277.546 59.832 277.386 60.44 277.386 61.08C277.386 62.1893 277.908 62.744 278.954 62.744C280.02 62.744 281.396 62.0293 283.082 60.6C284.383 59.5547 285.492 58.4453 286.41 57.272C286.602 57.016 286.772 56.888 286.922 56.888C287.05 56.888 287.114 56.952 287.114 57.08C287.114 57.208 287.028 57.3893 286.858 57.624C286.26 58.4133 285.62 59.1387 284.938 59.8C284.255 60.4613 283.519 61.0693 282.73 61.624C281.087 62.8187 279.7 63.416 278.57 63.416ZM278.762 58.616C279.572 58.616 280.628 58.2107 281.93 57.4C282.356 57.1013 282.772 56.7707 283.178 56.408C283.604 56.024 283.946 55.64 284.202 55.256C284.479 54.872 284.618 54.5307 284.618 54.232C284.618 53.9547 284.394 53.816 283.946 53.816C283.306 53.816 282.41 54.296 281.258 55.256C280.703 55.7253 280.17 56.2373 279.658 56.792C279.146 57.3467 278.708 57.9333 278.346 58.552C278.474 58.5947 278.612 58.616 278.762 58.616Z" fill="black"/>
<path d="M286.788 63.416C286.106 63.416 285.487 63.2027 284.932 62.776C284.378 62.328 284.1 61.7413 284.1 61.016C284.1 59.5013 285.028 57.7733 286.884 55.832C288.783 53.8693 290.479 52.888 291.972 52.888C292.463 52.888 292.858 53.0267 293.156 53.304C293.476 53.56 293.636 53.88 293.636 54.264C293.636 55.4587 292.687 56.632 290.788 57.784C289.103 58.808 287.684 59.32 286.532 59.32C286.362 59.32 286.212 59.2987 286.084 59.256C285.764 59.832 285.604 60.44 285.604 61.08C285.604 62.1893 286.127 62.744 287.172 62.744C288.239 62.744 289.615 62.0293 291.3 60.6C292.602 59.5547 293.711 58.4453 294.628 57.272C294.82 57.016 294.991 56.888 295.14 56.888C295.268 56.888 295.332 56.952 295.332 57.08C295.332 57.208 295.247 57.3893 295.076 57.624C294.479 58.4133 293.839 59.1387 293.156 59.8C292.474 60.4613 291.738 61.0693 290.948 61.624C289.306 62.8187 287.919 63.416 286.788 63.416ZM286.98 58.616C287.791 58.616 288.847 58.2107 290.148 57.4C290.575 57.1013 290.991 56.7707 291.396 56.408C291.823 56.024 292.164 55.64 292.42 55.256C292.698 54.872 292.836 54.5307 292.836 54.232C292.836 53.9547 292.612 53.816 292.164 53.816C291.524 53.816 290.628 54.296 289.476 55.256C288.922 55.7253 288.388 56.2373 287.876 56.792C287.364 57.3467 286.927 57.9333 286.564 58.552C286.692 58.5947 286.831 58.616 286.98 58.616Z" fill="black"/>
<path d="M295.359 63.192C294.676 63.192 294.132 63.032 293.727 62.712C293.343 62.3707 293.151 61.7733 293.151 60.92C293.151 60.4293 293.3 59.8107 293.599 59.064C293.898 58.296 294.271 57.4747 294.719 56.6C295.167 55.7253 295.615 54.8613 296.063 54.008C295.786 54.072 295.54 54.104 295.327 54.104C294.687 54.104 294.367 53.8587 294.367 53.368C294.367 53.1333 294.452 52.952 294.623 52.824C294.815 52.696 294.986 52.6213 295.135 52.6C295.135 52.6 295.156 52.6 295.199 52.6C295.263 52.6 295.338 52.5893 295.423 52.568H297.279C297.663 52.0773 298.058 51.5547 298.463 51C299.039 50.2747 299.498 49.848 299.839 49.72H299.935C300.084 49.72 300.298 49.7947 300.575 49.944C300.916 50.136 301.087 50.328 301.087 50.52C301.087 50.7973 300.575 51.512 299.551 52.664C299.743 52.6853 300.02 52.696 300.383 52.696C300.746 52.696 301.194 52.696 301.727 52.696C301.983 52.696 302.346 52.696 302.815 52.696C303.306 52.696 303.807 52.696 304.319 52.696C304.852 52.6747 305.311 52.664 305.695 52.664C306.079 52.6427 306.292 52.632 306.335 52.632C306.399 52.6533 306.431 52.6853 306.431 52.728C306.431 52.92 305.172 53.176 302.655 53.496C301.226 53.688 300.127 53.8373 299.359 53.944C298.612 54.0507 298.207 54.1147 298.143 54.136C297.844 54.392 297.482 54.8293 297.055 55.448C296.628 56.0667 296.202 56.76 295.775 57.528C295.348 58.296 294.986 59.032 294.687 59.736C294.41 60.4187 294.271 60.952 294.271 61.336C294.271 61.6773 294.399 61.9653 294.655 62.2C294.911 62.4133 295.327 62.52 295.903 62.52C296.287 62.52 296.746 62.4347 297.279 62.264C297.812 62.0933 298.314 61.9013 298.783 61.688C299.274 61.4533 299.626 61.272 299.839 61.144C300.394 60.8027 301.002 60.3547 301.663 59.8C302.346 59.224 303.018 58.5733 303.679 57.848C303.978 57.5493 304.18 57.4 304.287 57.4C304.351 57.4 304.383 57.4427 304.383 57.528C304.383 57.6987 304.223 57.976 303.903 58.36C303.391 58.9787 302.815 59.576 302.175 60.152C301.556 60.7067 300.863 61.2187 300.095 61.688C299.22 62.2213 298.378 62.6053 297.567 62.84C296.778 63.0747 296.042 63.192 295.359 63.192Z" fill="black"/>
<path d="M3.3533 11.16C2.76663 11.16 2.1933 10.7333 1.6333 9.88C1.04663 9 0.753296 8.01333 0.753296 6.92C0.753296 5.45333 1.20663 3.97333 2.1133 2.48C3.04663 0.959997 3.9533 0.199997 4.8333 0.199997V1.04C3.92663 1.57333 3.36663 2.81333 3.1533 4.76C3.1533 6.28 3.9933 7.32 5.6733 7.88V8.72L3.3533 11.16ZM10.2333 11.16C9.64663 11.16 9.0733 10.7333 8.5133 9.88C7.92663 9 7.6333 8.01333 7.6333 6.92C7.6333 5.50666 8.09996 4.02666 9.0333 2.48C9.96663 0.959997 10.8733 0.199997 11.7533 0.199997V1.04C10.82 1.6 10.2466 2.84 10.0333 4.76C10.0333 6.28 10.8733 7.32 12.5533 7.88V8.72L10.2333 11.16Z" fill="black"/>
<path d="M336.647 62.16C337.233 62.16 337.807 61.7333 338.367 60.88C338.953 60 339.247 59.0133 339.247 57.92C339.247 56.4533 338.793 54.9733 337.887 53.48C336.953 51.96 336.047 51.2 335.167 51.2V52.04C336.073 52.5733 336.633 53.8133 336.847 55.76C336.847 57.28 336.007 58.32 334.327 58.88V59.72L336.647 62.16ZM329.767 62.16C330.353 62.16 330.927 61.7333 331.487 60.88C332.073 60 332.367 59.0133 332.367 57.92C332.367 56.5067 331.9 55.0267 330.967 53.48C330.033 51.96 329.127 51.2 328.247 51.2V52.04C329.18 52.6 329.753 53.84 329.967 55.76C329.967 57.28 329.127 58.32 327.447 58.88V59.72L329.767 62.16Z" fill="black"/>
</svg>
